<?xml version="1.0" encoding="UTF-8" standalone="no"?>
<!-- Created with Inkscape (http://www.inkscape.org/) -->

<svg
   xmlns:dc="http://purl.org/dc/elements/1.1/"
   xmlns:cc="http://creativecommons.org/ns#"
   xmlns:rdf="http://www.w3.org/1999/02/22-rdf-syntax-ns#"
   xmlns:svg="http://www.w3.org/2000/svg"
   xmlns="http://www.w3.org/2000/svg"
   xmlns:sodipodi="http://sodipodi.sourceforge.net/DTD/sodipodi-0.dtd"
   xmlns:inkscape="http://www.inkscape.org/namespaces/inkscape"
   id="svg2"
   version="1.1"
   inkscape:version="0.48+devel r12701"
   width="310"
   height="382.5"
   viewBox="0 0 310 382.5"
   sodipodi:docname="ASL_book.svg">

  <metadata
     id="metadata8">
    <rdf:RDF>
      <cc:Work
         rdf:about="">
        <dc:format>image/svg+xml</dc:format>
        <dc:type
           rdf:resource="http://purl.org/dc/dcmitype/StillImage" />
        <dc:title>ASL word</dc:title>
        <dc:date>11/03/2013</dc:date>
        <dc:creator>
          <cc:Agent>
            <dc:title>Paul Sherman</dc:title>
          </cc:Agent>
        </dc:creator>
        <dc:rights>
          <cc:Agent>
            <dc:title>PD</dc:title>
          </cc:Agent>
        </dc:rights>
        <dc:publisher>
          <cc:Agent>
            <dc:title>WPClipart</dc:title>
          </cc:Agent>
        </dc:publisher>
        <dc:subject>
          <rdf:Bag>
            <rdf:li>ASL</rdf:li>
            <rdf:li>sign</rdf:li>
            <rdf:li>language</rdf:li>
            <rdf:li>bathroom</rdf:li>
          </rdf:Bag>
        </dc:subject>
        <cc:license
           rdf:resource="http://creativecommons.org/publicdomain/zero/1.0/" />
      </cc:Work>
      <cc:License
         rdf:about="http://creativecommons.org/publicdomain/zero/1.0/">
        <cc:permits
           rdf:resource="http://creativecommons.org/ns#Reproduction" />
        <cc:permits
           rdf:resource="http://creativecommons.org/ns#Distribution" />
        <cc:permits
           rdf:resource="http://creativecommons.org/ns#DerivativeWorks" />
      </cc:License>
    </rdf:RDF>
  </metadata>
  <defs
     id="defs6" />
  <sodipodi:namedview
     pagecolor="#ffffff"
     bordercolor="#666666"
     borderopacity="1"
     objecttolerance="10"
     gridtolerance="10"
     guidetolerance="10"
     inkscape:pageopacity="0"
     inkscape:pageshadow="2"
     inkscape:window-width="1222"
     inkscape:window-height="995"
     id="namedview4"
     showgrid="false"
     inkscape:zoom="1.4254587"
     inkscape:cx="158.24153"
     inkscape:cy="191.25"
     inkscape:window-x="444"
     inkscape:window-y="17"
     inkscape:window-maximized="0"
     inkscape:current-layer="svg2" />
  <rect
     style="fill:#ffffff;fill-opacity:1;stroke:none"
     id="rect4079"
     width="326.91232"
     height="400.57281"
     x="-6.3137569"
     y="-5.4452963" />
  <path
     style="fill:#000000"
     d="m 207.1317,277.8125 c -0.28371,-0.51563 -1.24713,-5.4375 -2.14091,-10.9375 -2.58631,-15.91498 -2.5472,-15.8583 -10.28941,-14.90523 -7.11158,0.87545 -19.53275,6.90387 -33.41272,16.21632 -7.90742,5.30531 -12.53866,6.92979 -12.53866,4.39815 0,-0.64118 1.26562,-1.55415 2.8125,-2.02884 1.54687,-0.47469 6.1875,-3.2026 10.3125,-6.06201 6.6729,-4.6256 10.82109,-7.02945 23.90987,-13.85563 1.97457,-1.0298 5.84013,-1.88411 8.59013,-1.89849 6.00221,-0.0314 11.36775,-2.54323 10.94001,-5.12156 -0.22334,-1.3463 1.71923,-2.28769 6.95025,-3.36814 3.99313,-0.82476 8.64808,-1.49957 10.34435,-1.49957 1.69627,0 4.31835,-0.86449 5.82684,-1.92108 1.5085,-1.05658 6.15166,-3.61242 10.31815,-5.67963 4.16648,-2.0672 7.24169,-4.29854 6.8338,-4.95852 -0.88244,-1.42781 -4.46781,-0.72547 -16.2134,3.17604 -12.59754,4.18453 -19.6791,4.93653 -24.24622,2.57478 -4.63627,-2.3975 -8.1285,-2.47678 -9.99574,-0.22689 -0.78269,0.94307 -3.39156,2.03414 -5.79749,2.42456 -2.40594,0.39043 -5.84779,1.86881 -7.64856,3.2853 C 178.3277,240.06698 170,241.01143 170,238.75 c 0,-0.6875 1.89987,-1.25 4.22195,-1.25 5.18615,0 7.95659,-2.67328 5.16846,-4.98721 -2.08556,-1.73087 -2.56,-5.01279 -0.72465,-5.01279 0.64118,0 1.52283,1.125 1.95924,2.5 0.7522,2.36996 3.15164,3.30669 4.64497,1.81336 1.49828,-1.49827 -2.24148,-6.79421 -4.80442,-6.80361 -1.46269,-0.005 -3.38353,-0.88223 -4.26853,-1.94859 -0.97948,-1.18021 -3.11802,-1.79157 -5.46556,-1.5625 -3.29131,0.32119 -4.42967,1.45578 -7.76794,7.74213 -2.1513,4.05118 -4.9638,7.92335 -6.25,8.60481 -1.28618,0.68146 -3.74477,2.49457 -5.46352,4.02914 -9.33931,8.33848 -31.34833,17.34183 -53.415651,21.85102 -15.151223,3.09596 -19.15807,4.40978 -24.73175,8.10938 -3.658198,2.42817 -7.259068,4.41486 -8.001934,4.41486 -3.087226,0 -0.869625,-2.21949 7.086835,-7.09286 8.129176,-4.97917 17.63728,-7.74036 39.86052,-11.5757 7.13345,-1.2311 32.20218,-13.72858 39.97493,-19.92865 4.38441,-3.49729 7.24517,-7.07285 9.08998,-11.36119 2.96962,-6.90309 5.94226,-8.48811 12.96557,-6.91334 3.48429,0.78125 7.31171,1.13888 18.7608,1.75296 1.21786,0.0654 2.83032,1.47082 3.58325,3.12329 1.41985,3.11624 4.28381,4.12831 15.0712,5.32594 4.49507,0.49905 8.54647,-0.25334 17.30889,-3.21445 6.29208,-2.1263 12.65115,-3.85879 14.13125,-3.84998 5.12686,0.0305 20.52653,-4.16186 23.4771,-6.39137 2.35572,-1.78004 2.64673,-2.55796 1.41802,-3.79065 -1.23049,-1.23445 -2.911,-1.12069 -8.23486,0.55751 -3.67889,1.15968 -8.67994,2.10849 -11.11346,2.10849 -2.43352,0 -5.11969,0.83756 -5.96927,1.86124 -2.10212,2.5329 -3.55112,1.3522 -2.84887,-2.32138 0.52072,-2.72404 1.05527,-2.95569 5.45767,-2.3652 2.81723,0.37786 8.09484,-0.24732 12.48405,-1.47887 4.182,-1.17342 8.35949,-1.84343 9.28329,-1.48894 0.92381,0.3545 2.34664,-0.15911 3.16183,-1.14136 2.3225,-2.79844 -1.55774,-3.5951 -9.79909,-2.01189 -12.10323,2.32511 -21.14999,2.55716 -27.31846,0.70072 C 229.7258,205.78945 224.94208,205 222.30134,205 219.6606,205 217.5,204.50781 217.5,203.90625 c 0,-1.85804 6.96731,-2.60181 11.82029,-1.26185 3.56206,0.98354 5.23187,0.87041 7.33349,-0.49686 1.49667,-0.9737 4.75337,-2.14749 7.23711,-2.6084 5.15745,-0.95709 9.26283,-4.78258 8.17495,-7.61758 -1.03851,-2.70631 -2.86174,-2.43009 -11.76684,1.78273 -5.77652,2.73276 -10.52312,3.91722 -18.125,4.52291 -16.7296,1.33295 -24.65044,6.06556 -24.69314,14.75387 -0.0205,4.15945 -1.83208,8.08438 -3.13166,6.78479 -0.43271,-0.4327 -0.38771,-3.51016 0.1,-6.8388 1.64976,-11.25991 12.08679,-17.88426 28.29185,-17.95674 4.32595,-0.0194 9.2433,-1.15801 14.13398,-3.2729 10.14893,-4.38872 15.60406,-5.12666 17.61081,-2.38227 3.50761,4.79694 -3.78994,13.13972 -11.54973,13.20399 -1.2711,0.01 -3.15483,0.60263 -4.18608,1.31578 -1.92267,1.3296 9.02762,0.9896 25.91957,-0.8048 6.73719,-0.71568 7.90856,-0.53098 8.63478,1.36152 0.46211,1.20423 0.18892,3.23238 -0.60708,4.50698 -0.796,1.2746 -1.44727,3.43712 -1.44727,4.8056 0,1.36848 -1.34685,3.37064 -2.993,4.44923 -1.93057,1.26496 -2.77982,2.7763 -2.39245,4.25761 0.71761,2.74415 -3.82918,6.33894 -8.01769,6.33894 -3.62206,0 -3.63596,1.65966 -0.0344,4.10334 3.99749,2.71228 1.77523,4.4152 -7.89736,6.05172 -7.92246,1.34041 -16.13991,5.44055 -16.1566,8.0614 -0.005,0.73781 2.94459,3.73476 6.55396,6.6599 6.33208,5.13168 12.16784,12.8263 12.1811,16.06114 0.0125,2.93435 -2.42621,1.56886 -4.46402,-2.5 -1.11904,-2.23438 -6.04949,-7.93026 -10.95655,-12.65751 l -8.92193,-8.59502 -10.01305,0.66069 c -11.96096,0.78921 -14.82057,1.72423 -13.75622,4.49788 0.66811,1.74106 5.61817,25.63892 5.61817,27.12335 0,0.91175 -2.32444,0.58405 -2.8683,-0.40439 z m 18.87158,-34.78989 c 5.2207,-0.57017 9.2265,-1.83966 11.875,-3.76336 2.1982,-1.59663 5.68422,-3.83845 7.74672,-4.98184 5.208,-2.88715 8.125,-5.61429 8.125,-7.59615 0,-2.72726 -4.55517,-1.92134 -6.57646,1.16355 -1.0252,1.56465 -4.04303,3.95289 -6.70626,5.3072 -2.66325,1.35431 -6.39638,3.49259 -8.29583,4.75174 -1.89945,1.25914 -7.16397,2.8148 -11.69892,3.45704 -4.53497,0.64222 -9.16837,1.75942 -10.29645,2.48265 -1.55798,0.99883 -0.84903,1.16166 2.94892,0.67727 2.75,-0.35074 8.54523,-1.02487 12.87828,-1.4981 z M 255.625,235 c 0.4249,-0.6875 -0.38565,-1.25 -1.80123,-1.25 -1.41557,0 -2.57377,0.5625 -2.57377,1.25 0,0.6875 0.81055,1.25 1.80122,1.25 0.99068,0 2.14888,-0.5625 2.57378,-1.25 z m -61.31971,-6.1372 c 1.208,-1.95459 -0.7163,-5.1128 -3.11525,-5.1128 -2.75584,0 -4.16888,1.94917 -3.21504,4.43486 0.76766,2.00049 5.21832,2.47714 6.33029,0.67794 z m 68.33188,-4.65309 c 2.06435,-2.48739 0.68923,-3.33986 -3.79778,-2.35435 -3.49167,0.7669 -4.92204,2.89533 -3.14202,4.67535 1.07167,1.07165 5.29695,-0.34148 6.9398,-2.321 z M 26.25,271.875 c 0,-3.09375 0.5625,-5.625 1.25,-5.625 0.6875,0 1.25,2.53125 1.25,5.625 0,3.09375 -0.5625,5.625 -1.25,5.625 -0.6875,0 -1.25,-2.53125 -1.25,-5.625 z m 52.5,-20.34638 C 78.75,237.43425 79.934588,230 82.180415,230 c 1.391229,0 1.622437,0.83925 0.947007,3.4375 -0.49148,1.89062 -1.076718,8.7685 -1.300531,15.28417 C 81.315882,263.59826 78.75,265.93904 78.75,251.52862 Z m 87.33571,-7.13544 c -3.17949,-1.75703 -5.5274,-5.36817 -4.29292,-6.60263 0.33089,-0.3309 2.40078,0.91226 4.59976,2.76257 3.18931,2.68364 5.03334,3.28407 9.11529,2.96805 2.81444,-0.2179 5.39841,0.16633 5.74216,0.85383 1.01916,2.03834 -11.48151,2.05331 -15.16429,0.0181 z m 56.53756,-110.29442 c -2.33846,-1.15187 -10.56401,-8.36573 -18.27901,-16.03081 -13.82124,-13.73179 -14.12959,-13.94852 -20.99349,-14.75523 -6.19365,-0.72794 -7.5937,-0.43719 -12.62427,2.62177 -10.5617,6.42227 -35.08528,23.20931 -38.54724,26.38662 -2.32329,2.13224 -3.85761,2.75054 -4.71012,1.89803 -1.50509,-1.50509 2.68013,-4.97276 20.98886,-17.39036 25.96104,-17.607657 24.84695,-17.077357 34.36856,-16.35927 10.36299,0.78155 17.69504,-1.214122 29.31279,-7.978469 4.66711,-2.717386 13.12627,-7.261075 18.79815,-10.097085 5.67187,-2.83601 10.3125,-5.626638 10.3125,-6.201397 0,-2.364123 -2.54346,-2.176924 -11.16644,0.821851 -9.00974,3.133279 -12.80837,3.069485 -8.41729,-0.141359 1.25804,-0.9199 5.19465,-2.343467 8.74804,-3.163481 3.55338,-0.820015 7.70653,-2.271379 9.22921,-3.225252 1.52269,-0.953876 3.59887,-1.734318 4.61373,-1.734318 2.6686,0 3.55407,-2.082645 2.06691,-4.86142 -1.48402,-2.772923 -6.90476,-2.204584 -5.82445,0.610666 0.80601,2.100445 -1.72855,3.807548 -2.88205,1.941144 -0.58547,-0.94732 -3.85371,-0.260384 -10.42547,2.191282 -5.26498,1.964149 -9.88082,3.263039 -10.25743,2.88642 -1.43584,-1.435837 -0.53399,-2.319082 4.00274,-3.920131 2.57812,-0.909842 9.46875,-3.471835 15.3125,-5.693317 5.84375,-2.221483 11.64502,-4.398593 12.89172,-4.838023 1.2467,-0.43943 1.89975,-1.392751 1.45122,-2.11849 -0.55855,-0.903764 -1.30183,-0.915917 -2.35897,-0.03857 -1.01722,0.844216 -1.96483,0.859584 -2.77933,0.04507 -1.9997,-1.999688 -9.20464,0.01033 -9.20464,2.567883 0,2.476946 -3.26603,4.271842 -4.40874,2.422894 C 231.43491,59.287934 231.9794,58.75 233.05122,58.75 234.12305,58.75 235,58.12652 235,57.36449 c 0,-0.831827 -1.12394,-1.077547 -2.8125,-0.614878 -1.54688,0.423849 -6.46875,1.812359 -10.9375,3.085578 -4.46875,1.273219 -8.89844,2.534288 -9.84375,2.802376 -0.94531,0.268089 -1.94868,-0.132021 -2.22969,-0.889132 -0.62949,-1.695968 6.9942,-4.481677 20.19844,-7.380538 C 242.98973,51.378917 242.5,51.563749 242.5,49.414231 242.5,47.944386 241.01354,47.5 236.09695,47.5 c -5.595,0 -6.20351,0.240435 -4.82187,1.905208 0.86964,1.047863 1.2572,2.22919 0.86121,2.625168 -1.11772,1.11772 -3.38629,-0.720509 -3.38629,-2.74392 0,-1.383367 -1.11673,-1.657589 -4.6875,-1.151057 -2.57813,0.365718 -11.2782,1.491142 -19.3335,2.50094 -8.0553,1.009799 -15.17093,1.982846 -15.8125,2.162328 -0.64158,0.179483 -1.36338,-0.224138 -1.604,-0.896937 -0.24063,-0.672798 3.21875,-2.079048 7.6875,-3.125 12.81374,-2.99917 16.54326,-5.943865 11.1701,-8.819493 -1.9548,-1.046172 -3.05496,-0.98111 -4.54052,0.26852 -1.07836,0.907084 -5.68302,3.617993 -10.23261,6.024243 -7.29761,3.859662 -8.74018,5.256775 -12.24692,11.860905 -7.13511,13.437364 -17.4649,19.671356 -55.27148,33.356161 -18.64934,6.750483 -21.63441,7.474828 -33.124294,8.037799 -9.058342,0.443834 -12.245473,0.236332 -11.275067,-0.734074 0.744044,-0.744044 3.494339,-1.54497 6.111769,-1.779837 2.61743,-0.234868 5.174235,-1.20079 5.68179,-2.146493 C 91.780322,93.898758 93.15476,86.375 94.327072,78.125 96.89177,60.076275 97.141283,59.141283 98.918736,60.918736 c 0.94904,0.94904 0.554527,5.745683 -1.360131,16.536996 -1.483301,8.360121 -3.007222,16.008879 -3.386494,16.997243 -1.374866,3.582844 7.064069,1.789379 29.247879,-6.215845 37.71062,-13.608205 46.19642,-18.584975 52.84503,-30.992693 4.11525,-7.679921 7.5236,-10.971308 13.99632,-13.516013 2.26251,-0.889492 6.74582,-3.77977 9.96292,-6.42284 4.89305,-4.019997 6.78321,-4.805584 11.5625,-4.805584 3.65826,0 5.76651,0.562009 5.86134,1.5625 0.3145,3.318004 -0.463,5.421115 -3.06891,8.30128 L 211.875,45.35256 215,44.623024 c 7.08247,-1.653418 24.8744,-3.514504 30.06242,-3.144615 4.7191,0.336455 5.62467,0.834651 5.97203,3.285527 0.2252,1.588915 1.3502,3.235385 2.5,3.658823 3.31902,1.222297 3.9965,3.221192 1.8832,5.556362 -1.77581,1.962243 -1.76999,2.347115 0.0632,4.180335 2.74658,2.746577 2.54756,3.936662 -1.05284,6.29573 -2.47004,1.61843 -2.9303,2.721045 -2.34904,5.62736 0.59523,2.976155 0.19952,3.836168 -2.24055,4.869381 -1.6299,0.690162 -5.21346,2.658674 -7.96346,4.37447 -2.75,1.715798 -8.65625,5.027428 -13.125,7.359178 -4.46875,2.331751 -11.3168,6.191001 -15.21787,8.576111 -3.90109,2.385112 -10.23767,5.325724 -14.08129,6.534684 l -6.98841,2.19813 4.70628,3.48028 c 2.58847,1.91415 8.64379,7.567 13.45629,12.56189 4.89315,5.07859 11.09166,10.12819 14.0625,11.45597 2.92188,1.30588 5.3125,2.91052 5.3125,3.56585 0,1.74602 -2.55982,1.41297 -7.37672,-0.95973 z M 246.25,72.5 c 0,-0.6875 -0.84375,-1.25 -1.875,-1.25 -1.03125,0 -1.875,0.5625 -1.875,1.25 0,0.6875 0.84375,1.25 1.875,1.25 1.03125,0 1.875,-0.5625 1.875,-1.25 z m 4.02084,-11.479166 c -1.9094,-1.909391 -3.3183,-0.500483 -2.25929,2.259277 0.6253,1.629478 1.1674,1.79094 2.27942,0.67891 1.11204,-1.112028 1.10724,-1.810805 -0.0201,-2.938187 z M 253.125,51.25 C 252.7001,50.5625 251.78996,50 251.10246,50 c -0.6875,0 -0.90236,0.5625 -0.47746,1.25 0.4249,0.6875 1.33504,1.25 2.02254,1.25 0.6875,0 0.90236,-0.5625 0.47746,-1.25 z M 248.75,45 c 0,-0.6875 -1.54688,-1.210465 -3.4375,-1.162144 -3.04605,0.07785 -3.15281,0.210191 -0.9375,1.162144 3.41422,1.467142 4.375,1.467142 4.375,0 z M 214.98086,36.5625 C 214.99086,35.703125 214.5031,35 213.89579,35 c -1.32277,0 -2.67717,4.551963 -1.65772,5.571405 0.86688,0.866883 2.71617,-1.836066 2.74279,-4.008905 z M 208.75,36.25 c 0,-0.6875 -0.5625,-1.25 -1.25,-1.25 -0.6875,0 -1.25,0.5625 -1.25,1.25 0,0.6875 0.5625,1.25 1.25,1.25 0.6875,0 1.25,-0.5625 1.25,-1.25 z m 64.51394,87.27537 c 0.88088,-6.42673 -1.10418,-14.63363 -5.05262,-20.88928 -3.33934,-5.290639 -10.14207,-20.510706 -11.37443,-25.44859 -0.63352,-2.538376 -0.39384,-3.4375 0.91628,-3.4375 1.06792,0 2.38499,2.363645 3.30852,5.9375 0.84387,3.265625 3.24547,9.3125 5.3369,13.4375 2.09141,4.125 5.18911,10.22206 6.88375,13.54901 2.47065,4.85043 3.008,7.55527 2.71191,13.65079 -0.22639,4.66059 -0.96989,7.80007 -1.92165,8.11429 -1.14941,0.37946 -1.35934,-0.89611 -0.80866,-4.91372 z M 23.555835,116.74531 c 1.774079,-1.24262 2.577305,-2.74686 2.112929,-3.95701 -0.852652,-2.22197 -1.399603,-8.43508 -2.583809,-29.3508 C 22.499404,73.095356 22.659677,68.75 23.626689,68.75 c 0.755321,0 1.388628,0.140625 1.407348,0.3125 0.563847,5.176609 2.598498,38.96175 2.516185,41.78094 -0.06372,2.18265 0.461403,4.32522 1.166956,4.76128 2.689796,1.66238 1.100803,3.14528 -3.37031,3.14528 -4.626328,0 -4.636646,-0.0115 -1.791033,-2.00469 z M 257.54764,99.207186 C 254.48009,97.580734 250.35509,96.25 248.38097,96.25 c -2.31588,0 -3.40452,-0.554345 -3.06847,-1.5625 0.28646,-0.859375 0.89584,-1.421875 1.35416,-1.25 0.45834,0.171875 2.7189,0.3125 5.02349,0.3125 4.2437,0 12.06436,4.322206 13.00515,7.1875 0.6818,2.0765 -0.51373,1.78708 -7.14766,-1.730314 z"
     id="path4064"
     inkscape:connector-curvature="0" />
  <g
     style="font-size:50px;font-style:normal;font-variant:normal;font-weight:normal;font-stretch:normal;text-align:start;line-height:125%;letter-spacing:0px;word-spacing:0px;writing-mode:lr-tb;text-anchor:start;fill:#000000;fill-opacity:1;stroke:none;font-family:Veranda;-inkscape-font-specification:'Veranda, Normal'"
     id="text4066">
    <path
       d="m 123.25635,341.49292 q 0,-4.95605 -2.05078,-7.76367 -2.02637,-2.83203 -5.59082,-2.83203 -3.56446,0 -5.61524,2.83203 -2.02637,2.80762 -2.02637,7.76367 0,4.95605 2.02637,7.78809 2.05078,2.80761 5.61524,2.80761 3.56445,0 5.59082,-2.80761 2.05078,-2.83204 2.05078,-7.78809 z m -15.28321,-9.5459 q 1.41602,-2.4414 3.56446,-3.61328 2.17285,-1.19629 5.17578,-1.19629 4.98047,0 8.08105,3.95508 3.125,3.95508 3.125,10.40039 0,6.44531 -3.125,10.40039 -3.10058,3.95508 -8.08105,3.95508 -3.00293,0 -5.17578,-1.17188 -2.14844,-1.19629 -3.56446,-3.63769 l 0,4.10156 -4.5166,0 0,-37.98828 4.5166,0 0,14.79492 z"
       style=""
       id="path4071" />
    <path
       d="m 145.96143,330.94604 q -3.61329,0 -5.71289,2.83204 -2.09961,2.80761 -2.09961,7.71484 0,4.90723 2.07519,7.73926 2.09961,2.80761 5.73731,2.80761 3.58886,0 5.68847,-2.83203 2.09961,-2.83203 2.09961,-7.71484 0,-4.8584 -2.09961,-7.69043 -2.09961,-2.85645 -5.68847,-2.85645 z m 0,-3.80859 q 5.85937,0 9.2041,3.80859 3.34472,3.8086 3.34472,10.54688 0,6.71387 -3.34472,10.54687 -3.34473,3.8086 -9.2041,3.8086 -5.88379,0 -9.22852,-3.8086 -3.32031,-3.833 -3.32031,-10.54687 0,-6.73828 3.32031,-10.54688 3.34473,-3.80859 9.22852,-3.80859 z"
       style=""
       id="path4073" />
    <path
       d="m 176.52783,330.94604 q -3.61328,0 -5.71289,2.83204 -2.09961,2.80761 -2.09961,7.71484 0,4.90723 2.0752,7.73926 2.09961,2.80761 5.7373,2.80761 3.58887,0 5.68848,-2.83203 2.09961,-2.83203 2.09961,-7.71484 0,-4.8584 -2.09961,-7.69043 -2.09961,-2.85645 -5.68848,-2.85645 z m 0,-3.80859 q 5.85938,0 9.2041,3.80859 3.34473,3.8086 3.34473,10.54688 0,6.71387 -3.34473,10.54687 -3.34472,3.8086 -9.2041,3.8086 -5.88379,0 -9.22851,-3.8086 -3.32032,-3.833 -3.32032,-10.54687 0,-6.73828 3.32032,-10.54688 3.34472,-3.80859 9.22851,-3.80859 z"
       style=""
       id="path4075" />
    <path
       d="m 196.32764,317.1521 4.5166,0 0,22.43652 13.40332,-11.79199 5.7373,0 -14.50195,12.79297 15.1123,14.55078 -5.85937,0 -13.8916,-13.35449 0,13.35449 -4.5166,0 0,-37.98828 z"
       style=""
       id="path4077" />
  </g>
</svg>
