<?xml version="1.0" encoding="UTF-8" standalone="no"?>
<!-- Created with Inkscape (http://www.inkscape.org/) -->

<svg
   xmlns:dc="http://purl.org/dc/elements/1.1/"
   xmlns:cc="http://creativecommons.org/ns#"
   xmlns:rdf="http://www.w3.org/1999/02/22-rdf-syntax-ns#"
   xmlns:svg="http://www.w3.org/2000/svg"
   xmlns="http://www.w3.org/2000/svg"
   xmlns:sodipodi="http://sodipodi.sourceforge.net/DTD/sodipodi-0.dtd"
   xmlns:inkscape="http://www.inkscape.org/namespaces/inkscape"
   id="svg2"
   version="1.1"
   inkscape:version="0.48+devel r12701"
   width="445"
   height="481.25"
   viewBox="0 0 445 481.25"
   sodipodi:docname="ASL_when.svg">

  <metadata
     id="metadata8">
    <rdf:RDF>
      <cc:Work
         rdf:about="">
        <dc:format>image/svg+xml</dc:format>
        <dc:type
           rdf:resource="http://purl.org/dc/dcmitype/StillImage" />
        <dc:title>ASL word</dc:title>
        <dc:date>11/03/2013</dc:date>
        <dc:creator>
          <cc:Agent>
            <dc:title>Paul Sherman</dc:title>
          </cc:Agent>
        </dc:creator>
        <dc:rights>
          <cc:Agent>
            <dc:title>PD</dc:title>
          </cc:Agent>
        </dc:rights>
        <dc:publisher>
          <cc:Agent>
            <dc:title>WPClipart</dc:title>
          </cc:Agent>
        </dc:publisher>
        <dc:subject>
          <rdf:Bag>
            <rdf:li>ASL</rdf:li>
            <rdf:li>sign</rdf:li>
            <rdf:li>language</rdf:li>
            <rdf:li>bathroom</rdf:li>
          </rdf:Bag>
        </dc:subject>
        <cc:license
           rdf:resource="http://creativecommons.org/publicdomain/zero/1.0/" />
      </cc:Work>
      <cc:License
         rdf:about="http://creativecommons.org/publicdomain/zero/1.0/">
        <cc:permits
           rdf:resource="http://creativecommons.org/ns#Reproduction" />
        <cc:permits
           rdf:resource="http://creativecommons.org/ns#Distribution" />
        <cc:permits
           rdf:resource="http://creativecommons.org/ns#DerivativeWorks" />
      </cc:License>
    </rdf:RDF>
  </metadata>
  <defs
     id="defs6" />
  <sodipodi:namedview
     pagecolor="#ffffff"
     bordercolor="#666666"
     borderopacity="1"
     objecttolerance="10"
     gridtolerance="10"
     guidetolerance="10"
     inkscape:pageopacity="0"
     inkscape:pageshadow="2"
     inkscape:window-width="1041"
     inkscape:window-height="989"
     id="namedview4"
     showgrid="false"
     inkscape:zoom="0.655"
     inkscape:cx="357.03654"
     inkscape:cy="417.84388"
     inkscape:window-x="49"
     inkscape:window-y="-3"
     inkscape:window-maximized="0"
     inkscape:current-layer="svg2" />
  <rect
     style="fill:#ffffff;fill-opacity:1;stroke:none"
     id="rect4098"
     width="467.17557"
     height="494.65649"
     x="-7.6335878"
     y="-8.8263359" />
  <path
     style="fill:#000000"
     d="m 381.71786,388.16624 c -0.38702,-1.00858 -0.46246,-2.55545 -0.16762,-3.4375 0.29483,-0.88205 0.8324,-0.0569 1.19457,1.83376 0.70718,3.69152 0.12375,4.60255 -1.02695,1.60374 z m -4.63101,-15.35374 c -1.15656,-5.32813 -3.04239,-16.85938 -4.19072,-25.625 -1.14834,-8.76563 -2.61914,-15.9375 -3.26844,-15.9375 -0.7271,0 -0.84698,7.32206 -0.31211,19.0625 0.73718,16.18115 0.57713,19.44039 -1.05882,21.5625 -1.81179,2.35021 -1.92963,2.11622 -1.96701,-3.90534 -0.0219,-3.52294 -0.80576,-8.58544 -1.742,-11.25 -0.93624,-2.66456 -2.09629,-8.78216 -2.57789,-13.59466 -1.27428,-12.73341 -4.30276,-24.37299 -7.64301,-29.375 -1.60686,-2.40625 -3.7673,-8.03125 -4.80099,-12.5 -3.23436,-13.98249 -5.20764,-17.90991 -15.95174,-31.74885 -5.74702,-7.40244 -11.45163,-15.04213 -12.67693,-16.97708 -2.45142,-3.87118 -4.46655,-14.80146 -7.93308,-43.02955 -2.1881,-17.8178 -2.50031,-18.95736 -7.15747,-26.12458 -8.80304,-13.54758 -12.38907,-22.06958 -12.98942,-30.86859 -0.69842,-10.23668 0.75588,-13.95203 7.32352,-18.7096 7.99878,-5.79429 13.40477,-5.31203 20.55005,1.83325 3.09375,3.09375 5.829,5.625 6.07832,5.625 0.24933,0 2.45211,-4.07813 4.89508,-9.0625 7.37677,-15.05083 10.89328,-17.82583 20.31486,-16.03111 3.38027,0.64391 7.22111,1.58591 8.53519,2.09333 2.28987,0.88421 2.35395,0.38405 1.54061,-12.02683 -0.58104,-8.866251 -1.44918,-13.613005 -2.7532,-15.053946 -1.39334,-1.53962 -4.99446,-2.327533 -13.41561,-2.935292 -19.10619,-1.3789 -24.5823,-2.885792 -29.93347,-8.236961 C 311.36796,75.412084 311.25,75.063396 311.25,66.096734 l 2.35038,-8.432603 6.50677,-8.932701 c 2.83384,-3.280889 4.70994,-2.990043 10.86341,-7.330769 0,0 -4.5157,-8.900661 -3.92526,-8.900661 0.59044,0 7.44851,2.73307 13.80214,5.246318 4.42476,1.750261 9.50416,3.627369 12.70214,4.654348 l 0.23933,-4.747251 c 0.54805,-10.870411 8.46333,-10.301464 15.32928,-9.903958 l 5.03974,0.954275 2.26907,5.206672 c 1.28401,2.946319 1.36712,6.838222 2.03309,8.125 0.66596,1.286778 1.61436,4.570158 2.10755,7.296402 1.92037,10.61562 6.5695,15.444774 12.64515,13.134818 4.2916,-1.631664 17.97545,-12.9979 20.84147,-17.311593 4.58276,-6.897555 1.99058,-12.223067 -8.42926,-17.317476 -10.07034,-4.923535 -16.75473,-5.963646 -38.125,-5.932369 -18.31081,0.0268 -22.13881,0.414729 -34.11666,3.457381 -7.42042,1.884958 -16.4659,5.105749 -20.10108,7.157314 -3.63517,2.051565 -6.97436,3.730119 -7.42042,3.730119 -0.89673,0 -5.08814,-7.906612 -6.33594,-11.951991 -1.11796,-3.624464 4.92952,-6.74983 24.2241,-12.519092 14.55374,-4.3517066 17.00136,-4.7110683 35.69996,-5.241499 43.72255,-1.2402943 62.77265,4.832549 68.57463,21.860402 5.50096,16.144447 -2.2699,31.892053 -22.08873,44.762656 -12.93611,8.400881 -14.30687,10.868145 -10.30316,18.544908 1.02701,1.969211 1.89141,6.469211 1.92088,9.999996 0.0295,3.53079 1.8576,13.4238 4.0625,21.98447 3.97182,15.4208 4.06098,15.60259 9.63392,19.6412 3.09375,2.242 6.55905,4.89061 7.70066,5.88581 2.72186,2.37279 5.22595,14.68791 4.3181,21.23649 -0.39432,2.84441 -1.24705,12.25701 -1.89492,20.9169 -0.64789,8.6599 -2.07071,20.75365 -3.16184,26.875 -1.09113,6.12136 -2.81225,18.161 -3.82473,26.75475 -1.01247,8.59375 -2.41977,19.48021 -3.12733,24.19214 -0.91332,6.08206 -0.88559,10.07052 0.0956,13.75 3.98731,14.95271 9.55836,30.46502 15.61998,43.49311 3.72597,8.00814 6.7745,16.10816 6.7745,18.00005 0,3.41349 -0.027,3.4025 -3.52212,-1.43525 -5.79826,-8.02552 -12.27278,-20.60069 -15.12668,-29.37987 -1.4759,-4.54017 -3.43465,-9.28217 -4.35278,-10.53778 -1.59595,-2.18259 -1.73316,-2.1637 -3.12109,0.42968 -1.26883,2.37083 -1.80145,2.51735 -4.22705,1.16277 -1.52641,-0.85241 -2.89772,-1.57854 -3.04737,-1.6136 -0.14964,-0.0351 1.08892,-6.78506 2.75236,-15 1.66344,-8.21494 3.62016,-21.405 4.34826,-29.31125 0.72812,-7.90625 2.51353,-22.30684 3.96759,-32.00131 2.29761,-15.31849 2.41856,-18.08605 0.92381,-21.13759 -2.47853,-5.05994 -7.00037,-7.90889 -14.84493,-9.35295 -3.78125,-0.69606 -13.23833,-3.58815 -21.01572,-6.42686 -12.18002,-4.44565 -14.5847,-4.95901 -17.34271,-3.70238 -2.99756,1.36578 -3.14944,1.85518 -2.37874,7.66502 0.77873,5.87031 -0.59408,8.55478 -2.21487,4.33107 -1.17948,-3.07369 -5.44325,-2.13406 -8.25881,1.82001 -1.4471,2.03227 -3.77452,6.27993 -5.17203,9.43924 l -2.54094,5.74423 3.21278,2.52717 c 2.35486,1.85234 3.02257,3.285 2.5005,5.36514 -0.61375,2.44535 0.48459,3.56112 7.93925,8.0653 9.27349,5.60312 12.2664,5.73575 13.55522,0.60066 0.99668,-3.97104 -2.0945,-7.35557 -9.71025,-10.63179 -7.33906,-3.15717 -8.77148,-5.72198 -2.80677,-5.02563 4.43501,0.51776 5.20135,-0.63447 3.07031,-4.61635 -0.63954,-1.19498 -0.69579,-2.92832 -0.125,-3.85185 0.7847,-1.26968 2.21839,-0.43812 5.87878,3.40975 2.66253,2.79891 6.51566,5.44121 8.56248,5.87176 12.18053,2.56224 13.98559,4.14606 7.00638,6.14767 l -3.88888,1.11533 4.18832,5.82982 4.18832,5.82984 -3.43026,-0.50345 c -5.48001,-0.8043 -8.1632,1.58575 -11.93951,10.63514 -5.09953,12.22025 -6.56218,14.20587 -10.17489,13.81297 -2.67829,-0.29126 -3.41119,0.54365 -5.61845,6.40064 l -2.53838,6.7356 2.72279,12.0144 c 3.51129,15.49365 5.38815,19.59446 10.37744,22.67387 4.16176,2.56867 5.54582,3.00358 13.76121,4.32423 2.57541,0.414 6.22285,2.07764 8.10543,3.69695 l 3.42286,2.94423 -3.10544,2.64003 c -2.11704,1.79978 -4.1995,2.44629 -6.54292,2.03131 -1.89063,-0.3348 -3.433,-0.20091 -3.42752,0.29753 0.046,4.17345 3.86333,30.44516 4.7724,32.84464 1.70694,4.50541 3.21394,26.18661 1.82017,26.18661 -0.63958,0 -2.10914,-4.35938 -3.2657,-9.6875 z M 349.41054,254.92925 C 352.48474,248.80814 355,242.97784 355,241.97304 c 0,-1.00482 -3.40306,-4.44553 -7.56237,-7.64604 -9.85972,-7.58688 -13.89597,-13.68539 -13.89597,-20.99594 0,-3.08337 0.65495,-6.82992 1.45545,-8.32566 0.80049,-1.49574 1.15482,-3.02015 0.78738,-3.38758 -2.59021,-2.59022 -15.59841,6.95993 -15.95756,11.71547 -1.57197,20.81506 4.67087,38.54953 17.59431,49.98145 2.44957,2.16686 4.89162,3.67065 5.4268,3.34177 0.53516,-0.32889 3.48829,-5.60616 6.5625,-11.72726 z M 327.40311,192.8982 c 0.62077,-2.24823 0.8354,-5.20915 0.47697,-6.57981 -0.60754,-2.32321 -0.89415,-2.36675 -4.22884,-0.64231 -4.79363,2.47887 -6.15124,5.40034 -6.15124,13.23696 l 0,6.57737 4.38723,-4.25226 c 2.41296,-2.33874 4.89511,-6.09171 5.51588,-8.33995 z m 14.1816,2.10681 c 1.74451,-1.37224 4.61138,-4.95134 6.37079,-7.95355 1.93005,-3.29337 4.75514,-6.10317 7.12218,-7.08364 3.60897,-1.49488 5.28997,-1.15071 20.98528,4.29654 9.38412,3.25689 20.88013,6.71506 25.54667,7.68486 4.66655,0.96979 9.54453,2.33052 10.83998,3.02382 1.99939,1.07003 2.47235,0.72787 3.1295,-2.26409 0.92237,-4.19951 -0.96526,-9.71348 -4.72487,-13.80185 -2.33478,-2.53894 -19.21469,-11.4071 -21.71263,-11.4071 -0.4663,0 -8.04539,-3.375 -16.84242,-7.5 -25.82852,-12.1112 -32.25233,-10.09244 -26.45069,8.31247 2.21974,7.04184 1.51769,10.04279 -1.40066,5.98712 -4.47612,-6.22055 -5.54374,-7.37035 -6.21777,-6.69634 -0.39837,0.39838 -1.81882,5.00384 -3.15656,10.23434 -2.27037,8.87705 -2.29954,9.84788 -0.43827,14.58621 1.0967,2.79191 2.3953,5.0762 2.8858,5.0762 0.4905,0 2.31915,-1.12274 4.06367,-2.49499 z m -19.92407,-15.07829 c 1.59005,-2.27011 1.51165,-3.54241 -0.66543,-10.79916 -2.35756,-7.85834 -2.37218,-8.43796 -0.3275,-12.97227 4.20049,-9.31503 -1.7427,-19.90529 -11.17072,-19.90529 -6.24618,0 -12.02739,7.36006 -11.96318,15.23032 0.0444,5.43395 6.16013,19.63588 11.19138,25.98836 4.60989,5.82045 9.87901,6.82171 12.93545,2.45804 z M 418.10311,163.75 c -1.15249,-7.15536 -3.06806,-10.81274 -6.62305,-12.64524 -1.84528,-0.95119 -6.73006,-3.61867 -10.85506,-5.92772 -17.78828,-9.95738 -41.68348,-21.36639 -46.27596,-22.09495 l -4.97404,-0.78909 -0.2336,4.62139 c -0.39356,7.78622 -1.57187,9.31576 -3.56052,4.62186 -0.95275,-2.24881 -1.39165,-4.97639 -0.97534,-6.06127 0.64832,-1.6895 0.39556,-1.74685 -1.76151,-0.39973 -3.36407,2.10089 -12.63893,21.13166 -16.71637,34.29975 -1.48891,4.80848 -0.29907,10.31151 2.56042,11.84186 1.928,1.03183 2.58793,0.21512 4.80612,-5.9479 5.94743,-16.5243 6.25184,-17.11821 9.19834,-17.94596 5.89537,-1.65616 11.7886,-1.00375 17.91452,1.98321 9.18405,4.4781 20.16528,9.2744 29.39294,12.83805 4.46875,1.7258 12.34375,5.22079 17.5,7.76665 l 9.375,4.62883 0.96639,-3.20738 c 0.53151,-1.76405 0.64929,-5.17611 0.26172,-7.58236 z m -19.94037,-29.6875 c -0.4701,-1.20313 -1.69825,-6.6875 -2.72923,-12.1875 -3.21663,-17.16007 -5.6922,-25.625 -7.49403,-25.625 -2.12511,0 -2.22054,-2.114429 -0.12698,-2.813141 2.05312,-0.685219 -0.0965,-7.025127 -2.99956,-8.846861 -2.37679,-1.491457 -14.33183,0.743575 -17.88855,3.344319 -1.99243,1.456892 -2.01046,1.939982 -0.2314,6.197865 1.0612,2.5398 2.66127,4.635708 3.55572,4.657572 1.04902,0.02565 0.82957,0.643986 -0.61821,1.741986 -4.60321,3.49108 -3.76509,16.34571 1.46504,22.4695 2.07172,2.42573 23.15118,13.00506 26.2257,13.16211 1.11792,0.0571 1.40482,-0.65915 0.8415,-2.10085 z M 381.25,97.008736 c 0,-0.270195 0.84375,-0.815041 1.875,-1.210769 1.03125,-0.395728 1.875,-0.17466 1.875,0.491264 0,0.665923 -0.84375,1.210769 -1.875,1.210769 -1.03125,0 -1.875,-0.221069 -1.875,-0.491264 z M 354.27276,72.991264 c 2.14893,-0.824619 2.54434,-10.28562 0.93023,-22.257535 l -1.44643,-8.017604 -11.09054,11.235887 c -5.39911,5.469869 -9.26747,9.797988 -9.26747,9.797988 -0.32089,0.127094 0.11561,-7.76355 -0.31576,-9.4823 -1.09505,-4.36303 -3.77606,2.44463 -7.58568,8.201338 -3.88677,5.873316 -3.34257,8.252917 2.2566,9.867252 4.66349,1.344564 23.50907,1.810016 26.51905,0.654974 z M 377.8125,68.55813 c 3.40629,-1.784646 3.11002,-3.06532 -4.87154,-21.05813 -5.25449,-11.845204 -6.09277,-13.125 -8.59705,-13.125 -4.28131,0 -5.77245,5.45863 -4.49636,16.459889 1.39438,12.020946 3.24131,17.186286 5.79483,16.206411 1.27086,-0.487675 1.85762,0.09581 1.85762,1.84725 0,2.233886 0.51764,2.448952 4.0625,1.687879 2.23438,-0.479715 5.04688,-1.387949 6.25,-2.018299 z M 66.806331,274.6468 c -1.29321,-3.37005 1.991844,-12.52505 8.843919,-24.6468 8.557477,-15.13871 9.721219,-18.22026 8.055949,-21.33184 -0.711788,-1.32999 -1.845803,-2.41816 -2.520034,-2.41816 -0.674233,0 -1.106781,-1.56298 -0.961223,-3.47328 0.302227,-3.96634 -1.101196,-6.90525 -2.796997,-5.85718 -0.63212,0.39066 -0.814321,-0.16267 -0.404891,-1.22961 1.040327,-2.71105 2.631151,-2.42974 10.364157,1.83272 3.719216,2.05004 8.48885,3.72735 10.599186,3.72735 5.384583,0 13.643643,-6.11721 23.263603,-17.23058 4.46875,-5.16248 11.98784,-13.62708 16.7091,-18.81022 l 8.58409,-9.4239 -0.7127,-6.01765 c -0.39199,-3.30971 -0.43518,-6.01765 -0.096,-6.01765 0.3392,0 2.21721,1.18329 4.17336,2.62954 4.51897,3.34102 7.86974,2.36391 11.38202,-3.31908 3.21853,-5.2077 4.66336,-5.42986 5.67747,-0.87296 1.50439,6.75992 1.99621,7.87451 5.10513,11.56925 3.59352,4.27065 3.13477,4.43844 -5.24234,1.9173 -6.61262,-1.99011 -9.33015,-1.04961 -9.33015,3.229 0,1.82741 -0.92408,2.34695 -4.17435,2.34695 -3.26019,0 -4.49205,0.69725 -5.625,3.18381 -0.79786,1.7511 -1.45065,3.61583 -1.45065,4.14384 0,0.52801 3.58595,2.22596 7.96877,3.77324 7.25117,2.55987 8.35123,2.65341 12.21575,1.03871 5.94583,-2.48432 19.38975,-13.94049 21.77722,-18.55734 1.12306,-2.17176 1.6691,-5.1369 1.252,-6.79875 -0.42561,-1.69575 -5.90941,-7.20537 -12.91423,-12.97502 -6.69598,-5.51529 -14.02577,-12.27443 -16.28842,-15.0203 -2.92438,-3.54894 -5.81588,-5.48651 -10,-6.70096 -4.99248,-1.44909 -5.94836,-2.23475 -6.29631,-5.17512 -0.59388,-5.01867 2.0029,-7.05455 4.43188,-3.47461 1.16204,1.71268 3.19288,2.81624 5.1933,2.82206 2.54189,0.008 7.79329,4.39048 23.21332,19.375 10.96055,10.65099 20.10117,19.36544 20.3125,19.36544 0.21132,0 0.38422,-1.14741 0.38422,-2.5498 0,-1.40239 1.125,-4.75498 2.5,-7.4502 1.375,-2.69523 2.5,-5.6907 2.5,-6.65663 0,-3.11096 -5.03932,-8.29679 -16.71399,-17.19995 -6.27605,-4.78614 -15.78551,-12.34513 -21.13211,-16.79775 -8.89695,-7.40931 -10.22165,-8.09943 -15.625,-8.13996 -7.93084,-0.0595 -11.57065,-2.16324 -10.17254,-5.87951 0.90904,-2.41629 1.49737,-2.629839 4.30467,-1.5625 1.78844,0.67996 5.22083,1.2363 7.62752,1.2363 5.86034,0 7.60105,1.05749 23.58645,14.32887 15.14434,12.57312 26.01796,20.84877 30.26955,23.0374 2.45579,1.2642 2.98681,1.00554 4.6875,-2.28321 1.05487,-2.0399 1.91795,-5.66794 1.91795,-8.0623 0,-4.90312 -3.48018,-8.26594 -19.375,-18.72162 -4.8125,-3.16568 -14.09375,-9.708424 -20.625,-14.539431 -6.53125,-4.831006 -13.14714,-9.122128 -14.70198,-9.535823 -2.44768,-0.651253 -8.38763,0.75461 -17.24122,4.080638 -2.22948,0.837546 -2.2758,0.720745 -0.5568,-1.40389 3.77115,-4.661025 11.63199,-9.400634 15.59135,-9.400634 2.57851,0 7.11536,2.014776 12.96661,5.758352 7.44058,4.760416 9.69935,5.633252 13.0337,5.036484 2.21834,-0.397029 6.28334,-1.06837 9.03334,-1.491869 l 5,-0.769997 -4.6875,3.278579 c -12.08425,8.452085 -0.0832,6.970153 15.69561,-1.938148 6.08474,-3.435281 13.88629,-6.760731 17.44338,-7.435319 6.48678,-1.230192 29.36118,-13.919717 30.51578,-16.928563 0.31305,-0.815787 1.65839,-1.198413 2.98965,-0.850282 4.02775,1.05328 15.50239,-5.464373 20.62387,-11.714465 4.27567,-5.2179 4.43036,-5.651927 1.6881,-4.73669 -4.905,1.637058 -11.08662,1.492087 -12.56959,-0.294782 -2.30287,-2.774799 -8.50476,-1.893843 -23.5743,3.348644 -7.90625,2.750477 -17.75,5.546176 -21.875,6.212666 -5.06748,0.818769 -8.19816,2.063877 -9.65258,3.838949 -1.18392,1.444931 -2.7308,2.269792 -3.4375,1.833023 -0.70671,-0.436768 -1.28492,-0.111247 -1.28492,0.723382 0,0.989056 -0.79604,0.7971 -2.28593,-0.551229 -3.44157,-3.114579 -6.36596,-2.616486 -23.69086,4.035116 -8.74401,3.357118 -21.24196,7.640407 -27.77321,9.518419 -18.42921,5.299182 -19.42905,6.152199 -35.89962,30.62773 -4.85779,7.21875 -14.38817,19.875 -21.178626,28.125 -6.790454,8.25 -16.455188,20.54242 -21.477186,27.3165 -11.300858,15.24351 -17.911111,22.47736 -24.990691,27.34824 -3.680055,2.53195 -8.075371,7.77121 -13.38994,15.96094 C 26.885863,218.37356 16.25,228.75216 16.25,223.84744 c 0,-0.63392 5.23327,-8.93079 11.629487,-18.4375 7.645412,-11.3634 13.076574,-18.1414 15.853518,-19.78494 6.91333,-4.09166 14.969119,-12.90574 26.888051,-29.41899 6.185331,-8.56956 16.322289,-21.76851 22.526574,-29.33101 6.204285,-7.5625 15.60592,-20.28178 20.89253,-28.265064 5.28661,-7.983286 11.55668,-16.222496 13.93348,-18.309357 4.05423,-3.559664 16.25098,-9.050579 20.10368,-9.050579 0.95347,0 10.61862,-3.113372 21.47813,-6.918605 21.32936,-7.47392 34.61498,-11.098085 45.44455,-12.39676 14.22264,-1.70557 40.89486,-10.738718 58.26957,-19.734305 7.42942,-3.846501 7.73672,-3.897541 10.91767,-1.813305 7.25952,4.756629 5.23342,16.195594 -4.70874,26.58445 -4.67279,4.882734 -9.8255,8.371234 -19.4785,13.187361 -7.21875,3.60162 -15.65625,8.022157 -18.75,9.823417 -6.28305,3.658152 -17.41906,8.189887 -23.125,9.410584 -2.0625,0.44124 -7.6875,2.886418 -12.5,5.433728 -11.28645,5.974045 -11.83779,8.332455 -3.23801,13.850915 9.31282,5.97602 16.36301,13.26973 16.36301,16.92819 0,1.70966 -0.68264,5.66077 -1.51698,8.78025 -1.40517,5.25379 -1.21962,6.52185 2.51758,17.20544 2.219,6.3435 4.02664,13.39874 4.01697,15.67831 -0.0319,7.50163 -4.87148,13.25098 -12.409,14.74143 -3.74741,0.74101 -6.13596,0.27031 -14.63157,-2.88336 -0.7689,-0.28544 -6.3939,3.72706 -12.5,8.91663 -6.1061,5.18959 -13.47768,10.35458 -16.38129,11.47775 -5.12895,1.984 -5.53144,1.94869 -14.13401,-1.23998 -13.53336,-5.01635 -14.35473,-4.80127 -23.7326,6.21448 -8.05009,9.45609 -19.05809,18.68518 -27.44687,23.01142 -8.387229,4.32545 -18.166211,17.71606 -26.941116,36.89118 -4.468334,9.7643 -7.578165,13.39197 -8.784783,10.24758 z M 215.73654,173.65744 c 0.9699,-0.80495 1.76346,-3.43879 1.76346,-5.85298 0,-5.20801 -2.46665,-14.05446 -3.91879,-14.05446 -1.69919,0 -11.03604,12.50978 -11.89692,15.93981 -0.585,2.33085 -0.15918,3.6795 1.56888,4.96886 2.62652,1.95973 9.58844,1.40133 12.48337,-1.00123 z M 275.02502,43.112062 c 3.19117,-1.650218 6.22498,-5.259068 6.22498,-7.404886 0,-1.376334 -4.8451,-0.683787 -6.47321,0.925266 -0.90849,0.897844 -2.63617,2.005189 -3.83929,2.460769 -2.19524,0.831256 -2.91179,3.515838 -1.35416,5.073455 1.12924,1.129236 1.27216,1.101536 5.44169,-1.054604 z M 58.75,221.8252 C 58.75,218.08257 68.557703,205 71.36346,205 c 1.835625,0 -0.04069,8.92999 -2.456336,11.69048 C 66.018403,219.99157 58.75,223.66596 58.75,221.8252 Z m 51.25467,-68.91605 c 0.0173,-3.82963 18.24412,-24.15915 21.66033,-24.15915 2.98475,0 2.69374,0.70456 -3.15689,7.64305 -5.68863,6.74639 -18.51101,18.19159 -18.50344,16.5161 z M 125,118.75 c 1.86694,-3.65949 3.29804,-4.97354 5.3379,-4.90132 1.53291,0.0543 2.08397,0.3824 1.2246,0.72917 -0.85938,0.34677 -1.5625,1.32931 -1.5625,2.18342 0,1.61597 -5.12655,6.98873 -6.66847,6.98873 -0.48529,0 0.26553,-2.25 1.66847,-5 z m -12.5,2.60154 c 0,-2.56578 10.35211,-18.85154 11.98306,-18.85154 2.66882,0 2.1516,2.30669 -1.95061,8.69943 C 118.75602,117.08449 112.5,123.41512 112.5,121.35154 Z"
     id="path4064"
     inkscape:connector-curvature="0"
     sodipodi:nodetypes="sscscsssssssssssssssssssssssssccssscsscssssssssssssssssssssssssssssssssscssssssssssscssssssscssscccsssscsssscsscssccssssscsscssssscsssssssssssssscsssssssscsssssscssssssssssscssssssssssssssssssssscssssssssssssssssssscssssscsssssssssssssssssssscsssssssssssssssssssssssscsssssssssssssssssssssssssssssssssssssssssscscssssssssssssscssssccssssssssscssssssss" />
  <g
     style="font-size:70px;font-style:normal;font-variant:normal;font-weight:normal;font-stretch:normal;text-align:start;line-height:125%;letter-spacing:0px;word-spacing:0px;writing-mode:lr-tb;text-anchor:start;fill:#000000;fill-opacity:1;stroke:none;font-family:Veranda;-inkscape-font-specification:'Veranda, Normal'"
     id="text4066">
    <path
       d="m 70.115028,392.58707 6.289063,0 7.861328,29.87304 7.827148,-29.87304 7.416993,0 7.86133,29.87304 7.82715,-29.87304 6.28906,0 -10.01465,38.28125 -7.41699,0 -8.237307,-31.37696 -8.271484,31.37696 -7.416992,0 -10.014649,-38.28125 z"
       style=""
       id="path4071" />
    <path
       d="m 162.8787,407.76285 0,23.10547 -6.28906,0 0,-22.90039 q 0,-5.43457 -2.11914,-8.13477 -2.11914,-2.70019 -6.35742,-2.70019 -5.09278,0 -8.03223,3.24707 -2.93945,3.24707 -2.93945,8.85253 l 0,21.63575 -6.32325,0 0,-53.1836 6.32325,0 0,20.84961 q 2.25585,-3.45215 5.29785,-5.16113 3.07617,-1.70898 7.07519,-1.70898 6.59668,0 9.98047,4.10156 3.38379,4.06738 3.38379,11.99707 z"
       style=""
       id="path4073" />
    <path
       d="m 208.23515,410.15543 0,3.07617 -28.91602,0 q 0.41016,6.49414 3.89648,9.91211 3.52051,3.38379 9.77539,3.38379 3.62305,0 7.00684,-0.88868 3.41797,-0.88867 6.76758,-2.66601 l 0,5.94726 q -3.38379,1.43555 -6.93848,2.1875 -3.55469,0.75196 -7.21191,0.75196 -9.16016,0 -14.52637,-5.33203 -5.33203,-5.33203 -5.33203,-14.42383 0,-9.39942 5.05859,-14.90235 5.09278,-5.5371 13.70606,-5.5371 7.72461,0 12.20215,4.99023 4.51172,4.95605 4.51172,13.50098 z m -6.28907,-1.84571 q -0.0684,-5.16113 -2.90527,-8.2373 -2.80273,-3.07617 -7.45117,-3.07617 -5.26367,0 -8.44239,2.97363 -3.14453,2.97363 -3.62304,8.37402 l 22.42187,-0.0342 z"
       style=""
       id="path4075" />
    <path
       d="m 250.3787,407.76285 0,23.10547 -6.28906,0 0,-22.90039 q 0,-5.43457 -2.11914,-8.13477 -2.11914,-2.70019 -6.35742,-2.70019 -5.09278,0 -8.03223,3.24707 -2.93945,3.24707 -2.93945,8.85253 l 0,21.63575 -6.32325,0 0,-38.28125 6.32325,0 0,5.94726 q 2.25585,-3.45215 5.29785,-5.16113 3.07617,-1.70898 7.07519,-1.70898 6.59668,0 9.98047,4.10156 3.38379,4.06738 3.38379,11.99707 z"
       style=""
       id="path4077" />
  </g>
</svg>
