<?xml version="1.0" encoding="UTF-8" standalone="no"?>
<!-- Created with Inkscape (http://www.inkscape.org/) -->

<svg
   xmlns:dc="http://purl.org/dc/elements/1.1/"
   xmlns:cc="http://creativecommons.org/ns#"
   xmlns:rdf="http://www.w3.org/1999/02/22-rdf-syntax-ns#"
   xmlns:svg="http://www.w3.org/2000/svg"
   xmlns="http://www.w3.org/2000/svg"
   xmlns:sodipodi="http://sodipodi.sourceforge.net/DTD/sodipodi-0.dtd"
   xmlns:inkscape="http://www.inkscape.org/namespaces/inkscape"
   id="svg2"
   version="1.1"
   inkscape:version="0.48+devel r12701"
   width="311.25"
   height="371.25"
   viewBox="0 0 311.25 371.25"
   sodipodi:docname="ASL_thanks_good_welcome.svg">

  <metadata
     id="metadata8">
    <rdf:RDF>
      <cc:Work
         rdf:about="">
        <dc:format>image/svg+xml</dc:format>
        <dc:type
           rdf:resource="http://purl.org/dc/dcmitype/StillImage" />
        <dc:title>ASL word</dc:title>
        <dc:date>11/03/2013</dc:date>
        <dc:creator>
          <cc:Agent>
            <dc:title>Paul Sherman</dc:title>
          </cc:Agent>
        </dc:creator>
        <dc:rights>
          <cc:Agent>
            <dc:title>PD</dc:title>
          </cc:Agent>
        </dc:rights>
        <dc:publisher>
          <cc:Agent>
            <dc:title>WPClipart</dc:title>
          </cc:Agent>
        </dc:publisher>
        <dc:subject>
          <rdf:Bag>
            <rdf:li>ASL</rdf:li>
            <rdf:li>sign</rdf:li>
            <rdf:li>language</rdf:li>
            <rdf:li>bathroom</rdf:li>
          </rdf:Bag>
        </dc:subject>
        <cc:license
           rdf:resource="http://creativecommons.org/publicdomain/zero/1.0/" />
      </cc:Work>
      <cc:License
         rdf:about="http://creativecommons.org/publicdomain/zero/1.0/">
        <cc:permits
           rdf:resource="http://creativecommons.org/ns#Reproduction" />
        <cc:permits
           rdf:resource="http://creativecommons.org/ns#Distribution" />
        <cc:permits
           rdf:resource="http://creativecommons.org/ns#DerivativeWorks" />
      </cc:License>
    </rdf:RDF>
  </metadata>
  <defs
     id="defs6">
    <marker
       inkscape:stockid="TriangleOutM"
       orient="auto"
       refY="0"
       refX="0"
       id="TriangleOutM-8"
       style="overflow:visible"
       inkscape:isstock="true">
      <path
         inkscape:connector-curvature="0"
         id="path4219-5"
         d="m 5.77,0 -8.65,5 0,-10 8.65,5 z"
         style="fill:#000000;fill-opacity:1;fill-rule:evenodd;stroke:#000000;stroke-width:1pt;stroke-opacity:1"
         transform="scale(0.4,0.4)" />
    </marker>
  </defs>
  <sodipodi:namedview
     pagecolor="#ffffff"
     bordercolor="#666666"
     borderopacity="1"
     objecttolerance="10"
     gridtolerance="10"
     guidetolerance="10"
     inkscape:pageopacity="0"
     inkscape:pageshadow="2"
     inkscape:window-width="1059"
     inkscape:window-height="974"
     id="namedview4"
     showgrid="false"
     inkscape:zoom="0.63569024"
     inkscape:cx="-112.95584"
     inkscape:cy="185.625"
     inkscape:window-x="0"
     inkscape:window-y="0"
     inkscape:window-maximized="0"
     inkscape:current-layer="svg2" />
  <rect
     style="fill:#ffffff;fill-opacity:1;stroke:none"
     id="rect4089"
     width="328.77649"
     height="391.70023"
     x="-6.2923727"
     y="-4.7192798" />
  <g
     id="g5927"
     transform="translate(0,-1.5730932)">
    <path
       inkscape:connector-curvature="0"
       id="path4064"
       d="m 195.80697,251.02679 -16.06803,-6.5592 -7.68197,2.83005 c -9.5325,3.51178 -11.01988,3.73306 -11.72113,1.74376 -0.9452,-2.68135 10.65113,-7.05565 18.41416,-6.94608 5.38767,0.076 9.61204,1.34763 19.52667,5.87773 18.40457,8.40925 21.06062,8.52492 34.9989,1.52434 13.04712,-6.553 18.16404,-10.77646 9.24269,-7.62883 -2.90645,1.02545 -5.7625,1.56902 -6.34677,1.20792 -2.36973,-1.46458 0.59035,-4.15858 6.09127,-5.54373 8.44005,-2.12522 24.09524,-10.6093 29.07745,-15.75806 4.57941,-4.73249 2.5026,-4.84751 -4.16073,-0.23045 -4.2776,2.96397 -16.99817,8.23404 -25.30448,10.4835 -7.71631,2.08969 -8.12541,2.09774 -8.12326,0.15976 9.5e-4,-0.85937 3.45646,-2.57779 7.67891,-3.81869 4.22246,-1.2409 11.39355,-4.01792 15.93577,-6.17117 7.60397,-3.60469 7.97123,-3.95404 4.63333,-4.40746 -1.99389,-0.27087 -8.74389,0.75647 -15,2.28296 -13.57794,3.313 -17.70086,3.28561 -33.19369,-0.2205 -13.9862,-3.16516 -25.85604,-2.74215 -36.03984,1.28436 -7.39156,2.9225 -9.01622,3.1719 -9.01622,1.38406 0,-1.45892 10.2923,-6.77841 15.625,-8.07565 6.79565,-1.65312 22.3859,-0.76567 32.33677,1.8407 l 9.78634,2.56329 12.68844,-3.30346 c 10.68205,-2.7811 14.52946,-3.21115 24.33095,-2.7197 6.40337,0.32107 12.21339,1.15465 12.91115,1.85241 0.69775,0.69775 1.53495,3.44613 1.86045,6.1075 1.22252,9.99583 -5.13166,16.30489 -21.9241,21.7684 -4.4055,1.43335 -12.56144,5.23136 -18.12431,8.44004 -8.75584,5.05035 -11.20572,5.8848 -18.24002,6.21267 -7.37072,0.34355 -9.61853,-0.23067 -24.1937,-6.18047 z m 63.069,-12.47468 C 263.806,236.87216 275,229.86406 275,228.45752 c 0,-2.42707 -6.55075,-0.51262 -13.40531,3.91769 -10.73497,6.93834 -11.75513,9.25613 -2.71872,6.1769 z M 122.5,255.60409 c 0,-0.46984 2.16698,-5.43859 4.81551,-11.04166 2.64853,-5.60309 6.33825,-14.78987 8.19939,-20.41508 1.86114,-5.62521 5.17854,-12.58792 7.372,-15.4727 14.83724,-19.51351 17.56742,-24.60969 20.21694,-37.73715 1.03002,-5.10343 2.85541,-4.16319 2.42677,1.25 -0.93814,11.84746 -4.16211,18.35839 -18.23777,36.83187 -3.71074,4.87012 -6.79072,11.09927 -9.6755,19.56837 -4.60759,13.52687 -11.0777,26.59476 -13.55484,27.37711 -0.85937,0.27141 -1.5625,0.10912 -1.5625,-0.36076 z M 93.458761,243.04004 c -1.228506,-1.98777 2.107614,-8.30236 8.075109,-15.28457 6.75868,-7.9079 7.5195,-11.40692 5.80988,-26.71967 -1.64237,-14.71031 -0.12838,-21.44039 6.52307,-28.99684 2.68957,-3.05551 7.56044,-7.10434 10.82415,-8.9974 3.26372,-1.89305 8.74653,-6.47467 12.18403,-10.18139 6.51399,-7.02415 11.73825,-9.10671 18.5537,-7.39613 3.57682,0.89772 8.3213,8.25273 8.3213,12.89988 0,5.20519 -2.72768,13.01855 -7.11685,20.38608 -5.36323,9.00252 -7.66976,11.88005 -8.69829,10.85154 -1.11046,-1.11048 1.16986,-6.04749 7.03292,-15.22654 4.44853,-6.96451 7.57706,-15.625 5.64441,-15.625 -1.5721,0 -5.64443,5.62071 -11.32066,15.625 -3.12061,5.5 -6.73058,11.39785 -8.02218,13.10632 -4.17047,5.51654 -4.15814,1.63307 0.0186,-5.84458 9.59097,-17.17105 14.96202,-28.16709 14.96202,-30.63158 0,-2.50099 -0.12513,-2.52939 -2.33445,-0.52999 -1.28395,1.16197 -5.26438,7.57727 -8.8454,14.25624 -8.1022,15.11144 -11.0545,18.97095 -12.59948,16.47115 -0.73976,-1.19697 -0.34231,-2.62256 1.20114,-4.30823 2.32728,-2.54175 8.10251,-13.47119 11.78874,-22.30975 l 1.9979,-4.79044 -4.01913,2.3473 c -2.5405,1.48372 -5.87696,5.65108 -9.06902,11.32751 -4.84483,8.61554 -14.82353,20.28105 -17.34845,20.28105 -0.6642,0 -0.0541,-1.26563 1.35581,-2.8125 3.3545,-3.6804 9.4487,-13.5278 8.78353,-14.19298 -1.37611,-1.37611 -12.19066,8.77704 -14.55831,13.66795 -2.5,5.16432 -2.59565,6.48656 -1.56304,21.60674 0.60496,8.85819 0.80474,16.94954 0.44397,17.98079 -0.36077,1.03125 -3.79535,5.86919 -7.63238,10.75097 -3.83704,4.8818 -7.579632,9.91164 -8.31688,11.17743 -0.737249,1.26579 -1.671352,1.76602 -2.075789,1.11164 z M 202.5,242.248 c -11.58353,-1.97733 -12.5,-2.24871 -12.5,-3.70154 0,-1.64992 17.98902,-0.49916 23.20654,1.48454 2.91057,1.1066 3.17975,0.95461 2.81818,-1.59128 -0.27926,-1.96649 -2.65988,-4.05387 -7.89972,-6.92666 -6.81016,-3.73372 -8.21858,-4.05422 -15.3125,-3.48452 -8.58845,0.68971 -10.09304,-0.45167 -3.66125,-2.77743 7.4777,-2.70397 13.66867,-1.87878 21.56127,2.87389 3.99598,2.40625 7.73429,4.375 8.30738,4.375 0.57309,0 1.62746,1.53994 2.34305,3.42208 1.10747,2.9129 0.89627,3.74987 -1.41943,5.625 -2.93762,2.37875 -6.72332,2.53087 -17.44352,0.70092 z M 84.217843,154.04571 c -4.134343,-0.6673 -8.198057,-5.81105 -8.299139,-10.50485 -0.04934,-2.29122 1.122635,-6.13067 2.604391,-8.5321 l 2.694105,-4.36624 -0.2961,8.68307 c -0.284435,8.34098 -0.167593,8.72935 2.96586,9.8583 10.388985,3.74303 24.19385,-11.22395 20.1744,-21.8727 -1.20862,-3.20198 -1.12221,-3.65993 0.62696,-3.32307 5.04766,0.97209 4.38066,14.59098 -1.05293,21.49867 -4.124793,5.24382 -13.728785,9.4771 -19.417548,8.55892 z M 164.16422,141.875 c 0.34733,-1.375 1.83428,-5.54285 3.30432,-9.26189 l 2.6728,-6.76188 -2.88318,2.087 c -3.47944,2.51861 -8.66839,4.81822 -9.34509,4.14151 -0.86328,-0.86329 -2.76235,-8.32974 -2.11863,-8.32974 0.34095,0 1.75188,0.60581 3.13541,1.34625 1.38352,0.74045 3.45592,0.93544 4.60532,0.43332 1.1494,-0.50212 2.93358,-0.96731 3.96483,-1.03375 1.03125,-0.0664 1.67847,-0.96457 1.43827,-1.99582 -0.24019,-1.03125 -1.51503,-5.95872 -2.83296,-10.94994 C 164.78737,106.55885 163.46649,98.965097 163.17,94.675062 162.87351,90.385029 162.90613,88.28125 163.2425,90 c 0.33635,1.71875 1.12412,4.25 1.75062,5.625 2.91393,6.39533 6.6706,22.10046 7.21478,30.16203 0.6006,8.89729 0.59392,8.91999 -4.03678,13.74999 -3.31297,3.45554 -4.45792,4.12362 -4.00686,2.33798 z m -29.1632,-15.2826 c -3.0216,-3.84136 -1.24689,-5.60737 2.35723,-2.34568 2.77358,2.51006 5.62532,2.55792 7.64175,0.12828 1.77856,-2.14304 3.75,-2.47161 3.75,-0.625 0,2.35941 -5.00129,6.25 -8.03428,6.25 -1.81482,0 -4.11151,-1.36948 -5.7147,-3.4076 z M 61.345906,124.26388 C 58.204211,121.62032 57.5,120.0904 57.5,115.90854 c 0,-9.6146 8.761644,-22.198751 15.408406,-22.130745 1.494126,0.01529 4.122844,1.186676 5.841594,2.603088 l 3.125,2.575292 -4.063036,-0.696945 c -5.988513,-1.027228 -9.748014,0.953887 -13.260325,6.98769 -5.053304,8.68106 -5.324588,11.59377 -1.441486,15.47687 2.978962,2.97896 4.014772,3.27082 9.361107,2.63762 7.302978,-0.86493 8.95795,0.26345 3.656042,2.49274 -5.92841,2.49271 -10.515559,1.9992 -14.781396,-1.59027 z m 38.222829,-9.04981 c -2.931356,-3.23911 -2.569486,-4.09258 1.137645,-2.68313 5.13642,1.95287 9.87082,1.42546 14.30398,-1.59344 6.75547,-4.60035 7.19516,-6.24562 3.25879,-12.193884 -4.34903,-6.571827 -3.006,-8.333026 1.90155,-2.493616 4.79719,5.70811 5.60884,9.2491 3.02418,13.19378 -4.92465,7.51597 -18.947,10.9407 -23.626145,5.77029 z M 88.75,101.05799 c 0,-0.79311 2.207825,-3.480267 4.906276,-5.971465 7.878914,-7.27377 8.470214,-15.884635 1.294889,-18.856754 C 90.593289,74.42468 82.734225,76.08046 79.995227,79.38075 78.019651,81.761175 76.25,81.779751 76.25,79.420064 76.25,76.67447 85.033084,71.25 89.478639,71.25 c 6.162805,0 11.096961,2.270814 13.397921,6.166041 2.64156,4.471805 2.66204,6.637604 0.1107,11.708534 C 98.988561,97.07225 88.75,105.65402 88.75,101.05799 Z M 140,96.875 c 0,-1.314103 1.32576,-1.875 4.43181,-1.875 6.01329,0 10.11669,-4.260691 11.22568,-11.655952 1.64702,-10.983172 -5.29384,-18.802545 -13.01982,-14.66773 -1.64706,0.881483 -2.74734,0.907488 -3.26058,0.07706 -0.42605,-0.689359 -0.17894,-1.25338 0.54913,-1.25338 0.72808,0 1.32378,-0.783569 1.32378,-1.741264 0,-0.957695 0.88975,-2.082695 1.97724,-2.5 4.29196,-1.64698 7.36136,-0.54691 11.95882,4.286028 4.79038,5.035737 4.79794,5.060347 4.22298,13.754596 -0.3168,4.790409 -1.20246,9.880385 -1.96814,11.31106 C 154.76645,97.607679 140,101.21831 140,96.875 Z M 120,82.963386 c 0,-0.432636 2.53125,-3.143823 5.625,-6.024858 4.65004,-4.330317 5.625,-6.016316 5.625,-9.72727 0,-3.478253 -0.86606,-5.217765 -3.84634,-7.725505 -5.29977,-4.459461 -8.51025,-4.996403 -16.20731,-2.71062 -3.64183,1.081506 -6.86342,1.72446 -7.1591,1.428785 -1.35988,-1.359883 1.65463,-3.335214 7.82902,-5.130158 5.29929,-1.540547 7.80318,-1.672537 11.72012,-0.617815 C 129.78642,54.125441 135,60.00441 135,65.326251 c 0,5.643697 -4.67799,14.443032 -8.81594,16.582848 C 122.41934,83.855911 120,84.268371 120,82.963386 Z"
       style="fill:#000000" />
    <path
       inkscape:transform-center-y="-15.50017"
       inkscape:transform-center-x="-2.3381044"
       inkscape:connector-curvature="0"
       id="path4068-5"
       d="m 171.01493,171.89922 37.64558,23.26256"
       style="fill:#000000;fill-opacity:1;stroke:#000000;stroke-width:6.55029058;stroke-linecap:butt;stroke-linejoin:miter;stroke-miterlimit:4;stroke-opacity:1;stroke-dasharray:none;marker-end:url(#TriangleOutM-8)" />
    <g
       id="text5884"
       style="font-size:25px;font-style:normal;font-variant:normal;font-weight:bold;font-stretch:normal;text-align:start;line-height:125%;letter-spacing:0px;word-spacing:0px;writing-mode:lr-tb;text-anchor:start;fill:#000000;fill-opacity:1;stroke:none;font-family:Comfortaa;-inkscape-font-specification:'Comfortaa, Bold'">
      <path
         id="path5889"
         d="m 21.049971,304.09296 0.57373,0 0,-4.58985 q 0,-0.5249 0.366211,-0.89111 0.378418,-0.37842 0.915527,-0.37842 0.524903,0 0.891114,0.37842 0.378418,0.36621 0.378418,0.89111 l 0,4.58985 1.525879,0 q 0.524902,0 0.891113,0.37841 0.366211,0.36622 0.366211,0.89112 0,0.53711 -0.366211,0.91553 -0.366211,0.36621 -0.891113,0.36621 l -1.525879,0 0,6.14013 q 0,2.4292 2.441406,2.4292 0.524902,0 0.891113,0.37842 0.366211,0.36621 0.366211,0.89111 0,0.53711 -0.366211,0.91553 -0.366211,0.36621 -0.891113,0.36621 -4.992676,0 -4.992676,-4.98047 l 0,-6.14013 -0.57373,0 q -0.512696,0 -0.891114,-0.36621 -0.366211,-0.37842 -0.366211,-0.91553 0,-0.5249 0.366211,-0.89112 0.378418,-0.37841 0.891114,-0.37841 z"
         inkscape:connector-curvature="0" />
      <path
         id="path5891"
         d="m 32.158369,316.48309 q 0,0.53711 -0.378418,0.91553 -0.366211,0.36621 -0.90332,0.36621 -0.524903,0 -0.903321,-0.36621 -0.36621,-0.37842 -0.36621,-0.91553 l 0,-16.96777 q 0,-0.53711 0.36621,-0.90332 0.378418,-0.37842 0.903321,-0.37842 0.524902,0 0.891113,0.37842 0.378418,0.36621 0.390625,0.90332 l 0,5.85937 q 1.623535,-1.25732 3.820801,-1.25732 1.281738,0 2.429199,0.50049 1.159668,0.50049 2.038574,1.36719 0.878907,0.85449 1.391602,2.02636 0.512695,1.15967 0.512695,2.47803 l 0,5.99365 q -0.01221,0.53711 -0.390625,0.91553 -0.366211,0.36621 -0.891113,0.36621 -0.524902,0 -0.90332,-0.36621 -0.366211,-0.37842 -0.366211,-0.91553 l 0,-5.99365 q 0,-0.78125 -0.305176,-1.47705 -0.305176,-0.6958 -0.830078,-1.2085 -0.512696,-0.5249 -1.208496,-0.83007 -0.695801,-0.30518 -1.477051,-0.30518 -0.793457,0 -1.489258,0.30518 -0.683594,0.29296 -1.208496,0.81787 -0.524902,0.5249 -0.830078,1.2207 -0.292969,0.6958 -0.292969,1.47705 l 0,5.99365 z"
         inkscape:connector-curvature="0" />
      <path
         id="path5893"
         d="m 51.103682,306.64423 q -0.903321,0 -1.684571,0.34179 -0.78125,0.3418 -1.35498,0.92774 -0.573731,0.57373 -0.915528,1.35498 -0.329589,0.78125 -0.329589,1.66015 0,0.87891 0.329589,1.66016 0.341797,0.78125 0.915528,1.36719 0.57373,0.57373 1.35498,0.91553 0.78125,0.34179 1.684571,0.34179 0.891113,0 1.672363,-0.34179 0.78125,-0.3418 1.35498,-0.92774 0.585938,-0.58594 0.915528,-1.35498 0.341797,-0.78125 0.341797,-1.66016 0,-0.8789 -0.341797,-1.64795 -0.32959,-0.78125 -0.915528,-1.36718 -0.57373,-0.58594 -1.35498,-0.92774 -0.78125,-0.34179 -1.672363,-0.34179 z m 4.284668,9.85107 0,-0.24414 q -0.915528,0.73242 -1.989747,1.12305 -1.074218,0.39062 -2.294921,0.39062 -2.832032,0 -4.833985,-2.00195 -2.001953,-2.00195 -2.001953,-4.83399 0,-2.83203 2.001953,-4.83398 2.001953,-2.00195 4.833985,-2.00195 2.807617,0 4.833984,2.00195 2.001953,2.00195 2.001953,4.83398 l 0,5.56641 q 0,0.5249 -0.378418,0.90332 -0.366211,0.36621 -0.891113,0.36621 -0.53711,0 -0.915528,-0.36621 -0.36621,-0.37842 -0.36621,-0.90332 z"
         inkscape:connector-curvature="0" />
      <path
         id="path5895"
         d="m 62.431807,305.35028 q 1.623535,-1.25732 3.8208,-1.25732 1.281739,0 2.4292,0.50048 1.159668,0.50049 2.038574,1.36719 0.878906,0.85449 1.391601,2.02637 0.512696,1.15967 0.512696,2.47803 l 0,6.01806 q 0,0.53711 -0.378418,0.91553 -0.366211,0.36621 -0.891114,0.36621 -0.537109,0 -0.915527,-0.36621 -0.366211,-0.37842 -0.366211,-0.91553 l 0,-6.01806 q 0,-0.78125 -0.305176,-1.47705 -0.305175,-0.6958 -0.830078,-1.2085 -0.512695,-0.5249 -1.208496,-0.83008 -0.695801,-0.30517 -1.477051,-0.30517 -0.793457,0 -1.489257,0.30517 -0.683594,0.29297 -1.208497,0.81787 -0.524902,0.52491 -0.830078,1.22071 -0.292968,0.6958 -0.292968,1.47705 l 0,6.01806 q 0,0.53711 -0.378418,0.91553 -0.366211,0.36621 -0.891114,0.36621 -0.537109,0 -0.915527,-0.36621 -0.366211,-0.37842 -0.366211,-0.91553 l 0,-11.1084 q 0,-0.5249 0.366211,-0.90332 0.378418,-0.37841 0.915527,-0.37841 0.524903,0 0.891114,0.37841 0.378418,0.37842 0.378418,0.87891 z"
         inkscape:connector-curvature="0" />
      <path
         id="path5897"
         d="m 74.516768,316.48309 0,-16.96777 q 0,-0.53711 0.36621,-0.90332 0.378418,-0.37842 0.915528,-0.37842 0.524902,0 0.891113,0.37842 0.378418,0.36621 0.378418,0.90332 l 0,9.52148 7.299805,-4.74853 q 0.305176,-0.19531 0.683593,-0.19531 0.268555,0 0.500489,0.0976 0.231933,0.0977 0.402832,0.28076 0.170898,0.1709 0.268554,0.40284 0.109864,0.23193 0.109864,0.48828 0,0.68359 -0.488281,1.01318 l -5.114747,3.32031 5.249024,5.90821 q 0.354004,0.39062 0.354004,0.89111 0,0.25635 -0.109864,0.48828 -0.09766,0.23194 -0.268554,0.41504 -0.170899,0.1709 -0.402832,0.26856 -0.231934,0.0977 -0.500489,0.0977 -0.512695,0 -0.854492,-0.32959 l -5.639648,-6.33545 -1.489258,0.97656 0,4.40674 q 0,0.52491 -0.378418,0.90332 -0.366211,0.37842 -0.891113,0.37842 -0.53711,0 -0.915528,-0.37842 -0.36621,-0.37841 -0.36621,-0.90332 z"
         inkscape:connector-curvature="0" />
      <path
         id="path5899"
         d="m 90.703291,311.25848 q -1.147461,-0.43945 -1.611328,-0.90332 l 0.01221,0 q -0.927735,-0.93994 -0.927735,-2.20947 0,-0.92773 0.488282,-1.67236 0.500488,-0.75684 1.293945,-1.28174 0.793457,-0.5249 1.782227,-0.80566 1.000976,-0.29297 2.001953,-0.29297 3.051758,0 5.236816,2.45361 0.256348,0.31738 0.256348,0.76904 0,0.54932 -0.366211,0.91553 -0.354004,0.354 -0.90332,0.354 -0.390625,0 -0.671387,-0.21972 -0.268555,-0.21973 -0.524903,-0.47608 -1.245117,-1.24511 -3.027343,-1.24511 -1.757813,0 -2.807617,1.07421 -0.195313,0.19532 -0.195313,0.53711 0,0.3418 0.317383,0.46387 l 5.71289,1.87988 q 1.19629,0.46387 1.611329,0.90332 l -0.01221,0 q 0.927734,0.93995 0.927734,2.20948 0,0.93994 -0.500488,1.68457 -0.488282,0.74463 -1.281739,1.28174 -0.793457,0.5249 -1.782226,0.80566 -0.98877,0.28076 -1.989746,0.28076 -3.076172,0 -5.236817,-2.4292 -0.268554,-0.354 -0.268554,-0.79345 0,-0.54932 0.354004,-0.90333 0.36621,-0.36621 0.915527,-0.36621 0.402832,0 0.683594,0.24414 0.280761,0.23194 0.512695,0.45166 1.245117,1.24512 3.039551,1.24512 1.745605,0 2.807617,-1.09863 0.183105,-0.20752 0.183105,-0.50049 0,-0.3418 -0.329589,-0.47607 l -5.700684,-1.87989 z"
         inkscape:connector-curvature="0" />
      <path
         id="path5901"
         d="m 111.07683,300.04022 -7.53174,18.82324 q -0.45166,0.75684 -1.17188,0.75684 -0.54931,0 -0.91552,-0.36621 -0.35401,-0.36621 -0.35401,-0.91553 0,-0.24414 0.10986,-0.5249 l 7.53174,-18.82324 q 0.0977,-0.20752 0.28076,-0.39063 0.36622,-0.36621 0.89112,-0.36621 0.5249,0 0.89111,0.37842 0.37842,0.36621 0.37842,0.89111 0,0.29297 -0.10986,0.53711 z"
         inkscape:connector-curvature="0" />
      <path
         id="path5903"
         d="m 119.7072,306.64423 q -0.90332,0 -1.68457,0.34179 -0.78125,0.3418 -1.35498,0.92774 -0.57373,0.57373 -0.91553,1.35498 -0.32959,0.78125 -0.32959,1.66015 0,0.87891 0.32959,1.66016 0.3418,0.78125 0.91553,1.36719 0.57373,0.57373 1.35498,0.91553 0.78125,0.34179 1.68457,0.34179 0.89111,0 1.67236,-0.34179 0.78125,-0.3418 1.35498,-0.92774 0.58594,-0.58594 0.91553,-1.35498 0.3418,-0.78125 0.3418,-1.66016 0,-0.8789 -0.3418,-1.64795 -0.32959,-0.78125 -0.91553,-1.36718 -0.57373,-0.58594 -1.35498,-0.92774 -0.78125,-0.34179 -1.67236,-0.34179 z m 4.28467,9.61914 q -1.83106,1.50146 -4.28467,1.50146 -2.83203,0 -4.83399,-2.00195 -2.00195,-2.00195 -2.00195,-4.83399 0,-2.83203 2.00195,-4.83398 2.00196,-2.00195 4.83399,-2.00195 2.80761,0 4.83398,2.00195 2.00195,2.00195 2.00195,4.83398 l 0,6.78711 q 0,0.87891 -0.26855,1.66016 -0.26855,0.78125 -0.74463,1.42822 -0.47607,0.65918 -1.12305,1.18408 -0.64697,0.52491 -1.4038,0.87891 -0.74463,0.36621 -1.5625,0.56152 -0.81788,0.19532 -1.63575,0.19532 -0.97656,0 -1.9165,-0.25635 -0.93994,-0.24414 -1.78223,-0.73242 -0.84228,-0.48828 -1.55029,-1.2085 -0.6958,-0.72021 -1.18408,-1.61133 -0.19531,-0.28076 -0.19531,-0.68359 0,-0.54932 0.36621,-0.91553 0.36621,-0.354 0.91552,-0.354 0.36621,0 0.59815,0.1709 0.24414,0.17089 0.65918,0.75683 0.41504,0.58594 0.73242,0.89112 1.3916,1.3916 3.35693,1.3916 1.97754,0 3.34473,-1.36719 0.84229,-1.02539 0.84229,-1.98975 l 0,-1.45263 z"
         inkscape:connector-curvature="0" />
      <path
         id="path5905"
         d="m 142.16813,310.92889 q 0,2.85645 -2.00195,4.83399 -2.02637,2.00195 -4.83398,2.00195 -2.83203,0 -4.83399,-2.00195 -2.00195,-2.00195 -2.00195,-4.83399 0,-2.83203 2.00195,-4.83398 2.00196,-2.00195 4.83399,-2.00195 2.80761,0 4.83398,2.00195 1.00098,1.00098 1.48926,2.20947 0.50049,1.2085 0.51269,2.62451 z m -6.83593,-4.28466 q -0.90332,0 -1.68457,0.34179 -0.78125,0.3418 -1.35498,0.92774 -0.57373,0.57373 -0.91553,1.35498 -0.32959,0.78125 -0.32959,1.66015 0,0.87891 0.32959,1.66016 0.3418,0.78125 0.91553,1.36719 0.57373,0.57373 1.35498,0.91553 0.78125,0.34179 1.68457,0.34179 0.89111,0 1.67236,-0.34179 0.78125,-0.3418 1.35498,-0.92774 0.58594,-0.58594 0.91553,-1.35498 0.3418,-0.78125 0.3418,-1.66016 0,-0.8789 -0.3418,-1.64795 -0.32959,-0.78125 -0.91553,-1.36718 -0.57373,-0.58594 -1.35498,-0.92774 -0.78125,-0.34179 -1.67236,-0.34179 z"
         inkscape:connector-curvature="0" />
      <path
         id="path5907"
         d="m 157.79313,310.92889 q 0,2.85645 -2.00195,4.83399 -2.02637,2.00195 -4.83398,2.00195 -2.83203,0 -4.83399,-2.00195 -2.00195,-2.00195 -2.00195,-4.83399 0,-2.83203 2.00195,-4.83398 2.00196,-2.00195 4.83399,-2.00195 2.80761,0 4.83398,2.00195 1.00098,1.00098 1.48926,2.20947 0.50049,1.2085 0.51269,2.62451 z m -6.83593,-4.28466 q -0.90332,0 -1.68457,0.34179 -0.78125,0.3418 -1.35498,0.92774 -0.57373,0.57373 -0.91553,1.35498 -0.32959,0.78125 -0.32959,1.66015 0,0.87891 0.32959,1.66016 0.3418,0.78125 0.91553,1.36719 0.57373,0.57373 1.35498,0.91553 0.78125,0.34179 1.68457,0.34179 0.89111,0 1.67236,-0.34179 0.78125,-0.3418 1.35498,-0.92774 0.58594,-0.58594 0.91553,-1.35498 0.3418,-0.78125 0.3418,-1.66016 0,-0.8789 -0.3418,-1.64795 -0.32959,-0.78125 -0.91553,-1.36718 -0.57373,-0.58594 -1.35498,-0.92774 -0.78125,-0.34179 -1.67236,-0.34179 z"
         inkscape:connector-curvature="0" />
      <path
         id="path5909"
         d="m 170.86687,310.92889 q 0,-0.8789 -0.3418,-1.64795 -0.32959,-0.78125 -0.91553,-1.36718 -0.57373,-0.58594 -1.35498,-0.92774 -0.78125,-0.34179 -1.67236,-0.34179 -0.90332,0 -1.68457,0.34179 -0.78125,0.3418 -1.35498,0.92774 -0.57373,0.57373 -0.91553,1.35498 -0.32959,0.78125 -0.32959,1.66015 0,0.87891 0.32959,1.66016 0.3418,0.78125 0.91553,1.36719 0.57373,0.57373 1.35498,0.91553 0.78125,0.34179 1.68457,0.34179 0.89111,0 1.67236,-0.34179 0.78125,-0.3418 1.35498,-0.92774 0.58594,-0.58594 0.91553,-1.35498 0.3418,-0.78125 0.3418,-1.66016 z m -4.28467,-6.83593 q 2.4292,0 4.28467,1.50146 l 0,-6.09131 q 0,-0.54931 0.354,-0.90332 0.36621,-0.36621 0.91553,-0.36621 0.53711,0 0.90332,0.36621 0.37841,0.35401 0.37841,0.90332 l 0,11.42578 q 0,2.85645 -2.00195,4.83399 -2.02637,2.00195 -4.83398,2.00195 -2.83203,0 -4.83399,-2.00195 -2.00195,-2.00195 -2.00195,-4.83399 0,-2.83203 2.00195,-4.83398 2.00196,-2.00195 4.83399,-2.00195 z"
         inkscape:connector-curvature="0" />
      <path
         id="path5911"
         d="m 185.29558,300.04022 -7.53174,18.82324 q -0.45166,0.75684 -1.17188,0.75684 -0.54931,0 -0.91552,-0.36621 -0.35401,-0.36621 -0.35401,-0.91553 0,-0.24414 0.10986,-0.5249 l 7.53174,-18.82324 q 0.0977,-0.20752 0.28076,-0.39063 0.36622,-0.36621 0.89112,-0.36621 0.5249,0 0.89111,0.37842 0.37842,0.36621 0.37842,0.89111 0,0.29297 -0.10986,0.53711 z"
         inkscape:connector-curvature="0" />
      <path
         id="path5913"
         d="m 195.83024,304.09296 q 0.90332,0 1.22071,0.93994 l 2.47802,7.43408 2.56348,-7.66602 q 0.0977,-0.31738 0.39063,-0.51269 0.29296,-0.19531 0.75683,-0.19531 0.26856,0 0.50049,0.0976 0.23193,0.0977 0.40283,0.28076 0.1709,0.1709 0.26856,0.40284 0.10986,0.23193 0.10986,0.48828 0,0.23193 -0.0977,0.48828 l -3.69873,11.09619 q -0.10986,0.354 -0.40283,0.58594 -0.29297,0.23193 -0.79346,0.23193 -0.42724,0 -0.75683,-0.24414 -0.32959,-0.24414 -0.42725,-0.57373 l -2.51465,-7.54394 -2.51464,7.54394 q -0.10987,0.354 -0.43946,0.58594 -0.32959,0.23193 -0.75683,0.23193 -0.42725,0 -0.75684,-0.23193 -0.31738,-0.23194 -0.43945,-0.58594 l -3.69873,-11.09619 q -0.0855,-0.26856 -0.0855,-0.48828 0,-0.25635 0.0977,-0.48828 0.0977,-0.23194 0.26856,-0.40284 0.1709,-0.1831 0.40283,-0.28076 0.23193,-0.0976 0.50049,-0.0976 0.43945,0 0.73242,0.20752 0.30518,0.20752 0.41504,0.50048 l 2.56348,7.65381 2.47802,-7.42187 q 0.31739,-0.93994 1.23291,-0.93994 z"
         inkscape:connector-curvature="0" />
      <path
         id="path5915"
         d="m 217.57097,309.65936 q -0.20752,-0.67138 -0.62256,-1.2207 -0.40283,-0.56152 -0.95215,-0.95215 -0.53711,-0.40283 -1.19629,-0.62256 -0.64697,-0.21972 -1.34277,-0.21972 -0.6958,0 -1.35498,0.21972 -0.65918,0.21973 -1.2085,0.62256 -0.54932,0.39063 -0.95215,0.95215 -0.40283,0.54932 -0.59814,1.2207 l 8.22754,0 z m -0.54932,4.26026 q 0.54932,0 0.90332,0.36621 0.36621,0.354 0.36621,0.90332 0,0.53711 -0.36621,0.91553 -1.89209,1.66015 -4.46777,1.66015 -2.83203,0 -4.83399,-2.00195 -2.00195,-2.00195 -2.00195,-4.83399 0,-2.83203 2.00195,-4.83398 2.00196,-2.00195 4.83399,-2.00195 2.80761,0 4.83398,2.00195 1.00098,0.98877 1.50147,2.20947 0.50048,1.2085 0.50048,2.62451 0,0.54932 -0.37841,0.91553 -0.36621,0.35401 -0.90332,0.35401 l -9.66797,0 q 0.20752,0.67138 0.61035,1.23291 0.40283,0.54931 0.93994,0.95214 0.54932,0.39063 1.19629,0.61036 0.65918,0.21972 1.36719,0.21972 0.80566,0 1.47705,-0.24414 0.67138,-0.24414 1.24512,-0.73242 0.36621,-0.30518 0.84228,-0.31738 z"
         inkscape:connector-curvature="0" />
      <path
         id="path5917"
         d="m 222.12419,316.4953 0,-16.97998 q 0,-0.53711 0.354,-0.90332 0.36621,-0.37842 0.91553,-0.37842 0.54932,0 0.90332,0.37842 0.36621,0.36621 0.36621,0.90332 l 0,15.69824 0.58594,0 q 0.5249,0 0.89111,0.37842 0.37842,0.36621 0.37842,0.90332 0,0.5249 -0.37842,0.90332 -0.36621,0.36621 -0.89111,0.36621 l -1.86768,0 q -0.5249,0 -0.89111,-0.36621 -0.36621,-0.37842 -0.36621,-0.90332 z"
         inkscape:connector-curvature="0" />
      <path
         id="path5919"
         d="m 238.50603,313.8952 q 0.54931,0 0.90332,0.36621 0.36621,0.35401 0.36621,0.90332 0,0.53711 -0.40284,0.93995 -1.89209,1.66015 -4.45556,1.66015 -2.83203,0 -4.83399,-2.00195 -2.00195,-2.00195 -2.00195,-4.83399 0,-2.83203 2.00195,-4.83398 2.00196,-2.00195 4.83399,-2.00195 2.57568,0 4.45556,1.66015 0.43946,0.39063 0.43946,0.96436 0,0.54931 -0.36621,0.91553 -0.35401,0.36621 -0.90332,0.36621 -0.46387,0 -0.83008,-0.29297 -0.62256,-0.5249 -1.30615,-0.79346 -0.6836,-0.26855 -1.48926,-0.26855 -0.89112,0 -1.67237,0.34179 -0.78125,0.32959 -1.36718,0.91553 -0.58594,0.57373 -0.92774,1.35498 -0.32959,0.78125 -0.32959,1.67236 0,0.89112 0.32959,1.67237 0.3418,0.78125 0.92774,1.36718 0.58593,0.57374 1.36718,0.91553 0.78125,0.32959 1.67237,0.32959 0.80566,0 1.48926,-0.25635 0.68359,-0.26855 1.29394,-0.79345 0.3418,-0.25635 0.80567,-0.26856 z"
         inkscape:connector-curvature="0" />
      <path
         id="path5921"
         d="m 255.44938,310.92889 q 0,2.85645 -2.00195,4.83399 -2.02637,2.00195 -4.83398,2.00195 -2.83203,0 -4.83399,-2.00195 -2.00195,-2.00195 -2.00195,-4.83399 0,-2.83203 2.00195,-4.83398 2.00196,-2.00195 4.83399,-2.00195 2.80761,0 4.83398,2.00195 1.00098,1.00098 1.48926,2.20947 0.50049,1.2085 0.51269,2.62451 z m -6.83593,-4.28466 q -0.90332,0 -1.68457,0.34179 -0.78125,0.3418 -1.35498,0.92774 -0.57373,0.57373 -0.91553,1.35498 -0.32959,0.78125 -0.32959,1.66015 0,0.87891 0.32959,1.66016 0.3418,0.78125 0.91553,1.36719 0.57373,0.57373 1.35498,0.91553 0.78125,0.34179 1.68457,0.34179 0.89111,0 1.67236,-0.34179 0.78125,-0.3418 1.35498,-0.92774 0.58594,-0.58594 0.91553,-1.35498 0.3418,-0.78125 0.3418,-1.66016 0,-0.8789 -0.3418,-1.64795 -0.32959,-0.78125 -0.91553,-1.36718 -0.57373,-0.58594 -1.35498,-0.92774 -0.78125,-0.34179 -1.67236,-0.34179 z"
         inkscape:connector-curvature="0" />
      <path
         id="path5923"
         d="m 276.70183,316.48309 q 0,0.53711 -0.37842,0.91553 -0.36621,0.36621 -0.89112,0.36621 -0.5371,0 -0.90332,-0.36621 -0.36621,-0.37842 -0.36621,-0.91553 l 0,-6.9458 q 0,-0.58594 -0.23193,-1.11084 -0.21973,-0.5249 -0.61035,-0.91552 -0.39063,-0.40284 -0.92774,-0.63477 -0.5249,-0.23193 -1.13525,-0.23193 -0.59814,0 -1.12305,0.23193 -0.5249,0.23193 -0.92773,0.62256 -0.39063,0.39062 -0.62256,0.91553 -0.21973,0.5249 -0.21973,1.12304 l 0,6.9458 q 0,0.53711 -0.37841,0.91553 -0.36622,0.36621 -0.89112,0.36621 -0.53711,0 -0.91552,-0.36621 -0.36622,-0.37842 -0.36622,-0.91553 l 0,-6.9458 q 0,-0.59814 -0.23193,-1.12304 -0.23193,-0.52491 -0.62256,-0.91553 -0.39062,-0.39063 -0.91553,-0.62256 -0.5249,-0.23193 -1.12304,-0.23193 -0.59815,0 -1.12305,0.23193 -0.5249,0.21973 -0.92773,0.62256 -0.39063,0.39062 -0.62256,0.91553 -0.21973,0.5249 -0.21973,1.12304 l 0,6.9458 q 0,0.53711 -0.37842,0.91553 -0.36621,0.36621 -0.89111,0.36621 -0.53711,0 -0.91553,-0.36621 -0.36621,-0.37842 -0.36621,-0.91553 l 0,-11.1206 q 0,-0.5249 0.36621,-0.89112 0.37842,-0.37841 0.90332,-0.37841 0.42725,0 0.75684,0.24414 0.32959,0.23193 0.45166,0.62256 1.30615,-0.8667 2.96631,-0.8667 1.2207,0 2.29492,0.48828 1.07422,0.47607 1.87988,1.45263 1.69678,-1.94091 4.1626,-1.94091 1.11084,0 2.09961,0.43945 1.00098,0.42725 1.7334,1.17187 0.74463,0.73243 1.17187,1.7334 0.43946,0.98877 0.43946,2.09961 l 0,6.9458 z"
         inkscape:connector-curvature="0" />
      <path
         id="path5925"
         d="m 289.83659,309.65936 q -0.20752,-0.67138 -0.62256,-1.2207 -0.40283,-0.56152 -0.95215,-0.95215 -0.5371,-0.40283 -1.19628,-0.62256 -0.64698,-0.21972 -1.34278,-0.21972 -0.6958,0 -1.35498,0.21972 -0.65918,0.21973 -1.20849,0.62256 -0.54932,0.39063 -0.95215,0.95215 -0.40283,0.54932 -0.59815,1.2207 l 8.22754,0 z m -0.54931,4.26026 q 0.54931,0 0.90332,0.36621 0.36621,0.354 0.36621,0.90332 0,0.53711 -0.36621,0.91553 -1.89209,1.66015 -4.46778,1.66015 -2.83203,0 -4.83398,-2.00195 -2.00196,-2.00195 -2.00196,-4.83399 0,-2.83203 2.00196,-4.83398 2.00195,-2.00195 4.83398,-2.00195 2.80762,0 4.83399,2.00195 1.00097,0.98877 1.50146,2.20947 0.50049,1.2085 0.50049,2.62451 0,0.54932 -0.37842,0.91553 -0.36621,0.35401 -0.90332,0.35401 l -9.66797,0 q 0.20752,0.67138 0.61035,1.23291 0.40284,0.54931 0.93995,0.95214 0.54931,0.39063 1.19628,0.61036 0.65918,0.21972 1.36719,0.21972 0.80567,0 1.47705,-0.24414 0.67139,-0.24414 1.24512,-0.73242 0.36621,-0.30518 0.84229,-0.31738 z"
         inkscape:connector-curvature="0" />
    </g>
  </g>
</svg>
