<?xml version="1.0" encoding="UTF-8" standalone="no"?>
<!-- Created with Inkscape (http://www.inkscape.org/) -->

<svg
   xmlns:dc="http://purl.org/dc/elements/1.1/"
   xmlns:cc="http://creativecommons.org/ns#"
   xmlns:rdf="http://www.w3.org/1999/02/22-rdf-syntax-ns#"
   xmlns:svg="http://www.w3.org/2000/svg"
   xmlns="http://www.w3.org/2000/svg"
   xmlns:sodipodi="http://sodipodi.sourceforge.net/DTD/sodipodi-0.dtd"
   xmlns:inkscape="http://www.inkscape.org/namespaces/inkscape"
   id="svg2"
   version="1.1"
   inkscape:version="0.48+devel r12701"
   width="366.25"
   height="375"
   viewBox="0 0 366.25 375"
   sodipodi:docname="ASL_hello.svg">

  <metadata
     id="metadata8">
    <rdf:RDF>
      <cc:Work
         rdf:about="">
        <dc:format>image/svg+xml</dc:format>
        <dc:type
           rdf:resource="http://purl.org/dc/dcmitype/StillImage" />
        <dc:title>ASL word</dc:title>
        <dc:date>11/03/2013</dc:date>
        <dc:creator>
          <cc:Agent>
            <dc:title>Paul Sherman</dc:title>
          </cc:Agent>
        </dc:creator>
        <dc:rights>
          <cc:Agent>
            <dc:title>PD</dc:title>
          </cc:Agent>
        </dc:rights>
        <dc:publisher>
          <cc:Agent>
            <dc:title>WPClipart</dc:title>
          </cc:Agent>
        </dc:publisher>
        <dc:subject>
          <rdf:Bag>
            <rdf:li>ASL</rdf:li>
            <rdf:li>sign</rdf:li>
            <rdf:li>language</rdf:li>
            <rdf:li>bathroom</rdf:li>
          </rdf:Bag>
        </dc:subject>
        <cc:license
           rdf:resource="http://creativecommons.org/publicdomain/zero/1.0/" />
      </cc:Work>
      <cc:License
         rdf:about="http://creativecommons.org/publicdomain/zero/1.0/">
        <cc:permits
           rdf:resource="http://creativecommons.org/ns#Reproduction" />
        <cc:permits
           rdf:resource="http://creativecommons.org/ns#Distribution" />
        <cc:permits
           rdf:resource="http://creativecommons.org/ns#DerivativeWorks" />
      </cc:License>
    </rdf:RDF>
  </metadata>
  <defs
     id="defs6">
    <marker
       inkscape:stockid="TriangleOutM"
       orient="auto"
       refY="0"
       refX="0"
       id="TriangleOutM-8"
       style="overflow:visible"
       inkscape:isstock="true">
      <path
         inkscape:connector-curvature="0"
         id="path4219-5"
         d="m 5.77,0 -8.65,5 0,-10 8.65,5 z"
         style="fill:#000000;fill-opacity:1;fill-rule:evenodd;stroke:#000000;stroke-width:1pt;stroke-opacity:1"
         transform="scale(0.4,0.4)" />
    </marker>
  </defs>
  <sodipodi:namedview
     pagecolor="#ffffff"
     bordercolor="#666666"
     borderopacity="1"
     objecttolerance="10"
     gridtolerance="10"
     guidetolerance="10"
     inkscape:pageopacity="0"
     inkscape:pageshadow="2"
     inkscape:window-width="1458"
     inkscape:window-height="988"
     id="namedview4"
     showgrid="false"
     inkscape:zoom="4.0924347"
     inkscape:cx="276.96778"
     inkscape:cy="265.92437"
     inkscape:window-x="0"
     inkscape:window-y="0"
     inkscape:window-maximized="0"
     inkscape:current-layer="svg2" />
  <rect
     style="fill:#ffffff;fill-opacity:1;stroke:none"
     id="rect5990"
     width="380.80444"
     height="385.98041"
     x="-7.3942609"
     y="-5.8044281" />
  <path
     style="fill:#000000"
     d="m 58.75,254.41214 c 0,-1.3278 4.57298,-9.79137 11.071022,-20.48999 3.458472,-5.69415 7.193611,-13.07915 8.300308,-16.4111 1.990376,-5.99246 2.104621,-6.08618 10.544526,-8.64973 13.368644,-4.0606 27.896264,-15.94853 35.461454,-29.01806 1.74089,-3.00755 6.34249,-13.06201 10.22576,-22.34326 3.88329,-9.28125 9.5954,-21.27829 12.69361,-26.66008 6.24828,-10.85375 9.20332,-18.27267 9.20332,-23.10594 l 0,-3.20171 -3.46664,3.32126 c -1.90665,1.82668 -5.64472,7.4163 -8.30682,12.42136 -6.49675,12.21463 -10.36262,17.22511 -13.29015,17.22511 -3.68239,0 -2.99469,-3.22084 2.56845,-12.02945 C 142.83731,111.08947 153.8488,87.5 151.47935,87.5 c -0.50035,0 -2.9265,1.662384 -5.39143,3.694186 -2.9127,2.400895 -7.05305,8.636845 -11.82657,17.812504 -4.03969,7.76507 -9.41969,16.3836 -11.95558,19.15228 l -4.6107,5.03398 3.80633,8.63959 c 4.03654,9.1621 4.1373,9.81761 3.74815,24.38273 L 125,175.55555 l -2.73113,-2.73113 c -2.26714,-2.26713 -2.86419,-4.7034 -3.51432,-14.34027 -0.43076,-6.38504 -1.46464,-12.86189 -2.29752,-14.393 C 112.74397,137.26526 105,137.98324 105,145.15337 c 0,2.09848 2.07856,7.53223 4.61903,12.075 4.07293,7.28309 4.62712,9.30219 4.6875,17.07812 0.0667,8.59133 -0.012,8.81851 -3.05653,8.81851 -2.94872,0 -3.16026,-0.45834 -3.75,-8.125 -0.48113,-6.25466 -1.61965,-9.85146 -4.94589,-15.625 -3.61738,-6.27888 -4.320103,-8.72113 -4.31603,-15 0.0051,-7.83684 2.18377,-13.31919 10.51151,-26.45067 3.99597,-6.30099 9.24133,-19.100076 8.2386,-20.10281 -1.20917,-1.209166 -7.22667,6.66629 -14.77212,19.33316 -4.466261,7.4977 -12.162999,17.84813 -18.203798,24.48016 -12.072211,13.25372 -20.601692,25.54883 -22.7545,32.80026 -1.240308,4.17779 -1.172248,5.84989 0.390327,9.58965 1.71527,4.10522 1.697445,4.88476 -0.190263,8.32096 C 58.188375,198.29714 31.353037,225 28.641555,225 27.3262,225 26.25,224.67829 26.25,224.28509 c 0,-2.51654 7.452173,-12.5501 14.06859,-18.94188 14.504772,-14.01229 13.814487,-12.79682 14.672694,-25.83579 0.967297,-14.6964 3.055121,-18.39745 24.073726,-42.67507 8.31264,-9.60154 18.601843,-22.84442 22.86489,-29.42863 9.2686,-14.31517 13.39002,-18.452405 18.95869,-16.978085 7.45654,1.974137 4.74981,-0.753756 8.35514,-3.372821 6.14535,-4.46424 8.14106,1.530922 13.09975,0.84703 4.97452,-0.686076 8.18993,-6.798601 13.53312,-2.933201 2.17353,1.572389 -4.59344,16.861237 -1.70292,14.526655 2.29852,-1.856444 6.45113,-3.827624 6.75552,-0.99957 0.90693,8.426032 0.55942,14.684572 -8.06683,35.448652 -2.71168,6.52722 -9.67053,19.40137 -12.87543,27.30762 -7.75823,19.13897 -9.63881,22.59685 -16.86172,31.00389 -8.94659,10.4133 -17.54399,17.27508 -27.662073,22.07773 -9.610087,4.56153 -8.695261,3.40993 -28.831175,36.29338 -1.96465,3.20842 -7.881932,6.05158 -7.881932,3.78714 z m 66.85643,-143.26829 c 5.96636,-11.745889 10.50267,-21.701418 10.08068,-22.123401 -1.84174,-1.841745 -8.66959,7.873105 -16.72866,23.802011 -7.64224,15.10503 -8.4504,17.3437 -6.64217,18.39949 1.1323,0.66111 2.14501,1.21914 2.25046,1.24004 0.10547,0.0209 5.07332,-9.57226 11.03969,-21.31814 z m 175.20708,127.03221 c -11.70781,-4.13149 -21.20442,-9.99489 -29.55241,-18.24627 -8.49949,-8.40113 -13.50299,-16.92663 -15.45471,-26.33342 l -1.45831,-7.02861 -13.11154,5.42246 c -12.87893,5.32628 -13.36657,5.42229 -27.48654,5.41169 -7.90625,-0.006 -16.79551,-0.47872 -19.75391,-1.05065 -6.576,-1.27129 -8.19449,0.0256 -10.74338,8.60865 -2.41713,8.13935 -3.86226,10.65114 -9.89087,17.19141 -5.65201,6.13172 -11.40029,9.6392 -14.09966,8.60335 -3.25052,-1.24733 -1.8062,-4.35427 3.82535,-8.22888 7.37902,-5.07692 10.78985,-9.95508 14.87605,-21.27579 l 3.38391,-9.375 -7.61968,-6.74403 C 165.52159,177.8678 160,168.74504 160,162.4499 c 0,-6.4187 3.9305,-4.22812 6.81595,3.79871 2.82677,7.86363 10.17031,15.9032 18.37754,20.11943 11.60095,5.95965 32.21941,7.86006 44.89214,4.13774 16.96861,-4.98414 28.59268,-14.48824 34.9982,-28.61532 4.386,-9.67311 7.53581,-31.65265 11.91212,-42.24266 2.68223,-6.49061 1.84197,-6.21052 1.84197,-6.21052 0.1929,-9.17683 1.28604,-7.14273 4.25902,-10.0738 7.17943,-7.078257 6.30196,-8.107894 5.14852,-12.703546 -1.26468,-5.038918 -10.23068,-13.974208 -17.67877,-17.618214 -6.07461,-2.972035 -7.0546,-3.11751 -11.11356,-1.649769 -6.99764,2.530377 -8.13214,0.335327 -4.42698,-8.565323 C 256.675,58.865732 258.23274,52.25 258.4878,48.125 c 0.416,-6.727559 0.0599,-8.104219 -3.45787,-13.36664 C 251.01837,28.757232 241.25076,21.25 237.45426,21.25 c -3.45495,0 -8.70426,4.910194 -8.70426,8.141954 0,3.606165 0.59546,3.998785 9.63594,6.35353 3.94126,1.026571 8.22436,2.824345 9.51797,3.995054 8.68533,7.860112 7.31025,21.736336 -2.8725,28.987096 -8.80807,6.2719 -11.40895,0.861446 -3.31431,-6.894578 6.558,-6.283672 7.30228,-9.938372 3.19779,-15.702594 -3.74821,-5.263878 -6.71426,-4.611472 -11.90923,2.619538 -2.68962,3.743764 -5.44565,6.25 -6.87292,6.25 -3.19702,0 -3.00053,-2.414146 0.7272,-8.934907 3.8991,-6.820515 3.88843,-7.315093 -0.15765,-7.315093 -2.10994,0 -5.25147,1.800907 -8.72208,5 -8.84419,8.152291 -10.93167,5.443319 -4.05877,-5.267164 3.39925,-5.297269 3.73178,-6.527281 2.4972,-9.236886 -1.84659,-4.052839 -9.29978,-7.187176 -14.68718,-6.176495 -2.26292,0.424526 -7.19655,3.282569 -10.96362,6.351205 -7.30659,5.951908 -9.57405,6.530467 -14.51784,3.70434 -5.32874,-3.046184 -9.36073,-2.308136 -13.56791,2.483587 -7.30652,8.321659 -8.2803,21.461709 -2.26422,30.552639 2.27935,3.44432 4.42284,5.107895 7.33848,5.695443 9.072,1.828152 9.02732,1.789137 5.88265,5.136491 -6.2573,6.66058 -15.64793,1.411076 -21.73348,-12.149343 -4.20078,-9.360577 -3.88133,-17.277857 1.09323,-27.094673 5.7818,-11.409833 17.74512,-16.988355 24.09956,-11.237672 2.14841,1.944297 2.50069,1.923917 5.41234,-0.313115 l 3.11435,-2.392767 -5.3125,-0.0278 c -7.25553,-0.03797 -13.66252,-2.336711 -11.50918,-4.064286 3.53293,-2.83439 36.36863,-4.322239 45.78233,-0.913938 l 6.46065,2.339125 4.78935,-3.812824 c 3.89826,-3.103426 5.62852,-3.701046 9.29971,-3.212052 7.26523,0.967712 13.75471,4.676589 21.30783,12.177875 8.38215,8.324629 10.10696,13.166605 8.98612,25.22632 -0.91539,9.849224 -0.53092,10.525082 9.06924,15.943075 12.71966,7.178541 19.51075,18.824808 19.51075,26.470163 0,4.464496 -3.05955,9.412622 -7.94858,13.442582 -2.93432,2.41871 -3.28063,6.36977 -3.28063,8.49365 0,5.60951 -7.78823,35.33695 -11.69859,45.21003 -2.07977,5.25113 -5.45916,12.49004 -7.50975,16.08649 l -3.72834,6.53901 1.92048,7.49634 c 2.43408,9.50119 6.04042,15.14695 15.26338,23.89505 9.65099,9.15406 15.20949,12.65239 27.63709,17.39383 10.77534,4.11106 13.05053,5.81631 10.18329,7.63238 -2.59619,1.64439 -4.68331,1.3552 -14.03414,-1.94455 z M 81.809974,193.31094 c -2.052954,-8.17962 6.77806,-28.18703 13.553097,-30.70568 6.660319,-2.476 7.905359,2.50944 2.02245,8.09838 -4.284478,4.07037 -7.897507,10.45244 -9.154967,16.17136 -0.453497,2.0625 -1.885845,5.14244 -3.182999,6.84431 l -2.358461,3.09433 z m 91.843876,-61.96479 c -6.60155,-6.60154 -3.12683,-11.78034 3.9236,-5.8478 4.85347,4.08392 9.31269,4.12111 15.19106,0.12665 C 198.08217,122.01427 200,121.70456 200,124.45718 200,130.60404 192.94041,135 183.069,135 c -4.7011,0 -6.4337,-0.67239 -9.41515,-3.65385 z m 46.70276,-3.72663 c -3.63224,-1.69449 -5.52541,-3.48183 -6.09599,-5.75518 -1.31708,-5.24772 0.88301,-5.82613 6.86902,-1.80588 6.51961,4.37862 6.92997,4.41639 12.94683,1.19154 6.16307,-3.3032 8.70817,-3.24512 8.19797,0.18709 -1.02899,6.9222 -13.05859,10.31542 -21.91783,6.18243 z m 29.78164,-6.23128 c -5.38938,-5.38936 -4.54534,-17.44444 1.74474,-24.919774 3.06349,-3.640752 10.08654,-7.41561 11.38353,-6.118606 0.3775,0.3775 -1.89053,3.850102 -5.04007,7.716894 -5.94206,7.295236 -6.67152,10.099136 -4.35572,16.742266 0.99592,2.8569 2.44855,4.21136 5.31249,4.95348 5.54483,1.43681 4.89917,3.29294 -1.30219,3.74352 -3.92629,0.28529 -5.87187,-0.24686 -7.74278,-2.11778 z M 195.86441,94.124269 c -1.47982,-0.38343 -2.12741,-1.520591 -1.875,-3.292499 0.31586,-2.217336 1.44524,-2.828623 6.24588,-3.380661 10.3654,-1.191948 14.55803,-7.367819 11.6062,-17.096254 -0.99794,-3.28892 -1.82051,-6.40173 -1.82796,-6.917355 -0.0326,-2.260729 3.78476,-0.615996 6.75036,2.908406 4.08421,4.853819 4.22007,11.219202 0.38401,17.99213 -4.82169,8.51314 -12.52561,12.055439 -21.28349,9.786233 z m -6.73772,-13.839564 c -8.99315,-7.067088 -6.37173,-26.546748 3.83001,-28.460605 8.7216,-1.63618 12.91671,2.605889 4.68619,4.738631 -8.1155,2.102936 -9.24085,13.625998 -1.67854,17.187269 4.56574,2.150112 4.9855,3.752931 1.74973,6.681265 -2.89205,2.617272 -5.11867,2.579271 -8.58739,-0.14656 z m 90.49809,-9.845029 c 3.97813,-10.67864 3.42717,-17.75792 1.04122,-20.394376 -1.26691,-1.399915 -2.74218,-2.5453 -3.27836,-2.5453 -0.53619,0 -2.55839,-0.606194 -4.49377,-1.347097 l -7.16,1.173684 2.3908,-5.763945 c 2.0143,-4.856213 11.15149,-2.174146 15.9181,2.084822 3.57425,3.193591 4.08223,4.421612 4.08223,9.868765 0,4.363715 -0.15083,10.928167 -1.82107,12.773754 -2.58052,2.851449 -7.64517,6.742803 -6.67915,4.149693 z"
     id="path4064"
     inkscape:connector-curvature="0"
     sodipodi:nodetypes="sssssssscsssssssscsscssssssssssssssssssssssssssssssssssssssccsssscsssssssscsssssssssssssssssssssssssssssssssssssssscssscsssssssssscsssssssssscssssssssssssssssssssssssscssssssssssssscssssss" />
  <path
     style="fill:#000000;fill-opacity:1;stroke:#000000;stroke-width:6.45160294;stroke-linecap:butt;stroke-linejoin:miter;stroke-miterlimit:4;stroke-opacity:1;stroke-dasharray:none;marker-end:url(#TriangleOutM-8)"
     d="M 91.325406,93.095029 44.797381,78.361643"
     id="path4068-5"
     inkscape:connector-curvature="0" />
  <g
     style="font-size:60px;font-style:normal;font-variant:normal;font-weight:normal;font-stretch:normal;text-align:start;line-height:125%;letter-spacing:0px;word-spacing:0px;writing-mode:lr-tb;text-anchor:start;fill:#000000;fill-opacity:1;stroke:none;font-family:Veranda;-inkscape-font-specification:'Veranda, Normal'"
     id="text5975">
    <path
       d="m 165.28696,325.61829 0,19.80468 -5.39063,0 0,-19.6289 q 0,-4.65821 -1.8164,-6.97266 -1.81641,-2.31445 -5.44922,-2.31445 -4.36524,0 -6.88477,2.7832 -2.51953,2.7832 -2.51953,7.58789 l 0,18.54492 -5.41992,0 0,-45.58593 5.41992,0 0,17.87109 q 1.93359,-2.95898 4.54102,-4.42383 2.63671,-1.46484 6.06445,-1.46484 5.6543,0 8.55469,3.51562 2.90039,3.48633 2.90039,10.28321 z"
       style=""
       id="path5980" />
    <path
       d="m 204.16391,327.66907 0,2.63672 -24.78516,0 q 0.35157,5.5664 3.33985,8.49609 3.01758,2.90039 8.3789,2.90039 3.10547,0 6.00586,-0.76172 2.92969,-0.76172 5.80078,-2.28515 l 0,5.09765 q -2.90039,1.23047 -5.94726,1.875 -3.04688,0.64453 -6.18164,0.64453 -7.85156,0 -12.45117,-4.57031 -4.57032,-4.57031 -4.57032,-12.36328 0,-8.05664 4.33594,-12.77344 4.36524,-4.74609 11.74805,-4.74609 6.62109,0 10.45898,4.27734 3.86719,4.24805 3.86719,11.57227 z m -5.39063,-1.58203 q -0.0586,-4.42383 -2.49023,-7.06055 -2.40234,-2.63672 -6.38672,-2.63672 -4.51172,0 -7.23633,2.54883 -2.69531,2.54883 -3.10547,7.17773 l 19.21875,-0.0293 z"
       style=""
       id="path5982" />
    <path
       d="m 213.01157,299.83704 5.39062,0 0,45.58593 -5.39062,0 0,-45.58593 z"
       style=""
       id="path5984" />
    <path
       d="m 229.65219,299.83704 5.39063,0 0,45.58593 -5.39063,0 0,-45.58593 z"
       style=""
       id="path5986" />
    <path
       d="m 259.00766,316.38977 q -4.33594,0 -6.85547,3.39844 -2.51953,3.36914 -2.51953,9.25781 0,5.88867 2.49023,9.28711 2.51954,3.36914 6.88477,3.36914 4.30664,0 6.82617,-3.39844 2.51953,-3.39843 2.51953,-9.25781 0,-5.83008 -2.51953,-9.22852 -2.51953,-3.42773 -6.82617,-3.42773 z m 0,-4.57031 q 7.03125,0 11.04492,4.57031 4.01367,4.57031 4.01367,12.65625 0,8.05664 -4.01367,12.65625 -4.01367,4.57031 -11.04492,4.57031 -7.06055,0 -11.07422,-4.57031 -3.98437,-4.59961 -3.98437,-12.65625 0,-8.08594 3.98437,-12.65625 4.01367,-4.57031 11.07422,-4.57031 z"
       style=""
       id="path5988" />
  </g>
</svg>
