<?xml version="1.0" encoding="UTF-8" standalone="no"?>
<!-- Created with Inkscape (http://www.inkscape.org/) -->

<svg
   xmlns:dc="http://purl.org/dc/elements/1.1/"
   xmlns:cc="http://creativecommons.org/ns#"
   xmlns:rdf="http://www.w3.org/1999/02/22-rdf-syntax-ns#"
   xmlns:svg="http://www.w3.org/2000/svg"
   xmlns="http://www.w3.org/2000/svg"
   xmlns:sodipodi="http://sodipodi.sourceforge.net/DTD/sodipodi-0.dtd"
   xmlns:inkscape="http://www.inkscape.org/namespaces/inkscape"
   id="svg2"
   version="1.1"
   inkscape:version="0.48+devel r12701"
   width="321.25"
   height="416.25"
   viewBox="0 0 321.25 416.25"
   sodipodi:docname="ASL_what.svg">

  <metadata
     id="metadata8">
    <rdf:RDF>
      <cc:Work
         rdf:about="">
        <dc:format>image/svg+xml</dc:format>
        <dc:type
           rdf:resource="http://purl.org/dc/dcmitype/StillImage" />
        <dc:title>ASL word</dc:title>
        <dc:date>11/03/2013</dc:date>
        <dc:creator>
          <cc:Agent>
            <dc:title>Paul Sherman</dc:title>
          </cc:Agent>
        </dc:creator>
        <dc:rights>
          <cc:Agent>
            <dc:title>PD</dc:title>
          </cc:Agent>
        </dc:rights>
        <dc:publisher>
          <cc:Agent>
            <dc:title>WPClipart</dc:title>
          </cc:Agent>
        </dc:publisher>
        <dc:subject>
          <rdf:Bag>
            <rdf:li>ASL</rdf:li>
            <rdf:li>sign</rdf:li>
            <rdf:li>language</rdf:li>
            <rdf:li>bathroom</rdf:li>
          </rdf:Bag>
        </dc:subject>
        <cc:license
           rdf:resource="http://creativecommons.org/publicdomain/zero/1.0/" />
      </cc:Work>
      <cc:License
         rdf:about="http://creativecommons.org/publicdomain/zero/1.0/">
        <cc:permits
           rdf:resource="http://creativecommons.org/ns#Reproduction" />
        <cc:permits
           rdf:resource="http://creativecommons.org/ns#Distribution" />
        <cc:permits
           rdf:resource="http://creativecommons.org/ns#DerivativeWorks" />
      </cc:License>
    </rdf:RDF>
  </metadata>
  <defs
     id="defs6" />
  <sodipodi:namedview
     pagecolor="#ffffff"
     bordercolor="#666666"
     borderopacity="1"
     objecttolerance="10"
     gridtolerance="10"
     guidetolerance="10"
     inkscape:pageopacity="0"
     inkscape:pageshadow="2"
     inkscape:window-width="1224"
     inkscape:window-height="975"
     id="namedview4"
     showgrid="false"
     inkscape:zoom="1.0610557"
     inkscape:cx="-0.3063098"
     inkscape:cy="208.125"
     inkscape:window-x="0"
     inkscape:window-y="0"
     inkscape:window-maximized="0"
     inkscape:current-layer="svg2" />
  <rect
     style="fill:#ffffff;fill-opacity:1;stroke:none"
     id="rect4064"
     width="335.51489"
     height="429.76065"
     x="-7.5396609"
     y="-8.7983742" />
  <path
     style="fill:#000000"
     d="m 227.5,328.23724 c 0,-0.28203 1.68307,-4.07164 3.74018,-8.42137 4.32626,-9.14787 4.20463,-9.93668 -3.20094,-20.76062 -11.40783,-16.67364 -10.17508,-26.06404 4.2523,-32.39142 3.8959,-1.70862 10.17721,-5.51605 13.95846,-8.46098 15.40839,-12.00039 47.93824,-29.75796 52.38362,-28.59546 7.03289,1.83913 3.496,12.79527 -6.66364,20.64186 -3.82826,2.95666 -6.96259,6.24931 -6.96522,7.317 -0.002,1.06769 1.63185,4.1667 3.63217,6.8867 6.83732,9.29731 5.97411,18.00259 -2.16724,21.85597 -6.63876,3.14222 -11.46969,8.435 -11.46969,12.56627 0,2.11733 1.89843,6.52251 4.49853,10.43853 5.11287,7.70055 4.78011,10.87302 -0.729,6.95018 C 274.45499,313.19167 270,304.4115 270,298.98035 270,296.79115 269.78874,295 269.53054,295 c -0.2582,0 -3.49258,1.32137 -7.1875,2.93639 -10.96856,4.79425 -13.98367,4.97475 -17.71738,1.06063 -3.99236,-4.18525 -5.8814,-9.02868 -5.85652,-15.01589 0.0252,-6.06984 0.90807,-7.2102 6.85586,-8.85561 2.75,-0.76076 8.09375,-3.15441 11.875,-5.31921 3.78125,-2.1648 9.38652,-4.27245 12.45618,-4.68365 4.32578,-0.57949 5.91541,-1.45057 7.06718,-3.87266 0.8173,-1.71875 2.14238,-4.53125 2.9446,-6.25 0.80222,-1.71875 3.94154,-4.9645 6.97628,-7.21276 4.78755,-3.54685 10.30475,-10.95493 9.07475,-12.18492 -1.34163,-1.34162 -34.20235,16.40473 -42.4268,22.91249 -5.24305,4.14866 -12.93686,9.26139 -17.09735,11.3616 -13.71904,6.92534 -14.88491,12.68944 -5.21595,25.78773 3.45339,4.67821 6.62667,9.89153 7.05175,11.58517 1.11331,4.43575 -1.7117,15.32184 -4.84033,18.65212 -2.30805,2.45681 -5.99031,3.89263 -5.99031,2.33581 z m 25.5048,-32.73908 c 1.75494,-0.67344 1.76236,-1.03194 0.0713,-3.4375 -1.03841,-1.47711 -2.45826,-4.79504 -3.15523,-7.37316 -0.91181,-3.37291 -1.94811,-4.6875 -3.69518,-4.6875 -5.00303,0 -4.10684,11.93421 1.12578,14.99161 2.43343,1.42184 3.11015,1.48248 5.65338,0.50655 z M 263.5,291 c 3.76569,-3.76569 0.49701,-16 -4.27475,-16 -2.60734,0 -4.55833,4.96321 -3.79648,9.65798 1.13071,6.96767 4.66696,9.7463 8.07123,6.34202 z m 12.5,-3.75 c 0.825,-0.825 1.5,-4.11282 1.5,-7.30626 0,-6.37859 -3.01059,-10.50674 -7.0945,-9.72804 -3.1234,0.59556 -3.48083,4.90706 -1.0208,12.31349 2.07571,6.24938 3.83281,7.5033 6.6153,4.72081 z m 11.94596,-8.62372 c 1.40374,-2.00412 1.53902,-3.48063 0.5728,-6.2523 -1.57504,-4.51814 -3.10531,-5.52322 -5.44851,-3.57854 -3.32748,2.76156 -1.6862,12.45456 2.10887,12.45456 0.51102,0 1.75609,-1.18067 2.76684,-2.62372 z M 85.458771,324.0625 c 0.744329,-3.892 1.638345,-10.4706 2.695789,-19.8369 0.628648,-5.56826 0.146007,-7.63071 -3.716039,-15.87971 C 80.028555,278.92659 79.033438,275 81.056265,275 c 1.451935,0 4.495346,3.62795 6.815898,8.125 2.319498,4.49501 2.572212,3.89279 4.458608,-10.625 0.765653,-5.8925 1.061274,-17.0278 0.663701,-25 -0.741816,-14.87506 0.337207,-23.81889 2.97989,-24.69979 2.274291,-0.7581 2.057246,39.03443 -0.282261,51.7492 -0.994344,5.40408 -2.345015,17.98184 -3.001492,27.95059 -1.202525,18.26062 -2.851129,25 -6.115571,25 -1.260958,0 -1.583638,-0.99369 -1.116267,-3.4375 z m -43.764266,-7.5 c 0.44624,-5.32813 1.702511,-14.93942 2.791715,-21.35844 1.089203,-6.41901 1.66254,-12.93726 1.274083,-14.485 -0.388458,-1.54773 -5.161702,-6.83709 -10.607207,-11.75408 -5.445506,-4.91702 -11.46815,-11.6143 -13.383655,-14.88287 -3.100763,-5.29105 -3.491603,-7.20025 -3.563588,-17.40769 -0.0694,-9.84145 0.296886,-11.96642 2.586843,-15.00713 3.248497,-4.3135 6.279119,-4.03675 10.235402,0.9347 3.238472,4.06943 7.677176,4.76416 10.757616,1.68372 2.931531,-2.93152 2.424982,-5.52072 -2.410714,-12.32223 C 36.96875,208.57904 35,204.30864 35,202.47371 35,199.115 38.321375,195 41.032325,195 c 2.539625,0 11.481925,8.94164 17.437572,17.43627 3.157644,4.5038 9.496067,13.25123 14.085384,19.43873 12.680984,17.09701 14.995329,25.7174 10.020364,37.32353 -2.69186,6.27986 -3.678934,6.73548 -21.238629,9.80362 l -9.287983,1.62285 -1.518665,6.875 c -0.835267,3.78125 -2.219585,13.0625 -3.076264,20.625 -1.597123,14.09891 -2.748084,18.125 -5.181504,18.125 -0.969525,0 -1.144236,-2.92775 -0.578095,-9.6875 z m 17.763031,-51.2352 c -1.288697,-15.88249 -2.677061,-16.1401 -4.395633,-0.8156 -1.126295,10.04315 -0.632919,11.67303 3.547496,11.71916 1.415149,0.0156 1.571265,-1.9914 0.848137,-10.90356 z m 18.184998,3.6169 c 2.340672,-2.94522 2.55133,-4.36551 1.869684,-12.60568 -0.858137,-10.37369 -1.746567,-12.12907 -12.072615,-23.85323 -3.942975,-4.47684 -9.30321,-11.78934 -11.911633,-16.25 C 50.180326,207.09029 44.896759,201.25 41.971154,201.25 c -3.3247,0 -2.2582,5.22926 2.403846,11.78652 4.623069,6.50245 5.463413,10.69649 2.69742,13.46249 -3.047865,3.04786 -4.349108,6.60564 -3.685554,10.07679 0.525705,2.75005 1.335879,3.4242 4.115093,3.4242 2.194628,0 4.152785,1.02884 5.35295,2.8125 1.040838,1.54687 3.918032,4.99257 6.393762,7.65711 4.418989,4.756 4.501329,5.03471 4.501329,15.23663 l 0,10.39201 5.627326,-1.91741 c 3.095029,-1.05459 6.814373,-3.41108 8.265208,-5.23664 z M 50.685741,264.6875 C 50.149879,245.6979 49.963856,243.75 48.686216,243.75 c -4.437231,0 -6.983875,24.02377 -2.97193,28.03571 4.09138,4.09139 5.240895,2.45012 4.971455,-7.09821 z M 39.59347,248.37824 C 39.036631,239.23815 38.271329,235.29292 36.72335,233.58242 35.562399,232.29959 34.137211,231.25 33.556265,231.25 32.97532,231.25 32.5,237.93139 32.5,246.09754 c 0,14.0054 0.159522,14.95449 2.8125,16.73318 2.514954,1.68615 2.930342,1.68069 3.926386,-0.0517 0.612637,-1.06555 0.7722,-7.5459 0.354584,-14.40075 z m -10.862611,-5.63722 c 0.02288,-9.4256 -2.167123,-18.99102 -4.348003,-18.99102 -1.99591,0 -3.132856,5.66601 -3.132856,15.61267 0,6.07627 0.590892,8.55138 2.673607,11.19913 3.541174,4.50186 4.782237,2.48282 4.807252,-7.82078 z M 258.35116,224.35757 c -0.71886,-7.69815 -1.87535,-15.00681 -4.81625,-30.43728 -1.55035,-8.13449 -8.4629,-21.78023 -13.9127,-27.46444 -5.54315,-5.78157 -8.98335,-7.3433 -25.48435,-11.56891 -15.44556,-3.95534 -16.8726,-4.53429 -25.2206,-10.23191 l -5.45772,-3.72498 -12.39958,1.40997 c -6.81976,0.77549 -16.09509,1.40998 -20.61182,1.40998 -7.06334,0 -8.76213,0.4637 -12.14269,3.31442 -4.68073,3.94712 -10.82504,6.68558 -15.00047,6.68558 -4.7101,0 -24.273758,5.96774 -33.637251,10.26077 -10.243819,4.69665 -16.64349,11.27847 -22.742803,23.39009 -2.518958,5.00199 -5.264677,8.84914 -6.315641,8.84914 -2.576724,0 -2.383669,-1.0982 1.853003,-10.54095 5.918954,-13.19224 10.233954,-18.5548 18.380828,-22.84322 8.331853,-4.38579 22.858004,-9.47197 32.906884,-11.52197 14.75849,-3.01079 22.5,-7.00096 22.5,-11.59708 0,-0.52083 -3.23438,-4.53643 -7.1875,-8.92356 C 118.25323,118.82723 116.25,112.45994 116.25,90.098602 l 0,-17.927774 -4.82286,0.646881 c -2.65257,0.355785 -7.01195,1.683273 -9.6875,2.949977 C 95.606444,78.671362 83.75,90.034109 83.75,93.008246 c 0,3.059563 7.903519,10.741754 11.051229,10.741754 3.416555,0 4.36922,1.84495 1.977587,3.82983 -6.177084,5.12652 -6.650916,14.55828 -0.920022,18.31331 2.686766,1.76044 3.95057,1.84203 8.730106,0.56371 5.44564,-1.45649 7.9111,-1.14651 7.9111,0.99464 0,1.57808 -7.25334,3.79851 -12.4084,3.79851 -8.74711,0 -14.649226,-8.13585 -13.150821,-18.12793 0.690462,-4.60433 0.307999,-5.68623 -3.710484,-10.49604 -5.025931,-6.015649 -5.725156,-10.757919 -2.412945,-16.365045 2.423339,-4.102384 16.631153,-13.82979 24.70136,-16.91183 5.412,-2.066864 5.80532,-2.055831 10.32483,0.289585 l 4.6985,2.438303 0.10947,16.773978 c 0.093,14.243409 0.53039,17.840449 2.8995,23.843079 3.4023,8.62045 8.98131,15.86206 16.42682,21.32212 5.47083,4.01198 5.89786,4.1074 18.125,4.05029 6.88719,-0.0321 15.16035,-0.79897 18.3848,-1.704 7.19185,-2.01857 18.7486,-11.1478 24.22787,-19.13873 6.82168,-9.94872 8.35311,-26.571574 3.52795,-38.294072 -2.00622,-4.873977 -1.17552,-7.301301 1.68646,-4.927906 3.79726,3.14901 5.32057,9.450944 5.29263,21.895549 -0.0214,9.545869 -0.57996,13.445579 -2.54663,17.780829 -3.27598,7.2214 -10.04975,15.42191 -15.54326,18.8171 -3.71957,2.29881 -4.17304,3.06074 -3.05973,5.14098 2.8925,5.40468 11.07729,9.6218 25.25314,13.01139 17.86706,4.27219 22.35401,6.11509 26.78662,11.00191 11.10599,12.24402 15.54588,22.77515 18.53988,43.97544 0.97092,6.875 2.13839,14.88524 2.59436,17.80054 0.78173,4.99807 -0.66439,9.07446 -3.21922,9.07446 -0.50391,0 -1.25835,-3.6641 -1.67654,-8.14242 z M 216.5625,123.47438 C 213.05186,121.78127 212.92348,120 216.31207,120 c 3.53994,0 9.47394,-3.23788 10.41145,-5.681 1.79375,-4.67445 0.81234,-8.90137 -2.40733,-10.36836 -1.7511,-0.79785 -4.0011,-1.45064 -5,-1.45064 -0.9989,0 -1.81619,-1.125 -1.81619,-2.5 0,-1.412181 0.83334,-2.5 1.91515,-2.5 3.55772,0 10.37471,3.52171 11.73424,6.062 3.36152,6.28108 -0.11838,16.32074 -6.74739,19.46641 -4.74488,2.25159 -4.16411,2.21855 -7.8395,0.44597 z m -2.13578,-32.140688 c -0.39644,-0.641468 0.95897,-2.158576 3.01203,-3.371351 5.48406,-3.239511 5.65585,-5.219243 0.65965,-7.601766 -4.71411,-2.248005 -5.37624,-3.448685 -2.50863,-4.549093 2.68108,-1.028825 9.26537,1.582204 10.68662,4.23782 1.79535,3.354638 1.56057,4.358423 -2.0125,8.604792 -3.16102,3.75664 -8.30545,5.157963 -9.83717,2.679598 z m -72.986,-4.702261 c -4.05083,-1.995898 -6.2178,-4.771022 -4.81827,-6.170542 0.3747,-0.37471 3.15259,0.766988 6.17307,2.537108 l 5.49178,3.2184 4.87065,-2.483198 c 5.7853,-2.949513 5.59205,-2.921799 5.59205,-0.801934 0,5.391402 -9.67791,7.46023 -17.30928,3.700166 z m 31.14072,-0.299997 C 171.16165,84.911645 170,82.865424 170,81.784275 c 0,-1.643278 0.5257,-1.552213 3.20477,0.555155 3.3518,2.636523 5.8261,2.40217 9.68404,-0.917225 1.97158,-1.696351 2.41285,-1.712165 3.41836,-0.1225 1.59417,2.520322 1.5058,2.903475 -1.0357,4.490669 -4.8658,3.038737 -9.97455,3.256557 -12.69003,0.541061 z m 34.85272,-17.722795 c -1.49444,-1.006772 -1.26554,-1.589745 1.31584,-3.351215 6.34001,-4.326274 8.75,-7.575611 8.75,-11.797473 0,-7.850258 -6.12433,-12.371601 -13.14315,-9.703051 -4.87045,1.851743 -6.40983,0.07169 -2.28806,-2.645804 9.07331,-5.982065 21.68121,0.997035 21.68121,12.001627 0,2.843829 -4.30765,13.137277 -5.49775,13.137277 -0.24581,0 -2.37339,0.804921 -4.72794,1.788715 -2.89741,1.210617 -4.8657,1.394811 -6.09015,0.569924 z M 115,56.434854 c 0,-2.287278 5.89573,-9.642717 9.88271,-12.329539 6.1327,-4.132829 12.22914,-5.446902 21.09824,-4.547678 6.80132,0.689577 8.22769,0.458087 10.625,-1.724362 5.19362,-4.728134 9.93848,-6.028625 20.12145,-5.514984 5.31322,0.268004 12.0226,7.801803 12.0226,13.499878 0,5.652813 -1.74041,4.977852 -5.29161,-2.052181 -3.65942,-7.244229 -8.34004,-8.855588 -16.5812,-5.708262 -6.83063,2.608639 -8.56349,5.444013 -7.54683,12.348354 l 0.76849,5.21892 -4.11192,-4.496853 C 150.4992,45.126705 147.57149,43.75 140.29649,43.75 c -6.49299,0 -13.98876,3.910732 -20.23051,10.554764 C 117.03263,57.533617 115,58.388276 115,56.434854 Z m -12.21934,-3.949956 c -1.68198,-2.693274 -1.06549,-7.104855 1.78333,-12.76155 C 107.1355,34.617289 114.69976,30 120.49323,30 c 3.4102,0 6.84818,-1.241865 11.24006,-4.060126 5.52346,-3.544395 7.3898,-4.060429 14.69285,-4.0625 7.1343,-0.002 8.84097,0.44368 11.59477,3.028019 1.776,1.666716 3.22909,4.404045 3.22909,6.082952 0,2.977002 -0.12769,2.937203 -5.15856,-1.607895 -4.94319,-4.465869 -5.42597,-4.625395 -11.5625,-3.820724 -7.40995,0.97165 -11.56927,3.313777 -13.53103,7.619368 -1.29606,2.844542 -1.83629,2.99421 -8.13535,2.25388 -6.42626,-0.755281 -6.95194,-0.594449 -11.05483,3.382226 -4.51357,4.374724 -5.53738,9.051536 -3.01375,13.766976 C 109.89856,54.646095 109.66812,55 107.21966,55 c -1.57756,0 -3.57511,-1.131796 -4.439,-2.515102 z M 186.01721,27.35166 c -3.74886,-4.021154 -7.38231,-4.504051 -12.76569,-1.696603 -4.51887,2.35661 -5.28335,1.700199 -2.66818,-2.291036 2.15003,-3.281371 5.26025,-4.568954 11.10416,-4.596952 4.42047,-0.02117 12.47634,7.450022 11.31007,10.489245 -1.07881,2.811341 -3.09711,2.260629 -6.98036,-1.904654 z"
     id="path4064"
     inkscape:connector-curvature="0" />
  <g
     style="font-size:50px;font-style:normal;font-variant:normal;font-weight:normal;font-stretch:normal;text-align:start;line-height:125%;letter-spacing:0px;word-spacing:0px;writing-mode:lr-tb;text-anchor:start;fill:#000000;fill-opacity:1;stroke:none;font-family:Comfortaa;-inkscape-font-specification:Comfortaa"
     id="text4066">
    <path
       d="m 111.46737,366.84879 q 0.56152,-0.56153 1.36719,-0.56153 0.80566,0 1.3916,0.56153 0.36621,0.39062 0.51269,0.90332 l 5.90821,17.74902 6.03027,-18.09082 q 0.14648,-0.29297 0.41504,-0.56152 0.56152,-0.56153 1.36719,-0.56153 0.80566,0 1.36718,0.58594 0.58594,0.56152 0.58594,1.36719 0,0.39062 -0.14648,0.75683 l -7.78809,23.38867 q -0.14648,0.36622 -0.43945,0.70801 -0.58594,0.53711 -1.3916,0.53711 -0.80567,0 -1.36719,-0.53711 -0.31738,-0.34179 -0.46387,-0.70801 l -5.98144,-17.96875 -5.98145,17.96875 q -0.14648,0.36622 -0.43945,0.70801 -0.58594,0.53711 -1.3916,0.53711 -0.80567,0 -1.36719,-0.53711 -0.31738,-0.34179 -0.46387,-0.70801 l -7.788084,-23.38867 q -0.146484,-0.36621 -0.146484,-0.75683 0,-0.80567 0.561523,-1.36719 0.585938,-0.58594 1.391602,-0.58594 0.805664,0 1.391601,0.56153 0.244141,0.26855 0.390625,0.56152 l 6.030277,18.09082 5.9082,-17.74902 q 0.1709,-0.5127 0.53711,-0.90332 z"
       style=""
       id="path4071" />
    <path
       d="m 134.31893,356.52164 q 0,-0.80567 0.56153,-1.36719 0.58593,-0.58594 1.3916,-0.58594 0.80566,0 1.36718,0.58594 0.58594,0.56152 0.58594,1.36719 l 0,13.30566 q 3.66211,-3.54004 8.78906,-3.54004 5.24903,0 8.95997,3.73535 3.73535,3.71094 3.73535,8.95996 l 0,12.69532 q 0,0.80566 -0.58594,1.3916 -0.56152,0.56152 -1.36719,0.56152 -0.80566,0 -1.3916,-0.56152 -0.56152,-0.58594 -0.56152,-1.3916 l 0,-12.69532 q 0,-3.63769 -2.58789,-6.20117 -2.56348,-2.58789 -6.20118,-2.58789 -3.63769,0 -6.22558,2.58789 -2.56348,2.56348 -2.56348,6.20117 l 0,12.69532 q 0,0.80566 -0.58594,1.3916 -0.56152,0.56152 -1.36718,0.56152 -0.80567,0 -1.3916,-0.56152 -0.56153,-0.58594 -0.56153,-1.3916 l 0,-35.15625 z"
       style=""
       id="path4073" />
    <path
       d="m 177.28768,370.19351 q -4.05273,0 -6.90918,2.85645 -2.85644,2.85644 -2.85644,6.90918 0,4.05273 2.85644,6.90918 2.85645,2.85644 6.90918,2.85644 4.05274,0 6.90918,-2.85644 2.85645,-2.85645 2.85645,-6.90918 0,-4.05274 -2.85645,-6.90918 -2.85644,-2.85645 -6.90918,-2.85645 z m 9.76563,19.33594 q -4.10157,4.10156 -9.76563,4.10156 -5.66406,0 -9.66797,-4.0039 -4.0039,-4.00391 -4.0039,-9.66797 0,-5.66407 4.0039,-9.66797 4.00391,-4.00391 9.66797,-4.00391 5.66406,0 9.66797,4.00391 4.00391,4.0039 4.00391,9.66797 l 0,11.71875 q 0,0.80566 -0.58594,1.3916 -0.56152,0.56152 -1.36719,0.56152 -0.80566,0 -1.3916,-0.56152 -0.56152,-0.58594 -0.56152,-1.3916 l 0,-2.14844 z"
       style=""
       id="path4075" />
    <path
       d="m 208.53768,389.72476 q 0.80567,0 1.36719,0.58594 0.58594,0.56152 0.58594,1.36719 0,0.80566 -0.58594,1.3916 -0.56152,0.56152 -1.36719,0.56152 -9.76562,0 -9.76562,-9.76562 l 0,-13.67188 -1.95313,0 q -0.80566,0 -1.3916,-0.56152 -0.56152,-0.58594 -0.56152,-1.3916 0,-0.80567 0.56152,-1.36719 0.58594,-0.58594 1.3916,-0.58594 l 1.95313,0 0,-9.76562 q 0,-0.80567 0.56152,-1.36719 0.58594,-0.58594 1.3916,-0.58594 0.80567,0 1.36719,0.58594 0.58594,0.56152 0.58594,1.36719 l 0,9.76562 3.93066,0 q 0.80566,0 1.36719,0.58594 0.58594,0.56152 0.58594,1.36719 0,0.80566 -0.58594,1.3916 -0.56153,0.56152 -1.36719,0.56152 l -3.93066,0 0,13.67188 q 0,5.85937 5.85937,5.85937 z"
       style=""
       id="path4077" />
  </g>
</svg>
