<?xml version="1.0" encoding="UTF-8" standalone="no"?>
<!-- Created with Inkscape (http://www.inkscape.org/) -->

<svg
   xmlns:dc="http://purl.org/dc/elements/1.1/"
   xmlns:cc="http://creativecommons.org/ns#"
   xmlns:rdf="http://www.w3.org/1999/02/22-rdf-syntax-ns#"
   xmlns:svg="http://www.w3.org/2000/svg"
   xmlns="http://www.w3.org/2000/svg"
   xmlns:sodipodi="http://sodipodi.sourceforge.net/DTD/sodipodi-0.dtd"
   xmlns:inkscape="http://www.inkscape.org/namespaces/inkscape"
   id="svg2"
   version="1.1"
   inkscape:version="0.48+devel r12701"
   width="327.5"
   height="365"
   viewBox="0 0 327.5 365"
   sodipodi:docname="ASL_internet.svg">

  <metadata
     id="metadata8">
    <rdf:RDF>
      <cc:Work
         rdf:about="">
        <dc:format>image/svg+xml</dc:format>
        <dc:type
           rdf:resource="http://purl.org/dc/dcmitype/StillImage" />
        <dc:title>ASL word</dc:title>
        <dc:date>11/03/2013</dc:date>
        <dc:creator>
          <cc:Agent>
            <dc:title>Paul Sherman</dc:title>
          </cc:Agent>
        </dc:creator>
        <dc:rights>
          <cc:Agent>
            <dc:title>PD</dc:title>
          </cc:Agent>
        </dc:rights>
        <dc:publisher>
          <cc:Agent>
            <dc:title>WPClipart</dc:title>
          </cc:Agent>
        </dc:publisher>
        <dc:subject>
          <rdf:Bag>
            <rdf:li>ASL</rdf:li>
            <rdf:li>sign</rdf:li>
            <rdf:li>language</rdf:li>
            <rdf:li>bathroom</rdf:li>
          </rdf:Bag>
        </dc:subject>
        <cc:license
           rdf:resource="http://creativecommons.org/publicdomain/zero/1.0/" />
      </cc:Work>
      <cc:License
         rdf:about="http://creativecommons.org/publicdomain/zero/1.0/">
        <cc:permits
           rdf:resource="http://creativecommons.org/ns#Reproduction" />
        <cc:permits
           rdf:resource="http://creativecommons.org/ns#Distribution" />
        <cc:permits
           rdf:resource="http://creativecommons.org/ns#DerivativeWorks" />
      </cc:License>
    </rdf:RDF>
  </metadata>
  <defs
     id="defs6" />
  <sodipodi:namedview
     pagecolor="#ffffff"
     bordercolor="#666666"
     borderopacity="1"
     objecttolerance="10"
     gridtolerance="10"
     guidetolerance="10"
     inkscape:pageopacity="0"
     inkscape:pageshadow="2"
     inkscape:window-width="1074"
     inkscape:window-height="989"
     id="namedview4"
     showgrid="false"
     inkscape:zoom="0.64657534"
     inkscape:cx="-103.04026"
     inkscape:cy="182.5"
     inkscape:window-x="333"
     inkscape:window-y="-3"
     inkscape:window-maximized="0"
     inkscape:current-layer="svg2" />
  <rect
     style="fill:#ffffff;fill-opacity:1;stroke:none"
     id="rect4068"
     width="344.89407"
     height="380.46609"
     x="-6.1864405"
     y="-9.2796612" />
  <path
     style="fill:#000000"
     d="m 288.14117,238.4375 c -1.31876,-3.88524 -7.24645,-24.67549 -8.64265,-30.3125 -0.85141,-3.4375 -2.21188,-7.47865 -3.02327,-8.98033 C 275.66386,197.643 275,195.27514 275,193.88276 c 0,-4.89131 -7.06811,-9.71786 -18.51536,-12.64344 -3.83284,-0.97956 -7.51076,-3.44601 -12.72872,-8.536 -6.14827,-5.99748 -8.82163,-7.62062 -16.48463,-10.00869 -9.49179,-2.95799 -16.02129,-7.71758 -16.02129,-11.67849 0,-1.77751 -1.01073,-2.2756 -4.6875,-2.31005 -5.14964,-0.0482 -19.06946,-2.7903 -21.3642,-4.20853 -1.7675,-1.09238 -1.87919,-5.1068 -0.2279,-8.19225 1.07297,-2.00487 0.55511,-2.3801 -4.28703,-3.10622 -11.54485,-1.73125 -15.67446,-10.33025 -7.7802,-16.2005 3.07598,-2.28732 5.79134,-2.7037 21.18529,-3.24859 l 17.6571,-0.625 -4.09134,-3.43553 c -2.25023,-1.88953 -8.15638,-5.39073 -13.12476,-7.78042 C 182.32464,96.038764 177.5,90.550787 177.5,82.538197 c 0,-2.131884 0.94495,-5.318325 2.09987,-7.080977 1.85836,-2.836184 2.6729,-3.113193 7.08148,-2.408234 6.98607,1.117119 24.81164,10.62406 35.19365,18.769893 4.8125,3.775936 10.29637,8.043085 12.18637,9.482551 l 3.43639,2.61721 1.1209,-2.94819 c 0.61649,-1.621506 2.02948,-3.702244 3.13995,-4.62386 2.97079,-2.465533 12.24981,1.42348 18.81591,7.8861 2.87357,2.82827 7.98145,7.11106 11.35087,9.51731 6.81542,4.86719 11.75243,12.4229 11.84313,18.125 0.054,3.39557 1.51517,6.87997 7.94049,18.93574 1.15369,2.16465 3.98728,5.37705 6.29688,7.13866 3.97383,3.03099 15.74411,21.2335 15.74411,24.34796 0,3.3891 -2.80995,0.90151 -8.16716,-7.23022 -3.14616,-4.77558 -8.80699,-11.94745 -12.57963,-15.9375 -3.77262,-3.99005 -8.17779,-8.66089 -9.78922,-10.37964 -2.06628,-2.20386 -3.19398,-5.33536 -3.82578,-10.6237 -1.14328,-9.56973 -2.98641,-13.03147 -10.09269,-18.95603 -3.16346,-2.6374 -8.80505,-7.46714 -12.53686,-10.73277 C 250.01815,102.53904 245,100.79869 245,104.35946 c 0,1.0227 4.94182,6.78832 10.98184,12.8125 8.86715,8.84389 11.25512,12.02988 12.40097,16.54514 0.78052,3.07566 1.12659,6.06542 0.76907,6.64394 -1.04995,1.69883 -5.44097,-3.03028 -8.60282,-9.26523 -3.54037,-6.98136 -12.7169,-15.39902 -21.04115,-19.30111 -3.3644,-1.5771 -8.70815,-5.37681 -11.875,-8.44381 -5.86709,-5.682085 -20.55975,-15.357958 -32.53703,-21.427305 -8.17888,-4.144549 -12.61689,-3.600951 -12.55429,1.53773 0.0614,5.041769 3.91799,8.816716 12.40547,12.142937 4.15536,1.628478 12.85903,6.658718 19.34145,11.178308 6.48244,4.51959 12.3193,8.21744 12.97081,8.21744 0.65152,0 1.88482,0.84375 2.74068,1.875 1.37419,1.6558 -1.30191,1.875 -22.89057,1.875 -25.40577,0 -31.34921,0.90864 -30.62259,4.68162 1.04611,5.43205 9.87345,6.53283 37.55391,4.68299 14.25656,-0.95273 19.04066,-0.40991 20.0719,2.27746 0.50005,1.30312 -2.01312,1.72917 -11.5971,1.96599 -14.17012,0.35014 -25.27461,2.60769 -28.88112,5.87153 l -2.52745,2.28732 2.88401,1.1353 c 1.5862,0.62443 8.50901,1.00476 15.38401,0.84521 31.6239,-0.73392 38.97055,0.0219 44.36906,4.56439 3.6931,3.10755 5.00804,6.68819 2.45614,6.68819 -0.71489,0 -3.66801,-1.21819 -6.5625,-2.70709 -8.43844,-4.34066 -34.31312,-4.88246 -32.68625,-0.68444 1.47146,3.79702 8.85083,7.14153 15.75714,7.14153 6.86657,0 6.96132,0.0513 10.53586,5.70639 6.5983,10.4388 21.03854,16.83836 33.98938,15.06325 7.30903,-1.00181 11.51617,0.13649 11.51617,3.11587 0,1.70494 -0.8946,2.36449 -3.20718,2.36449 -4.84942,0 -8.39776,2.30278 -7.37071,4.78336 0.47631,1.1504 1.31288,3.77914 1.85903,5.84164 0.54616,2.0625 2.21167,7.96875 3.70116,13.125 6.0181,20.83333 8.49542,30.67203 7.94726,31.5625 -0.90111,1.46385 -2.95235,1.10154 -3.53839,-0.625 z M 35,227.09179 c 0,-0.22453 4.728404,-9.0839 10.507565,-19.6875 9.686974,-17.77367 10.321499,-19.36743 8.125,-20.4078 -2.777645,-1.31565 -3.136001,-3.9399 -0.667376,-4.8872 0.943354,-0.362 4.458979,-1.05973 7.8125,-1.55051 8.234246,-1.20507 16.223605,-5.09748 19.283725,-9.39503 1.387441,-1.94848 3.90287,-6.66368 5.589841,-10.47822 C 89.236006,152.57977 92.5,151.35946 92.5,158.125 c 0,2.40625 0.479973,4.375 1.066605,4.375 1.329018,0 12.026805,-15.96206 13.222375,-19.72899 0.78803,-2.48286 0.44827,-2.76945 -3.26725,-2.75595 -2.2807,0.009 -6.617944,1.42769 -9.638315,3.15424 -6.119326,3.49804 -7.030906,3.33067 -5.92208,-1.08724 1.448329,-5.7706 8.108215,-7.64782 27.243525,-7.67912 15.20742,-0.0249 20.17624,-0.6885 18.40643,-2.45831 -0.30547,-0.30547 -9.92219,-0.95097 -21.37051,-1.43447 -21.692285,-0.91611 -25.351274,-1.652 -22.47733,-4.52061 1.220879,-1.21861 8.42195,-1.62884 29.36455,-1.67283 33.79631,-0.071 41.18736,-1.29326 37.16052,-6.1453 -2.69677,-3.24942 -17.2465,-4.74413 -40.05973,-4.11539 -31.89238,0.87896 -36.163537,2.92822 -38.206819,18.33122 -0.883631,6.66114 -3.434455,10.7779 -5.779981,9.32829 -2.51315,-1.55321 -0.03691,-13.74095 4.953391,-24.38001 C 82.448013,106.13721 84.424222,100 82.7775,100 c -0.561073,0 -3.179355,2.21125 -5.818409,4.91388 -3.685611,3.77441 -6.136447,8.48465 -10.569024,20.31251 -5.549302,14.80771 -5.967593,15.49455 -10.900561,17.89861 -2.821399,1.375 -7.049681,4.1875 -9.396185,6.25 -7.899417,6.94332 -28.109575,21.875 -29.608021,21.875 -4.796917,0 0.408165,-5.77632 16.895747,-18.75 21.60102,-16.99731 24.789375,-20.02061 25.937367,-24.59457 0.760391,-3.02964 3.899125,-10.46503 8.594927,-20.36063 2.35136,-4.95509 11.437044,-13.7948 14.178653,-13.7948 4.641001,0 7.049604,4.234814 6.378864,11.21534 -0.332132,3.45656 -0.375169,6.28466 -0.09564,6.28466 0.27953,0 4.499585,-3.18463 9.377899,-7.07696 C 109.82981,94.537249 130.65707,81.956237 141.97451,77.460471 155.77215,71.97946 161.25,72.710285 161.25,80.032107 c 0,4.314732 -3.40885,7.333334 -16.25,14.389709 -11.83109,6.501324 -18.75,11.350764 -18.75,13.141794 0,0.65252 4.07812,1.20615 9.0625,1.2303 12.93921,0.0627 24.6026,2.79302 27.38549,6.41076 2.64448,3.43781 2.7363,4.14821 0.96408,7.45962 C 162.14832,125.49275 152.565,130 148.06486,130 c -1.63782,0 -4.82557,1.60501 -7.08386,3.56669 -6.25606,5.43433 -8.91285,6.43331 -17.10959,6.43331 -6.31952,0 -7.42161,0.31621 -6.79483,1.94957 0.4987,1.29958 -0.13256,2.17987 -1.89336,2.64033 -1.45281,0.37992 -4.28074,3.3549 -6.28428,6.61107 -5.25087,8.53375 -11.125766,14.85472 -16.28059,17.51675 -2.471342,1.27624 -6.657012,4.55679 -9.301489,7.2901 -2.709955,2.801 -8.164727,6.40032 -12.5,8.24809 -7.197881,3.06786 -7.980103,3.81916 -12.180135,11.69875 C 47.347931,217.13329 43.364455,223.43872 40.02876,225.40917 36.63029,227.4167 35,227.96219 35,227.09179 Z m 84.22284,-122.14007 c 21.69577,-12.871699 33.9121,-20.950389 35.60352,-23.5447 1.93294,-2.96476 1.93035,-2.966971 -2.38316,-2.037546 -2.37501,0.511739 -7.78826,2.494516 -12.02944,4.406174 -9.80797,4.420812 -34.3235,19.197772 -37.29233,22.478302 -2.2278,2.46168 -2.17657,2.49605 3.72018,2.49605 4.42235,0 7.64595,-0.98892 12.38123,-3.79828 z m 73.79858,80.85412 c -1.104,-2.87698 0.0293,-17.68084 1.35358,-17.68084 0.6875,0 1.42002,2.95312 1.62782,6.5625 0.2078,3.60937 0.75262,6.5625 1.21069,6.5625 0.45809,0 3.78978,-2.92016 7.40375,-6.48926 3.61399,-3.56909 6.93714,-6.123 7.38478,-5.67537 0.44763,0.44764 -2.26752,3.91999 -6.03367,7.71633 -3.76616,3.79635 -6.556,7.19401 -6.19963,7.55038 0.35636,0.35636 3.36667,0.64792 6.6896,0.64792 3.32291,0 6.04166,0.5625 6.04166,1.25 0,2.02256 -18.69559,1.59625 -19.47858,-0.44416 z M 132.5,166.25 c 0,-0.6875 2.8125,-1.25 6.25,-1.25 3.4375,0 6.25,-0.44109 6.25,-0.9802 0,-0.53911 -3.06778,-4.00986 -6.81726,-7.71279 -3.7495,-3.70291 -6.49423,-7.25527 -6.09939,-7.89412 0.39482,-0.63885 3.90079,1.98815 7.79101,5.83779 3.89023,3.84962 7.4787,6.99932 7.97439,6.99932 0.49569,0 0.90125,-2.8125 0.90125,-6.25 0,-3.4375 0.5625,-6.25 1.25,-6.25 0.72222,0 1.25,3.95834 1.25,9.375 l 0,9.375 -9.375,0 c -5.41666,0 -9.375,-0.52777 -9.375,-1.25 z M 111.77143,68.305841 c -0.35756,-0.931787 -0.48053,-5.291162 -0.27327,-9.6875 L 111.875,50.625 l 9.27083,0 c 6.30556,0 9.43742,0.499766 9.79167,1.5625 0.37112,1.113388 -1.30555,1.5625 -5.83334,1.5625 -3.49478,0 -6.35416,0.404187 -6.35416,0.898194 0,0.494006 2.92017,3.85509 6.48926,7.469074 3.56909,3.613985 6.08643,6.973715 5.59408,7.466066 -0.49235,0.492351 -3.85209,-2.024983 -7.46607,-5.594075 C 119.75328,60.420166 116.3922,57.5 115.89819,57.5 115.40419,57.5 115,60.3125 115,63.75 c 0,5.867264 -1.76799,8.362069 -3.22857,4.555841 z M 215,60.26551 c 0,-0.541469 2.8125,-3.754699 6.25,-7.14051 3.4375,-3.385811 6.25,-6.569645 6.25,-7.075186 0,-0.50554 -2.95313,-1.089187 -6.5625,-1.296989 -9.82393,-0.565596 -7.3131,-2.877825 3.125,-2.877825 l 9.0625,0 0.36507,9.6875 c 0.23062,6.119261 -0.11475,9.6875 -0.9375,9.6875 -0.72377,0 -1.30257,-2.684636 -1.30257,-6.041666 0,-3.322918 -0.29156,-6.333234 -0.64792,-6.689594 -0.35637,-0.35636 -3.68238,2.36239 -7.39114,6.041666 C 216.59305,61.125674 215,62.232551 215,60.26551 Z"
     id="path4066"
     inkscape:connector-curvature="0" />
  <g
     style="font-size:50px;font-style:normal;font-variant:normal;font-weight:normal;font-stretch:normal;text-align:start;line-height:125%;letter-spacing:0px;word-spacing:0px;writing-mode:lr-tb;text-anchor:start;fill:#000000;fill-opacity:1;stroke:none;font-family:Veranda;-inkscape-font-specification:Veranda"
     id="text4068">
    <path
       d="m 69.66954,280.43167 4.492188,0 0,27.34375 -4.492188,0 0,-27.34375 z m 0,-10.64453 4.492188,0 0,5.68848 -4.492188,0 0,-5.68848 z"
       style=""
       id="path4073" />
    <path
       d="m 106.26622,291.27151 0,16.50391 -4.49219,0 0,-16.35742 q 0,-3.88184 -1.51367,-5.81055 -1.513671,-1.92871 -4.541015,-1.92871 -3.637695,0 -5.737305,2.31934 -2.099609,2.31933 -2.099609,6.32324 l 0,15.4541 -4.516602,0 0,-27.34375 4.516602,0 0,4.24805 q 1.611328,-2.46582 3.78418,-3.68653 2.197265,-1.2207 5.053711,-1.2207 4.711918,0 7.128908,2.92969 2.41699,2.90527 2.41699,8.56933 z"
       style=""
       id="path4075" />
    <path
       d="m 119.71837,272.668 0,7.76367 9.25293,0 0,3.49121 -9.25293,0 0,14.84375 q 0,3.34473 0.90332,4.29688 0.92773,0.95215 3.73535,0.95215 l 4.61426,0 0,3.75976 -4.61426,0 q -5.20019,0 -7.17773,-1.92871 -1.97754,-1.95312 -1.97754,-7.08008 l 0,-14.84375 -3.2959,0 0,-3.49121 3.2959,0 0,-7.76367 4.5166,0 z"
       style=""
       id="path4077" />
    <path
       d="m 158.29259,292.9805 0,2.19726 -20.6543,0 q 0.29297,4.63868 2.7832,7.08008 2.51465,2.417 6.98243,2.417 2.58789,0 5.00488,-0.63477 2.4414,-0.63477 4.83398,-1.9043 l 0,4.24805 q -2.41699,1.02539 -4.95605,1.5625 -2.53906,0.53711 -5.15137,0.53711 -6.54297,0 -10.37598,-3.80859 -3.80859,-3.8086 -3.80859,-10.30274 0,-6.71387 3.61328,-10.64453 3.6377,-3.95508 9.79004,-3.95508 5.51758,0 8.71582,3.56445 3.22266,3.54004 3.22266,9.64356 z m -4.49219,-1.31836 q -0.0488,-3.68652 -2.0752,-5.88379 -2.00195,-2.19726 -5.32226,-2.19726 -3.75977,0 -6.03027,2.12402 -2.2461,2.12402 -2.5879,5.98144 l 16.01563,-0.0244 z"
       style=""
       id="path4079" />
    <path
       d="m 181.51036,284.63089 q -0.75684,-0.43945 -1.66016,-0.63477 -0.8789,-0.21972 -1.95312,-0.21972 -3.80859,0 -5.85938,2.49023 -2.02636,2.46582 -2.02636,7.10449 l 0,14.4043 -4.5166,0 0,-27.34375 4.5166,0 0,4.24805 q 1.41601,-2.49024 3.68652,-3.68653 2.27051,-1.2207 5.51758,-1.2207 0.46387,0 1.02539,0.0732 0.56152,0.0488 1.24512,0.1709 l 0.0244,4.61426 z"
       style=""
       id="path4081" />
    <path
       d="m 208.12169,291.27151 0,16.50391 -4.49219,0 0,-16.35742 q 0,-3.88184 -1.51367,-5.81055 -1.51367,-1.92871 -4.54102,-1.92871 -3.63769,0 -5.7373,2.31934 -2.09961,2.31933 -2.09961,6.32324 l 0,15.4541 -4.5166,0 0,-27.34375 4.5166,0 0,4.24805 q 1.61133,-2.46582 3.78418,-3.68653 2.19727,-1.2207 5.05371,-1.2207 4.71191,0 7.12891,2.92969 2.41699,2.90527 2.41699,8.56933 z"
       style=""
       id="path4083" />
    <path
       d="m 240.51915,292.9805 0,2.19726 -20.6543,0 q 0.29297,4.63868 2.78321,7.08008 2.51464,2.417 6.98242,2.417 2.58789,0 5.00488,-0.63477 2.44141,-0.63477 4.83399,-1.9043 l 0,4.24805 q -2.417,1.02539 -4.95606,1.5625 -2.53906,0.53711 -5.15137,0.53711 -6.54297,0 -10.37597,-3.80859 -3.8086,-3.8086 -3.8086,-10.30274 0,-6.71387 3.61328,-10.64453 3.6377,-3.95508 9.79004,-3.95508 5.51758,0 8.71582,3.56445 3.22266,3.54004 3.22266,9.64356 z m -4.49219,-1.31836 q -0.0488,-3.68652 -2.07519,-5.88379 -2.00196,-2.19726 -5.32227,-2.19726 -3.75976,0 -6.03027,2.12402 -2.2461,2.12402 -2.58789,5.98144 l 16.01562,-0.0244 z"
       style=""
       id="path4085" />
    <path
       d="m 252.33556,272.668 0,7.76367 9.25293,0 0,3.49121 -9.25293,0 0,14.84375 q 0,3.34473 0.90332,4.29688 0.92773,0.95215 3.73535,0.95215 l 4.61426,0 0,3.75976 -4.61426,0 q -5.2002,0 -7.17774,-1.92871 -1.97754,-1.95312 -1.97754,-7.08008 l 0,-14.84375 -3.29589,0 0,-3.49121 3.29589,0 0,-7.76367 4.51661,0 z"
       style=""
       id="path4087" />
  </g>
</svg>
