<?xml version="1.0" encoding="UTF-8" standalone="no"?>
<!-- Created with Inkscape (http://www.inkscape.org/) -->

<svg
   xmlns:dc="http://purl.org/dc/elements/1.1/"
   xmlns:cc="http://creativecommons.org/ns#"
   xmlns:rdf="http://www.w3.org/1999/02/22-rdf-syntax-ns#"
   xmlns:svg="http://www.w3.org/2000/svg"
   xmlns="http://www.w3.org/2000/svg"
   xmlns:sodipodi="http://sodipodi.sourceforge.net/DTD/sodipodi-0.dtd"
   xmlns:inkscape="http://www.inkscape.org/namespaces/inkscape"
   id="svg2"
   version="1.1"
   inkscape:version="0.48+devel r12701"
   width="265"
   height="350"
   viewBox="0 0 265 350"
   sodipodi:docname="ASL_please.svg">

  <metadata
     id="metadata8">
    <rdf:RDF>
      <cc:Work
         rdf:about="">
        <dc:format>image/svg+xml</dc:format>
        <dc:type
           rdf:resource="http://purl.org/dc/dcmitype/StillImage" />
        <dc:title>ASL word</dc:title>
        <dc:date>11/03/2013</dc:date>
        <dc:creator>
          <cc:Agent>
            <dc:title>Paul Sherman</dc:title>
          </cc:Agent>
        </dc:creator>
        <dc:rights>
          <cc:Agent>
            <dc:title>PD</dc:title>
          </cc:Agent>
        </dc:rights>
        <dc:publisher>
          <cc:Agent>
            <dc:title>WPClipart</dc:title>
          </cc:Agent>
        </dc:publisher>
        <dc:subject>
          <rdf:Bag>
            <rdf:li>ASL</rdf:li>
            <rdf:li>sign</rdf:li>
            <rdf:li>language</rdf:li>
            <rdf:li>bathroom</rdf:li>
          </rdf:Bag>
        </dc:subject>
        <cc:license
           rdf:resource="http://creativecommons.org/publicdomain/zero/1.0/" />
      </cc:Work>
      <cc:License
         rdf:about="http://creativecommons.org/publicdomain/zero/1.0/">
        <cc:permits
           rdf:resource="http://creativecommons.org/ns#Reproduction" />
        <cc:permits
           rdf:resource="http://creativecommons.org/ns#Distribution" />
        <cc:permits
           rdf:resource="http://creativecommons.org/ns#DerivativeWorks" />
      </cc:License>
    </rdf:RDF>
  </metadata>
  <defs
     id="defs6" />
  <sodipodi:namedview
     pagecolor="#ffffff"
     bordercolor="#666666"
     borderopacity="1"
     objecttolerance="10"
     gridtolerance="10"
     guidetolerance="10"
     inkscape:pageopacity="0"
     inkscape:pageshadow="2"
     inkscape:window-width="948"
     inkscape:window-height="992"
     id="namedview4"
     showgrid="false"
     inkscape:zoom="0.28991378"
     inkscape:cx="198.93255"
     inkscape:cy="126.24181"
     inkscape:window-x="690"
     inkscape:window-y="0"
     inkscape:window-maximized="0"
     inkscape:current-layer="svg2" />
  <rect
     style="fill:#ffffff;fill-opacity:1;stroke:none"
     id="rect4066"
     width="286.858"
     height="365.27246"
     x="-10.91847"
     y="-7.331768" />
  <path
     style="fill:#000000"
     d="m 226.56054,268.94192 c -1.49885,-0.92633 -1.14334,-4.26723 2.01562,-18.94192 1.62518,-7.54961 1.1927,-45.35205 -0.54481,-47.62065 -0.739,-0.96489 -2.05387,-4.23398 -2.92192,-7.26461 -2.60732,-9.10293 -10.97744,-23.79258 -17.29637,-30.35529 -3.26594,-3.39193 -9.87556,-9.04446 -14.68806,-12.56116 -12.14934,-8.87808 -15.20174,-11.80718 -20.5274,-19.69829 -5.67692,-8.41159 -7.8422,-17.17074 -8.0579,-32.596392 -0.21163,-15.134248 2.05199,-16.879813 3.11694,-2.403608 1.39433,18.95357 5.73914,31.84124 13.30179,39.45616 2.00401,2.01786 7.24881,6.34539 11.65511,9.61674 19.74084,14.65605 29.9823,27.61607 36.78711,46.5521 3.30938,9.20914 3.63278,11.68059 4.08929,31.25 0.39326,16.85779 0.0636,23.05856 -1.5945,30 -1.14961,4.8125 -2.36185,10.14357 -2.69384,11.84684 -0.74154,3.80447 -0.7959,3.86046 -2.64106,2.72009 z M 75.645872,267.33815 c 1.526804,-3.82948 10.287454,-8.58821 15.803848,-8.58456 4.60817,0.002 16.24114,-3.70697 23.76938,-7.5806 27.69261,-14.24915 56.11841,-34.26882 51.05472,-35.95672 -1.66367,-0.55456 -24.53805,10.49169 -33.70605,16.27697 -5.52752,3.48802 -11.31777,4.6426 -11.31777,2.25676 0,-0.6875 0.8158,-1.25 1.81289,-1.25 0.99708,0 2.26271,-0.70313 2.8125,-1.5625 0.54978,-0.85938 6.62461,-4.41936 13.49961,-7.91109 17.26752,-8.76996 25.87899,-14.53409 30.5788,-20.46807 3.60108,-4.54674 3.75421,-5.05834 1.51411,-5.05834 -2.31417,0 -47.69443,22.40903 -51.13949,25.25296 -0.85062,0.7022 -2.47406,0.92083 -3.60765,0.48583 -1.91126,-0.73343 -1.90972,-0.95815 0.0211,-3.09172 1.1452,-1.26543 4.45615,-3.28021 7.35764,-4.47726 2.90151,-1.19705 6.40046,-2.78812 7.77546,-3.53573 1.375,-0.7476 7.84375,-4.11294 14.375,-7.47854 17.95093,-9.25023 21.06925,-11.13154 21.85808,-13.1872 1.64304,-4.2817 -1.81165,-4.20948 -9.7016,0.20284 -4.4144,2.46867 -13.03362,6.23796 -19.15383,8.3762 -9.94588,3.47482 -13.36958,4.93526 -22.37765,9.54556 -16.07506,8.22715 -18.991309,9.04155 -16.12928,4.50429 2.16465,-3.43169 16.38144,-10.31374 35.50428,-17.1869 15.34717,-5.5161 16.06871,-5.8348 19.03108,-8.40567 l 2.84392,-2.46805 -3.5072,-3.01831 c -3.81522,-3.28336 -5.49312,-3.60606 -9.87149,-1.89847 -3.6339,1.41723 -12.28468,3.95255 -14.74631,4.32175 -1.03125,0.15466 -3.28125,1.19972 -5,2.32235 -2.91903,1.9066 -9.85683,5.12766 -15.625,7.25432 -1.375,0.50695 -7.02499,2.96023 -12.555524,5.45174 C 91.288944,202.9615 86.367069,205 85.88198,205 85.396891,205 85,203.92187 85,202.60416 c 0,-1.70829 1.524545,-2.90259 5.3125,-4.16171 l 5.3125,-1.76588 0.379424,-7.99362 c 0.303453,-6.39313 -0.04828,-8.30636 -1.756723,-9.55561 -1.785858,-1.30585 -2.514249,-1.12603 -4.441923,1.0966 C 88.5376,181.68616 87.5,184.16951 87.5,185.74249 c 0,1.57298 -0.5625,3.20761 -1.25,3.63251 -0.6875,0.4249 -1.25,2.08817 -1.25,3.69617 0,1.608 -1.399475,5.37169 -3.109944,8.36374 -1.710469,2.99205 -3.116719,6.73365 -3.125,8.31466 -0.03557,6.79152 -12.890383,23.4319 -30.18879,39.07903 C 36.562846,259.69524 35,260.80591 35,258.47691 c 0,-0.91884 7.279787,-9.09292 16.177306,-18.16464 8.897519,-9.07171 17.578607,-18.9 19.291305,-21.84065 1.712699,-2.94063 5.474288,-12.54308 8.359086,-21.33876 5.423023,-16.53465 9.151012,-23.70472 12.678149,-24.38399 1.123609,-0.21638 3.768447,1.18597 5.877419,3.11635 3.248115,2.97305 3.892855,4.56112 4.216115,10.38478 0.2099,3.78125 0.92028,6.84485 1.57863,6.808 0.65834,-0.0369 6.10669,-2.42746 12.10743,-5.3125 6.00075,-2.88503 12.01967,-5.2455 13.37538,-5.2455 1.35573,0 2.93548,-0.84078 3.51055,-1.86837 0.57508,-1.02762 2.71241,-2.11246 4.74962,-2.41075 16.79651,-2.45943 16.38958,-2.47952 20.13561,0.99399 1.94856,1.80683 4.78776,3.28513 6.30931,3.28513 5.62258,0 8.85844,2.58396 10.27354,8.2038 1.94035,7.70586 1.70184,11.16849 -1.13375,16.45909 -1.37186,2.5596 -2.17985,5.64458 -1.79551,6.85552 0.38433,1.21095 -0.22357,3.75532 -1.35089,5.65415 -2.66206,4.48392 -16.41306,14.88256 -21.2343,16.05759 -2.0625,0.50268 -6.23286,3.08675 -9.26746,5.74241 -7.92918,6.93899 -26.60557,16.55287 -38.23254,19.6806 -5.5,1.47954 -12.53125,3.54949 -15.625,4.5999 -10.033797,3.40674 -10.083795,3.41522 -9.354128,1.58509 z M 173.75,261.25 c 21.56232,-22.80554 33.73917,-30.12217 3.125,0 -0.57722,0.5657 -1.30185,1.25 -1.94878,1.25 -0.64692,0 -1.17622,-0.5625 -1.17622,-1.25 z m 5,-1.91083 c -3.70966,-21.76919 25.92434,-16.90107 -4.8893,1.99153 -0.35509,0.35509 -0.1988,-16.23797 -0.23421,-11.62505 0.65946,4.01651 -0.34247,-31.53592 -0.0485,-37.20565 0.68354,0 4.68742,2.05195 8.8975,4.55989 10.01459,5.96565 10.64948,5.29885 10.64948,-11.18489 0,-11.32703 -0.3773,-13.51823 -3.38066,-19.6334 -7.72615,-15.73135 -21.84679,-24.93379 -38.31937,-24.97278 -6.55693,-0.0155 -9.2557,0.67709 -15.40116,3.95259 -4.09812,2.18428 -9.59152,6.40303 -12.20756,9.375 -2.61604,2.97198 -5.16011,5.40359 -5.6535,5.40359 -1.68725,0 -14.41275,-8.08196 -14.41275,-9.15354 0,-1.84302 10.96833,-11.82601 16.6545,-15.15832 2.98976,-1.75212 9.88745,-4.3523 15.32821,-5.77819 13.41009,-3.51445 23.75409,-2.62784 36.14758,3.0983 21.41087,9.89244 33.01438,29.22787 31.50762,52.50255 -0.72479,11.19564 -1.30454,14.34639 -3.33947,18.14869 -1.23073,2.29965 -0.67793,3.01436 5.22511,6.75555 3.6308,2.30108 7.6725,4.76681 8.98156,5.47936 2.75976,1.50221 5.16698,-0.27561 -19.56761,14.45151 -8.76563,5.2191 -15.9375,9.26608 -15.9375,8.99326 z M 20.001909,184.6875 c 0.0029,-4.32016 20.433,-24.44456 29.503925,-29.0625 17.50942,-8.9139 27.816785,-15.01605 34.244166,-20.27318 8.134476,-6.65341 21.25,-18.76319 21.25,-19.62048 0,-0.3314 1.40625,-2.1199 3.125,-3.97447 1.71875,-1.85456 3.11869,-4.27416 3.11097,-5.3769 -0.008,-1.10273 -4.53619,-5.31421 -10.06328,-9.358838 C 90.374633,89.119302 86.459604,84.747176 83.132796,76.875 79.175415,67.510706 81.167788,49.945476 87.315419,40 91.311676,33.534961 100.68427,22.509154 102.1875,22.504665 c 3.19616,-0.0095 1.46172,3.080429 -9.820346,17.495335 -1.345209,1.71875 -3.047143,5.375 -3.782077,8.125 -0.734933,2.75 -1.842231,6.292092 -2.460661,7.871316 -2.959369,7.557061 0.426101,21.968106 6.77227,28.827746 3.849588,4.16106 20.927304,15.277758 22.231644,14.471627 2.60147,-1.607796 -0.89067,8.216571 -5.2996,14.909251 -5.50197,8.3519 -5.83901,10.74032 -2.31927,16.43537 3.5591,5.75875 9.25829,6.95641 23.97675,5.03863 6.93915,-0.90415 14.91959,-2.91441 19.76379,-4.97848 14.95194,-6.37087 21.35587,-5.35195 7.8125,1.24303 -11.83055,5.76091 -12.22333,5.87596 -31.92468,9.35068 -9.32176,1.64408 -15.94476,-0.23031 -20.94784,-5.92851 -2.02949,-2.31146 -3.68998,-4.74557 -3.68998,-5.40916 0,-3.1054 -5.262919,-0.41646 -14.810068,7.5668 -5.739287,4.79915 -12.489287,9.61699 -15,10.7063 C 70.17922,149.31891 67,150.82019 65.625,151.56577 c -1.375,0.74559 -6.923243,3.65143 -12.329429,6.45742 -10.123865,5.25463 -24.517815,17.93693 -29.033025,25.58057 -2.714575,4.59541 -4.263289,4.98934 -4.260637,1.08374 z M 178.4375,79.899876 c -1.20313,-0.700756 -2.1875,-2.03656 -2.1875,-2.968454 0,-1.29525 1.69301,-1.560483 7.1875,-1.126026 8.22825,0.65062 12.40372,-1.009378 15.23729,-6.057727 1.6857,-3.003279 1.65728,-3.949546 -0.2809,-9.35692 C 195.82442,53.222176 195.7723,52.5 197.82431,52.5 c 2.54966,0 4.58678,4.429257 5.46198,11.875891 0.73192,6.227586 0.5032,7.297853 -2.1716,10.161199 -1.64433,1.760245 -4.50863,3.99075 -6.36512,4.956678 -3.90742,2.033028 -13.12483,2.262507 -16.31207,0.406108 z m -58.13879,-22.03385 c -5.55214,-1.067721 -8.67679,-13.246605 -4.76298,-18.564614 2.14032,-2.90824 2.92648,-1.482948 3.48303,6.314709 0.28561,4.001589 1.01942,5.307396 3.70125,6.586381 2.82624,1.347849 4.03545,1.266014 7.7968,-0.527652 6.04005,-2.880299 7.26681,-1.031636 2.2751,3.428456 -3.89487,3.480075 -6.15919,3.980801 -12.4932,2.76272 z M 181.25,46.129312 c 0,-0.753878 2.2275,-3.901266 4.95001,-6.994196 3.08253,-3.501938 5.3302,-7.546027 5.95778,-10.719404 0.55426,-2.802741 1.68101,-5.320312 2.50387,-5.594602 2.54169,-0.847226 3.06556,5.075304 0.91271,10.318409 C 192.25126,41.232746 181.25,51.209031 181.25,46.129312 Z m 21.25,-3.357445 c 0,-1.225472 2.77827,-4.637845 6.17395,-7.58305 3.39566,-2.945204 6.34879,-6.539111 6.5625,-7.986457 0.5261,-3.563145 3.51355,-4.40869 3.51355,-0.994451 0,4.277922 -3.12726,9.074521 -9.19585,14.104591 C 203.1201,45.645484 202.5,45.861678 202.5,42.771867 Z M 163.75,23.75 c 0,-0.6875 0.5293,-1.25 1.17622,-1.25 0.64693,0 1.52388,0.5625 1.94878,1.25 0.4249,0.6875 -0.10437,1.25 -1.17623,1.25 -1.07182,0 -1.94877,-0.5625 -1.94877,-1.25 z"
     id="path4064"
     inkscape:connector-curvature="0"
     sodipodi:nodetypes="cssssssssssssssccscssssscsssssssssssssssscssssssssscsssssssssssssssscsssssssssssssssccscccccsssssssssssssssscssssscssscsssssssssssssssssssssssssssssssssssssssssssssssssssss" />
  <g
     style="font-size:50px;font-style:normal;font-variant:normal;font-weight:normal;font-stretch:normal;text-align:start;line-height:125%;letter-spacing:0px;word-spacing:0px;writing-mode:lr-tb;text-anchor:start;fill:#000000;fill-opacity:1;stroke:none;font-family:Comfortaa;-inkscape-font-specification:'Comfortaa, Normal'"
     id="text4066">
    <path
       d="m 62.436905,312.50601 q 0,4.05274 2.856445,6.90918 2.856446,2.85645 6.90918,2.85645 4.052734,0 6.90918,-2.85645 2.856445,-2.85644 2.856445,-6.90918 0,-4.05273 -2.856445,-6.90918 -2.856446,-2.85644 -6.90918,-2.85644 -4.052734,0 -6.90918,2.85644 -2.856445,2.85645 -2.856445,6.90918 z m 0,23.4375 q 0,0.80567 -0.585938,1.36719 -0.561523,0.58594 -1.367187,0.58594 -0.805664,0 -1.391602,-0.58594 -0.561523,-0.56152 -0.561523,-1.36719 l 0,-23.4375 q 0,-5.66406 4.003906,-9.66797 4.003906,-4.0039 9.667969,-4.0039 5.664062,0 9.667969,4.0039 4.003906,4.00391 4.003906,9.66797 0,5.66406 -4.003906,9.66797 -4.003907,4.00391 -9.667969,4.00391 -5.664063,0 -9.667969,-4.00391 -0.04883,-0.0488 -0.09766,-0.0977 l 0,13.86719 z"
       style=""
       id="path4071" />
    <path
       d="m 89.780655,289.06851 q 0,-0.80566 0.561523,-1.36719 0.585938,-0.58593 1.391602,-0.58593 0.805664,0 1.367187,0.58593 0.585938,0.56153 0.585938,1.36719 l 0,33.20313 1.953125,0 q 0.805664,0 1.367187,0.58593 0.585938,0.56153 0.585938,1.36719 0,0.80567 -0.585938,1.3916 -0.561523,0.56153 -1.367187,0.56153 l -3.90625,0 q -0.805664,0 -1.391602,-0.56153 -0.561523,-0.58593 -0.561523,-1.3916 l 0,-35.15625 z"
       style=""
       id="path4073" />
    <path
       d="m 124.76601,310.55289 q -0.53711,-2.80762 -2.68555,-4.95606 -2.85645,-2.85644 -6.90918,-2.85644 -4.05273,0 -6.90918,2.85644 -2.14844,2.14844 -2.68555,4.95606 l 19.18946,0 z m -2.0752,8.98437 q 0.80567,0 1.36719,0.58594 0.58594,0.56152 0.58594,1.36719 0,0.80566 -0.56153,1.3916 -3.78418,3.2959 -8.91113,3.2959 -5.66406,0 -9.66797,-4.00391 -4.00391,-4.00391 -4.00391,-9.66797 0,-5.66406 4.00391,-9.66797 4.00391,-4.0039 9.66797,-4.0039 5.66406,0 9.66797,4.0039 4.0039,4.00391 4.0039,9.66797 0,0.80567 -0.58593,1.3916 -0.56153,0.56153 -1.36719,0.56153 l -21.31348,0 q 0.53711,2.80761 2.68555,4.95605 2.85645,2.85645 6.90918,2.85645 3.66211,0 6.29883,-2.31934 0.53711,-0.41504 1.2207,-0.41504 z"
       style=""
       id="path4075" />
    <path
       d="m 146.42128,302.74039 q -4.05273,0 -6.90918,2.85644 -2.85645,2.85645 -2.85645,6.90918 0,4.05274 2.85645,6.90918 2.85645,2.85645 6.90918,2.85645 4.05273,0 6.90918,-2.85645 2.85644,-2.85644 2.85644,-6.90918 0,-4.05273 -2.85644,-6.90918 -2.85645,-2.85644 -6.90918,-2.85644 z m 9.76562,19.33593 q -4.10156,4.10157 -9.76562,4.10157 -5.66406,0 -9.66797,-4.00391 -4.00391,-4.00391 -4.00391,-9.66797 0,-5.66406 4.00391,-9.66797 4.00391,-4.0039 9.66797,-4.0039 5.66406,0 9.66797,4.0039 4.0039,4.00391 4.0039,9.66797 l 0,11.71875 q 0,0.80567 -0.58593,1.3916 -0.56153,0.56153 -1.36719,0.56153 -0.80566,0 -1.3916,-0.56153 -0.56153,-0.58593 -0.56153,-1.3916 l 0,-2.14844 z"
       style=""
       id="path4077" />
    <path
       d="m 168.83339,312.50601 q -2.22168,-0.83008 -3.10059,-1.7334 -1.7334,-1.70898 -1.7334,-4.12597 0,-2.417 1.80665,-4.22364 3.51562,-3.58886 9.17968,-3.58886 6.12793,0 10.49805,4.90722 0.39062,0.46387 0.36621,1.14746 0,0.80567 -0.58594,1.39161 -0.56152,0.56152 -1.36718,0.56152 -0.80567,0 -1.29395,-0.5127 -0.48828,-0.51269 -0.70801,-0.73242 -2.85644,-2.85644 -6.90918,-2.85644 -4.05273,0 -6.46972,2.53906 -0.58594,0.70801 -0.58594,1.68457 0.0732,1.14746 1.19629,1.5625 l 12.01172,3.97949 q 2.22168,0.83008 3.10058,1.7334 1.7334,1.70898 1.7334,4.12598 0,2.41699 -1.80664,4.22363 -3.51562,3.58887 -9.17969,3.58887 -6.15234,0 -10.49804,-4.90723 -0.36621,-0.51269 -0.36621,-1.14746 0,-0.80566 0.56152,-1.36719 0.58594,-0.58594 1.3916,-0.58594 0.80566,0 1.29395,0.5127 0.48828,0.5127 0.708,0.73242 2.85645,2.85645 6.90918,2.85645 4.05274,0 6.46973,-2.53907 0.58594,-0.708 0.58594,-1.68457 -0.0733,-1.14746 -1.19629,-1.5625 l -12.01172,-3.97949 z"
       style=""
       id="path4079" />
    <path
       d="m 213.14491,310.55289 q -0.53711,-2.80762 -2.68554,-4.95606 -2.85645,-2.85644 -6.90918,-2.85644 -4.05274,0 -6.90918,2.85644 -2.14844,2.14844 -2.68555,4.95606 l 19.18945,0 z m -2.07519,8.98437 q 0.80566,0 1.36718,0.58594 0.58594,0.56152 0.58594,1.36719 0,0.80566 -0.56152,1.3916 -3.78418,3.2959 -8.91113,3.2959 -5.66407,0 -9.66797,-4.00391 -4.00391,-4.00391 -4.00391,-9.66797 0,-5.66406 4.00391,-9.66797 4.0039,-4.0039 9.66797,-4.0039 5.66406,0 9.66796,4.0039 4.00391,4.00391 4.00391,9.66797 0,0.80567 -0.58594,1.3916 -0.56152,0.56153 -1.36718,0.56153 l -21.31348,0 q 0.53711,2.80761 2.68555,4.95605 2.85644,2.85645 6.90918,2.85645 3.66211,0 6.29882,-2.31934 0.53711,-0.41504 1.22071,-0.41504 z"
       style=""
       id="path4081" />
  </g>
</svg>
