<?xml version="1.0" encoding="UTF-8" standalone="no"?>
<!-- Created with Inkscape (http://www.inkscape.org/) -->

<svg
   xmlns:dc="http://purl.org/dc/elements/1.1/"
   xmlns:cc="http://creativecommons.org/ns#"
   xmlns:rdf="http://www.w3.org/1999/02/22-rdf-syntax-ns#"
   xmlns:svg="http://www.w3.org/2000/svg"
   xmlns="http://www.w3.org/2000/svg"
   xmlns:sodipodi="http://sodipodi.sourceforge.net/DTD/sodipodi-0.dtd"
   xmlns:inkscape="http://www.inkscape.org/namespaces/inkscape"
   id="svg2"
   version="1.1"
   inkscape:version="0.48+devel r12701"
   width="290"
   height="358.75"
   viewBox="0 0 290 358.75"
   sodipodi:docname="ASL_thanks.svg">

  <metadata
     id="metadata8">
    <rdf:RDF>
      <cc:Work
         rdf:about="">
        <dc:format>image/svg+xml</dc:format>
        <dc:type
           rdf:resource="http://purl.org/dc/dcmitype/StillImage" />
        <dc:title>ASL word</dc:title>
        <dc:date>11/03/2013</dc:date>
        <dc:creator>
          <cc:Agent>
            <dc:title>Paul Sherman</dc:title>
          </cc:Agent>
        </dc:creator>
        <dc:rights>
          <cc:Agent>
            <dc:title>PD</dc:title>
          </cc:Agent>
        </dc:rights>
        <dc:publisher>
          <cc:Agent>
            <dc:title>WPClipart</dc:title>
          </cc:Agent>
        </dc:publisher>
        <dc:subject>
          <rdf:Bag>
            <rdf:li>ASL</rdf:li>
            <rdf:li>sign</rdf:li>
            <rdf:li>language</rdf:li>
            <rdf:li>bathroom</rdf:li>
          </rdf:Bag>
        </dc:subject>
        <cc:license
           rdf:resource="http://creativecommons.org/publicdomain/zero/1.0/" />
      </cc:Work>
      <cc:License
         rdf:about="http://creativecommons.org/publicdomain/zero/1.0/">
        <cc:permits
           rdf:resource="http://creativecommons.org/ns#Reproduction" />
        <cc:permits
           rdf:resource="http://creativecommons.org/ns#Distribution" />
        <cc:permits
           rdf:resource="http://creativecommons.org/ns#DerivativeWorks" />
      </cc:License>
    </rdf:RDF>
  </metadata>
  <defs
     id="defs6" />
  <sodipodi:namedview
     pagecolor="#ffffff"
     bordercolor="#666666"
     borderopacity="1"
     objecttolerance="10"
     gridtolerance="10"
     guidetolerance="10"
     inkscape:pageopacity="0"
     inkscape:pageshadow="2"
     inkscape:window-width="913"
     inkscape:window-height="966"
     id="namedview4"
     showgrid="false"
     inkscape:zoom="0.65783972"
     inkscape:cx="93.323668"
     inkscape:cy="179.375"
     inkscape:window-x="0"
     inkscape:window-y="0"
     inkscape:window-maximized="0"
     inkscape:current-layer="svg2" />
  <rect
     style="fill:#ffffff;fill-opacity:1;stroke:none"
     id="rect4067"
     width="308.58582"
     height="372.43115"
     x="-10.64089"
     y="-6.0805087" />
  <g
     id="g4083">
    <path
       inkscape:connector-curvature="0"
       id="path4064"
       d="m 203.0837,252.8754 c -3.19201,-3.91852 -7.78108,-11.05121 -10.19791,-15.8504 -6.02737,-11.96875 -8.65278,-15.22249 -15.96225,-19.78243 C 166.39886,210.67689 163.75,207.6655 163.75,202.26614 c 0,-2.62138 0.6056,-4.76614 1.34577,-4.76614 0.77478,0 1.1869,-1.84394 0.97135,-4.34594 -0.27232,-3.16082 0.29808,-4.85434 2.09173,-6.21025 1.35639,-1.02536 1.83491,-1.88219 1.06341,-1.90406 -0.77151,-0.0219 -1.77309,-2.35579 -2.22573,-5.18649 -0.97944,-6.12505 1.54847,-9.0019 7.05349,-8.02719 2.72617,0.4827 3.98567,-0.15186 6.17258,-3.10982 2.00549,-2.71256 3.77996,-3.71625 6.57017,-3.71625 3.13837,0 5.55759,1.7918 13.51493,10.00979 5.33076,5.50537 9.6923,9.41832 9.6923,8.69543 0,-0.72288 1.35366,-2.7742 3.00812,-4.55846 l 3.00814,-3.24414 3.31065,3.31065 c 3.57039,3.5704 6.71844,10.05114 8.27565,17.03673 0.88148,3.95425 7.73193,27.30075 15.4965,52.8125 l 2.94843,9.6875 -3.64874,0 c -2.92684,0 -3.64875,-0.54451 -3.64875,-2.75214 0,-9.26836 -9.54525,-40.10005 -14.81764,-47.86177 -7.1697,-10.55488 -35.795,-39.31817 -39.17109,-39.35994 -4.7415,-0.0586 -3.2536,3.10551 6.06388,12.89556 5.38991,5.66328 11.66292,12.94769 13.94002,16.18758 3.49255,4.96928 3.78585,5.88238 1.875,5.83746 -1.24585,-0.0293 -4.47037,-2.91116 -7.16562,-6.40418 -7.34899,-9.52422 -28.08075,-25.35303 -30.29976,-23.13402 -1.54675,1.54675 2.6805,6.7137 11.45021,13.99554 C 192.74594,198.21859 202.91747,210 199.48575,210 c -0.28283,0 -6.04845,-4.49576 -12.8125,-9.99059 C 174.35239,190.00046 170,187.97984 170,192.26874 c 0,1.35635 4.52427,5.89133 11.25,11.27663 9.9687,7.98197 13.1209,11.45463 10.39755,11.45463 -0.46885,0 -5.56998,-3.13911 -11.33585,-6.9758 -5.76586,-3.83668 -11.28851,-6.66684 -12.27255,-6.28923 -3.1862,1.22267 -1.90578,4.27234 3.30489,7.87147 19.84737,13.70903 19.79967,13.66117 25.05793,25.14083 3.60807,7.87704 6.9359,12.86044 12.06365,18.06523 6.74429,6.84561 6.92274,7.1875 3.75143,7.1875 -2.53798,0 -4.70968,-1.69406 -9.13335,-7.1246 z m 19.21176,-57.72254 c 1.37771,-0.87329 1.30878,-2.12421 -0.39336,-7.13771 -3.2529,-9.58123 -5.33295,-11.28288 -7.65838,-6.2652 -1.05111,2.26804 -0.96808,3.96316 0.34737,7.09167 2.93303,6.97565 4.55721,8.30613 7.70437,6.31124 z M 119.60045,183.70401 c -1.95399,-1.53701 -2.95053,-3.29171 -2.51461,-4.42771 0.59739,-1.55676 2.47643,-1.74311 10.88062,-1.07904 11.49355,0.90819 11.69173,0.8199 28.51001,-12.70162 8.87208,-7.13293 12.42524,-12.88449 19.06529,-30.8612 3.38995,-9.17769 3.52524,-8.86967 -4.47745,-10.1949 C 165.4582,123.51118 160,119.40703 160,116.12004 c 0,-3.34349 2.77326,-4.13627 8.20195,-2.34464 3.72624,1.22976 4.87306,1.1853 6.30272,-0.24436 1.49689,-1.49689 1.2468,-2.34763 -1.7429,-5.92881 l -3.49057,-4.18114 -7.26996,2.11343 c -3.99848,1.16239 -7.46992,1.91347 -7.71432,1.66907 -1.43658,-1.43658 4.87313,-8.395037 8.78218,-9.685142 3.87885,-1.280134 5.19603,-1.151153 9.37898,0.918404 4.86234,2.405708 4.86695,2.405538 5.56708,-0.202078 0.38539,-1.435377 0.70839,-8.131129 0.71778,-14.87945 0.01,-6.748323 0.59935,-13.357698 1.31103,-14.6875 1.4713,-2.749139 4.34022,-3.173965 5.77613,-0.855324 0.5322,0.859375 0.79471,14.749536 0.58335,30.867024 -0.4069,31.027966 -1.4936,37.948576 -7.95211,50.642566 -5.21954,10.2588 -14.2519,21.92791 -16.97309,21.92791 -0.61945,0 -3.75636,2.3151 -6.97093,5.14466 -10.08732,8.87923 -28.11268,12.65366 -34.90687,7.30935 z M 63.296576,138.23494 C 53.6986,134.68225 46.244405,124.40291 46.256971,114.7373 46.267381,106.72961 48.202457,101.1961 53.773504,93.24317 58.468675,86.54059 59.138645,83.75 56.05264,83.75 52.682831,83.75 45.795405,79.198369 43.048669,75.156184 38.746204,68.824537 38.790966,57.917076 43.155356,49.158886 47.717655,40.003544 57.124406,30.63267 63.192381,29.198281 67.17213,28.257521 68.686404,27.014976 71.031155,22.766137 73.206341,18.824562 74.699769,17.5 76.968655,17.5 c 3.599846,0 3.550785,-0.286761 0.989714,5.784845 -3.013392,7.143934 -2.852482,20.160574 0.315633,25.532795 2.202288,3.734454 3.090956,4.252073 6.681398,3.891686 3.601193,-0.361466 4.016183,-0.11695 3.182182,1.875 -2.284306,5.455898 -2.159289,8.090327 0.519227,10.941476 3.11051,3.310987 2.727345,6.985649 -1.540424,14.773092 C 82.290032,89.105592 75.376821,87.81218 79.898722,78.94852 82.625564,73.603469 83.215681,68.065405 81.369061,65.149845 80.557603,63.868664 78.793233,63.647106 74.513203,64.288936 69.26463,65.076009 68.75,64.925676 68.75,62.605407 c 0,-1.401276 1.400958,-3.465717 3.113237,-4.587646 l 3.113238,-2.039872 -2.560771,-3.596272 C 71.00728,50.403669 69.40373,45.93105 68.852259,42.442465 67.288701,32.551464 65.736914,32.061813 59.130947,39.375 47.821054,51.895709 44.074381,66.688017 50.568181,73.181819 53.080117,75.693754 54.879694,76.25 60.49441,76.25 c 7.488271,0 7.571494,0.05539 8.817611,5.867834 0.784645,3.659932 0.232299,4.622386 -6.624869,11.54373 -9.450703,9.539156 -11.134742,14.090416 -8.333878,22.523026 4.860814,14.63453 14.249562,19.44615 26.818577,13.74415 C 87.442029,127.08425 90,127.47609 90,131.28106 c 0,5.57983 -17.854418,10.22933 -26.703424,6.95388 z m 63.521614,-15.05312 c -1.6875,-1.6875 -3.06819,-4.52839 -3.06819,-6.31309 0,-3.04774 0.36077,-3.24059 5.9375,-3.17394 3.26562,0.039 7.90625,-0.0732 10.3125,-0.24941 3.88661,-0.28461 4.41735,0.0447 4.75437,2.94973 0.27858,2.40118 -0.66032,4.14496 -3.5334,6.5625 -5.00222,4.20909 -10.3349,4.2921 -14.40278,0.22421 z M 120,107.23117 C 120,100.55821 125.03644,95 131.08299,95 c 5.46271,0 10.16701,2.924684 10.16701,6.32088 0,2.58707 -4.20949,3.46947 -5.625,1.17912 -1.54349,-2.49742 -5.017,-1.14044 -10.26519,4.01026 L 120,111.77052 l 0,-4.53935 z M 111.62411,81.961048 C 105.94841,79.423789 96.25,68.952746 96.25,65.362142 c 0,-4.954737 3.78401,-5.100701 7.4114,-0.285886 C 109.69388,73.083454 112.1974,75 116.62445,75 c 4.90571,0 8.36744,-3.134144 8.39261,-7.598426 0.0456,-8.077638 4.46854,-11.784038 7.43896,-6.23375 2.75853,5.154355 1.5294,9.981551 -4.01852,15.782161 -6.02179,6.296051 -10.772,7.711802 -16.81339,5.011063 z m 39.10388,-11.106169 c -1.23742,-0.904818 -2.04055,-2.732943 -1.78477,-4.0625 0.36462,-1.895153 1.90068,-2.59303 7.11044,-3.230464 13.255,-1.621802 21.11281,-15.888334 16.32143,-29.632921 -1.57032,-4.504605 -3.97777,-5.413053 -13.00009,-4.905553 -5.50269,0.309523 -6.29421,0.04238 -6.61973,-2.234222 -0.65953,-4.612564 10.05399,-7.260759 17.66592,-4.366709 11.7826,4.479738 15.01919,23.183351 6.63623,38.349539 -4.67973,8.466422 -20.33902,14.46313 -26.32943,10.08283 z M 107.22316,42.29448 c -0.29259,-0.87778 0.44481,-4.706254 1.63868,-8.507721 l 2.17067,-6.911759 -4.51994,-4.6875 c -4.46267,-4.62811 -4.48109,-4.690009 -1.45376,-4.885555 6.04067,-0.390186 8.10723,0.255336 10.87869,3.398133 3.82713,4.339907 3.80797,12.449501 -0.043,18.177568 -2.93381,4.363913 -7.72623,6.252295 -8.67139,3.416834 z M 127.5,39.394149 c 0,-1.200627 2.18621,-4.22735 4.85824,-6.726053 2.67203,-2.498702 6.35778,-6.969284 8.19057,-9.934623 6.04049,-9.773194 10.89156,-4.08035 5.68608,6.672743 -3.12714,6.459796 -8.12157,10.448585 -14.34802,11.458998 C 128.27395,41.451511 127.5,41.191981 127.5,39.394149 Z"
       style="fill:#000000" />
    <g
       transform="translate(3.7288138e-8,15.201271)"
       id="text4066"
       style="font-size:50px;font-style:normal;font-variant:normal;font-weight:normal;font-stretch:normal;text-align:start;line-height:125%;letter-spacing:0px;word-spacing:0px;writing-mode:lr-tb;text-anchor:start;fill:#000000;fill-opacity:1;stroke:none;font-family:Comfortaa;-inkscape-font-specification:Comfortaa">
      <path
         inkscape:connector-curvature="0"
         id="path4071"
         d="m 46.027544,309.23993 q 0.805664,0 1.367188,0.58594 0.585937,0.56152 0.585937,1.36718 0,0.80567 -0.585937,1.39161 -0.561524,0.56152 -1.367188,0.56152 -9.765625,0 -9.765625,-9.76563 l 0,-13.67187 -1.953125,0 q -0.805664,0 -1.391602,-0.56152 -0.561523,-0.58594 -0.561523,-1.39161 0,-0.80566 0.561523,-1.36718 0.585938,-0.58594 1.391602,-0.58594 l 1.953125,0 0,-9.76563 q 0,-0.80566 0.561523,-1.36718 0.585938,-0.58594 1.391602,-0.58594 0.805664,0 1.367188,0.58594 0.585937,0.56152 0.585937,1.36718 l 0,9.76563 3.930664,0 q 0.805664,0 1.367188,0.58594 0.585937,0.56152 0.585937,1.36718 0,0.80567 -0.585937,1.39161 -0.561524,0.56152 -1.367188,0.56152 l -3.930664,0 0,13.67187 q 0,5.85938 5.859375,5.85938 z" />
      <path
         inkscape:connector-curvature="0"
         id="path4073"
         d="m 51.886919,276.0368 q 0,-0.80566 0.561523,-1.36718 0.585938,-0.58594 1.391602,-0.58594 0.805664,0 1.367188,0.58594 0.585937,0.56152 0.585937,1.36718 l 0,13.30567 q 3.662109,-3.54004 8.789063,-3.54004 5.249023,0 8.95996,3.73535 3.735352,3.71094 3.735352,8.95996 l 0,12.69531 q 0,0.80567 -0.585937,1.39161 -0.561524,0.56152 -1.367188,0.56152 -0.805664,0 -1.391602,-0.56152 -0.561523,-0.58594 -0.561523,-1.39161 l 0,-12.69531 q 0,-3.63769 -2.587891,-6.20117 -2.563476,-2.58789 -6.201171,-2.58789 -3.637696,0 -6.225586,2.58789 -2.563477,2.56348 -2.563477,6.20117 l 0,12.69531 q 0,0.80567 -0.585937,1.39161 -0.561524,0.56152 -1.367188,0.56152 -0.805664,0 -1.391602,-0.56152 -0.561523,-0.58594 -0.561523,-1.39161 l 0,-35.15625 z" />
      <path
         inkscape:connector-curvature="0"
         id="path4075"
         d="m 94.855669,289.70868 q -4.052734,0 -6.90918,2.85644 -2.856445,2.85645 -2.856445,6.90918 0,4.05274 2.856445,6.90918 2.856446,2.85645 6.90918,2.85645 4.052734,0 6.909181,-2.85645 2.85644,-2.85644 2.85644,-6.90918 0,-4.05273 -2.85644,-6.90918 -2.856447,-2.85644 -6.909181,-2.85644 z m 9.765621,19.33594 q -4.10156,4.10156 -9.765621,4.10156 -5.664062,0 -9.667969,-4.00391 -4.003906,-4.0039 -4.003906,-9.66797 0,-5.66406 4.003906,-9.66796 4.003907,-4.00391 9.667969,-4.00391 5.664061,0 9.667971,4.00391 4.0039,4.0039 4.0039,9.66796 l 0,11.71875 q 0,0.80567 -0.58593,1.39161 -0.56153,0.56152 -1.36719,0.56152 -0.80567,0 -1.3916,-0.56152 -0.56153,-0.58594 -0.56153,-1.39161 l 0,-2.14843 z" />
      <path
         inkscape:connector-curvature="0"
         id="path4077"
         d="m 112.43379,287.75555 q 0,-0.80566 0.56153,-1.36718 0.58593,-0.58594 1.3916,-0.58594 0.80566,0 1.36719,0.58594 0.58593,0.56152 0.58593,1.36718 l 0,1.58692 q 3.66211,-3.54004 8.78907,-3.54004 5.24902,0 8.95996,3.73535 3.73535,3.71094 3.73535,8.95996 l 0,12.69531 q 0,0.80567 -0.58594,1.39161 -0.56152,0.56152 -1.36719,0.56152 -0.80566,0 -1.3916,-0.56152 -0.56152,-0.58594 -0.56152,-1.39161 l 0,-12.69531 q 0,-3.63769 -2.58789,-6.20117 -2.56348,-2.58789 -6.20117,-2.58789 -3.6377,0 -6.22559,2.58789 -2.56348,2.56348 -2.56348,6.20117 l 0,12.69531 q 0,0.80567 -0.58593,1.39161 -0.56153,0.56152 -1.36719,0.56152 -0.80567,0 -1.3916,-0.56152 -0.56153,-0.58594 -0.56153,-1.39161 l 0,-23.4375 z" />
      <path
         inkscape:connector-curvature="0"
         id="path4079"
         d="m 145.63692,296.83759 16.52832,-10.74219 q 0.46387,-0.29297 1.0498,-0.29297 0.80567,0 1.36719,0.58594 0.58594,0.56152 0.58594,1.36718 0,0.80567 -0.56152,1.36719 -0.14649,0.14649 -0.26856,0.24414 l -11.32812,7.37305 11.62109,13.08594 q 0.53711,0.58593 0.53711,1.36718 0,0.80567 -0.58594,1.39161 -0.56152,0.56152 -1.36719,0.56152 -0.80566,0 -1.41601,-0.58594 l -12.13379,-13.67187 -4.02832,2.6123 0,9.69238 q 0,0.80567 -0.58594,1.39161 -0.56152,0.56152 -1.36719,0.56152 -0.80566,0 -1.3916,-0.56152 -0.56152,-0.58594 -0.56152,-1.39161 l 0,-35.15625 q 0,-0.80566 0.56152,-1.36718 0.58594,-0.58594 1.3916,-0.58594 0.80567,0 1.36719,0.58594 0.58594,0.56152 0.58594,1.36718 l 0,20.80079 z" />
      <path
         inkscape:connector-curvature="0"
         id="path4081"
         d="m 173.9084,299.4743 q -2.22168,-0.83007 -3.10058,-1.73339 -1.7334,-1.70899 -1.7334,-4.12598 0,-2.41699 1.80664,-4.22363 3.51562,-3.58887 9.17969,-3.58887 6.12793,0 10.49804,4.90723 0.39063,0.46386 0.36621,1.14746 0,0.80566 -0.58593,1.3916 -0.56153,0.56152 -1.36719,0.56152 -0.80566,0 -1.29395,-0.51269 -0.48828,-0.5127 -0.708,-0.73243 -2.85645,-2.85644 -6.90918,-2.85644 -4.05274,0 -6.46973,2.53906 -0.58594,0.70801 -0.58594,1.68457 0.0733,1.14746 1.19629,1.5625 l 12.01172,3.97949 q 2.22168,0.83008 3.10059,1.7334 1.7334,1.70899 1.7334,4.12598 0,2.41699 -1.80665,4.22363 -3.51562,3.58887 -9.17968,3.58887 -6.15235,0 -10.49805,-4.90723 -0.36621,-0.51269 -0.36621,-1.14746 0,-0.80566 0.56152,-1.36719 0.58594,-0.58593 1.3916,-0.58593 0.80567,0 1.29395,0.51269 0.48828,0.5127 0.70801,0.73242 2.85644,2.85645 6.90918,2.85645 4.05273,0 6.46972,-2.53906 0.58594,-0.70801 0.58594,-1.68457 -0.0732,-1.14746 -1.19629,-1.5625 l -12.01172,-3.9795 z" />
    </g>
  </g>
</svg>
