<?xml version="1.0" encoding="UTF-8" standalone="no"?>
<!-- Created with Inkscape (http://www.inkscape.org/) -->

<svg
   xmlns:dc="http://purl.org/dc/elements/1.1/"
   xmlns:cc="http://creativecommons.org/ns#"
   xmlns:rdf="http://www.w3.org/1999/02/22-rdf-syntax-ns#"
   xmlns:svg="http://www.w3.org/2000/svg"
   xmlns="http://www.w3.org/2000/svg"
   xmlns:sodipodi="http://sodipodi.sourceforge.net/DTD/sodipodi-0.dtd"
   xmlns:inkscape="http://www.inkscape.org/namespaces/inkscape"
   id="svg2"
   version="1.1"
   inkscape:version="0.48+devel r12701"
   width="352.75"
   height="431.7081"
   viewBox="0 0 352.75 431.7081"
   sodipodi:docname="ASL_bored.svg">

  <metadata
     id="metadata8">
    <rdf:RDF>
      <cc:Work
         rdf:about="">
        <dc:format>image/svg+xml</dc:format>
        <dc:type
           rdf:resource="http://purl.org/dc/dcmitype/StillImage" />
        <dc:title>ASL word</dc:title>
        <dc:date>11/03/2013</dc:date>
        <dc:creator>
          <cc:Agent>
            <dc:title>Paul Sherman</dc:title>
          </cc:Agent>
        </dc:creator>
        <dc:rights>
          <cc:Agent>
            <dc:title>PD</dc:title>
          </cc:Agent>
        </dc:rights>
        <dc:publisher>
          <cc:Agent>
            <dc:title>WPClipart</dc:title>
          </cc:Agent>
        </dc:publisher>
        <dc:subject>
          <rdf:Bag>
            <rdf:li>ASL</rdf:li>
            <rdf:li>sign</rdf:li>
            <rdf:li>language</rdf:li>
            <rdf:li>bathroom</rdf:li>
          </rdf:Bag>
        </dc:subject>
        <cc:license
           rdf:resource="http://creativecommons.org/publicdomain/zero/1.0/" />
      </cc:Work>
      <cc:License
         rdf:about="http://creativecommons.org/publicdomain/zero/1.0/">
        <cc:permits
           rdf:resource="http://creativecommons.org/ns#Reproduction" />
        <cc:permits
           rdf:resource="http://creativecommons.org/ns#Distribution" />
        <cc:permits
           rdf:resource="http://creativecommons.org/ns#DerivativeWorks" />
      </cc:License>
    </rdf:RDF>
  </metadata>
  <defs
     id="defs6" />
  <sodipodi:namedview
     pagecolor="#ffffff"
     bordercolor="#666666"
     borderopacity="1"
     objecttolerance="10"
     gridtolerance="10"
     guidetolerance="10"
     inkscape:pageopacity="0"
     inkscape:pageshadow="2"
     inkscape:window-width="1233"
     inkscape:window-height="989"
     id="namedview4"
     showgrid="false"
     inkscape:zoom="0.98603159"
     inkscape:cx="191.66949"
     inkscape:cy="260.46503"
     inkscape:window-x="259"
     inkscape:window-y="-3"
     inkscape:window-maximized="0"
     inkscape:current-layer="svg2"
     fit-margin-top="12"
     fit-margin-left="12"
     fit-margin-right="12"
     fit-margin-bottom="12" />
  <rect
     style="fill:#ffffff;fill-opacity:1;stroke:none"
     id="rect4196"
     width="367.1282"
     height="453.33234"
     x="-5.0708318"
     y="-7.4259067" />
  <g
     id="g4166"
     transform="translate(12,12)">
    <g
       id="g4094">
      <path
         inkscape:connector-curvature="0"
         id="path4098"
         d="M 0,194.375 0,0 164.375,0 328.75,0 l 0,194.375 0,194.375 -164.375,0 L 0,388.75 0,194.375 Z"
         style="fill:#f8f8f8" />
      <path
         inkscape:connector-curvature="0"
         id="path4096"
         d="m 38.333334,381.66666 c -1.578437,-1.57843 -0.825699,-5.51484 2.194156,-11.47424 1.665119,-3.28595 3.915119,-6.71112 5,-7.6115 1.08488,-0.90037 1.97251,-2.39212 1.97251,-3.315 0,-0.92288 1.125,-2.28004 2.5,-3.01592 1.375,-0.73588 2.5,-2.35736 2.5,-3.60329 0,-2.39647 27.211156,-30.24201 32.511353,-33.26931 4.048825,-2.31256 7.940063,-4.09049 15.613647,-7.13399 6.09386,-2.41695 7.40894,-3.06415 17.23023,-8.47959 5.10073,-2.81252 9.26368,-9.6965 7.9438,-13.13606 -0.66498,-1.73289 -2.06009,-1.99459 -7.98984,-1.49877 -3.9513,0.33037 -9.71544,1.26466 -12.80919,2.07617 -10.238049,2.68552 -13.965744,2.96546 -15.124689,1.13589 -0.597866,-0.94382 -1.095642,-2.12496 -1.10617,-2.62474 -0.03529,-1.67522 6.281427,-5.0595 11.594339,-6.21182 2.89384,-0.62765 7.79277,-1.70931 10.88652,-2.40368 3.09375,-0.69437 7.875,-1.5683 10.625,-1.94205 6.75886,-0.91861 9.375,-3.49182 9.375,-9.2212 0,-4.54287 -0.15011,-4.69726 -5.3125,-5.46396 -2.92187,-0.43394 -6.4375,-0.75519 -7.8125,-0.7139 -1.375,0.0412 -5.875,0.19664 -10,0.3452 l -7.5,0.2701 0,-4.375 0,-4.375 14.92217,-0.3542 c 8.37816,-0.19886 15.64152,-0.95121 16.56249,-1.71555 2.37981,-1.97508 2.01038,-7.8329 -0.64559,-10.23651 -1.95413,-1.76848 -5.65126,-2.06874 -25.47194,-2.06874 -19.630234,0 -23.437997,-0.30361 -24.829089,-1.97978 -1.19586,-1.44092 -1.283772,-2.54665 -0.322992,-4.0625 1.41346,-2.23006 7.484434,-2.47102 19.897941,-0.78977 l 6.36299,0.86179 11.02156,-11.38602 c 6.06185,-6.2623 13.88601,-13.16642 17.38701,-15.3425 19.69255,-12.24005 37.09804,-24.42098 37.72698,-26.40261 0.79741,-2.51242 -1.42051,-5.89861 -3.86353,-5.89861 -1.52416,0 -11.04131,3.89927 -21.248,8.70552 -2.75,1.29497 -6.14181,2.67708 -7.53735,3.07138 -1.39554,0.3943 -5.59533,2.68705 -9.33285,5.095 -3.73753,2.40796 -7.69916,4.3781 -8.80363,4.3781 -4.46931,0 -27.206114,12.6918 -34.159904,19.06822 -1.683501,1.54373 -5.44149,4.49428 -8.351087,6.55678 -12.27713,8.70277 -18.960614,17.08252 -34.100494,42.75517 -6.63663,11.25372 -14.450036,22.49118 -27.563647,39.64282 -6.251285,8.17622 -7.838287,9.55516 -10.6250001,9.23196 -2.7763624,-0.322 -3.3337351,-1.07015 -3.6543198,-4.90516 -0.3368242,-4.02929 0.1084038,-4.81238 4.0625,-7.14535 C 10.501648,301.26337 12.5,299.5088 12.5,298.80539 c 0,-0.7034 2.671875,-4.35122 5.9375,-8.10625 11.011729,-12.662 14.113832,-17.25215 22.858975,-33.82414 2.176788,-4.125 5.78267,-9.46875 8.013071,-11.875 2.230401,-2.40625 5.951036,-7.1875 8.268079,-10.625 6.098001,-9.04683 11.151331,-14.26111 16.484875,-17.00994 2.578125,-1.32874 4.6875,-2.91137 4.6875,-3.517 0,-3.44566 49.00029,-29.85236 65.1289,-35.09855 3.85215,-1.25299 10.44549,-4.01547 14.65186,-6.13884 10.71153,-5.40716 16.24763,-5.24178 21.41155,0.6396 4.96264,5.65214 4.36254,10.21425 -2.25709,17.15878 -5.19345,5.44835 -14.50791,12.09095 -16.95431,12.09095 -0.90407,0 -2.98525,1.04546 -4.62484,2.32325 -1.63958,1.2778 -4.94982,3.32546 -7.35607,4.55037 -5.21684,2.65565 -10.22596,6.5144 -19.73845,15.20542 l -7.06408,6.45402 4.96377,0.898 c 7.21248,1.30483 9.02967,2.56268 11.938,8.26348 2.74666,5.38388 2.74967,5.92977 0.1574,28.55546 -1.23717,10.79821 -2.14432,13.33434 -5.39105,15.07194 -1.93912,1.03777 -2.08655,1.65878 -0.8601,3.62266 1.14138,1.82764 1.13848,3.12014 -0.0126,5.6466 -0.82106,1.80204 -1.49284,4.39737 -1.49284,5.76741 0,1.37004 -1.09786,4.64296 -2.43968,7.27315 -1.84332,3.6132 -3.75304,5.25623 -7.8125,6.72149 -2.95505,1.06661 -9.51683,3.41185 -14.58174,5.21164 -12.541473,4.45655 -14.613603,5.69296 -23.550528,14.05221 -4.267698,3.99185 -9.445935,8.5457 -11.507192,10.11968 -3.825709,2.92129 -9.760449,10.96908 -13.377363,18.14032 -1.109017,2.19885 -3.328272,5.40415 -4.931676,7.1229 -1.603404,1.71875 -4.09676,5.79688 -5.540791,9.0625 -2.028194,4.58669 -3.27576,5.9375 -5.483685,5.9375 -1.571995,0 -3.233174,-0.375 -3.691506,-0.83334 z M 185,277.4644 c -1.71875,-0.61725 -4.80046,-1.46724 -6.84825,-1.88888 -2.13998,-0.4406 -6.48465,-3.52798 -10.21696,-7.26031 -6.54663,-6.54662 -9.32749,-12.42251 -6.9869,-14.7631 1.69558,-1.69559 8.63146,1.90333 9.61001,4.98648 3.86105,12.16508 29.43877,13.97631 60.0671,4.25348 8.82221,-2.80057 18.43754,-12.28171 20.57926,-20.29207 0.6355,-2.37685 1.79047,-3.21893 4.82423,-3.51734 7.65042,-0.75251 6.90695,6.37874 -1.67209,16.03828 -3.08353,3.47189 -5.6064,6.84676 -5.6064,7.49972 0,1.49149 -11.66969,7.48744 -17.5,8.9916 -2.40625,0.62079 -6.34375,1.72034 -8.75,2.44345 -9.67928,2.90878 -33.07505,5.0978 -37.5,3.50869 z M 281.25,258.75 c -1.03125,-0.66645 -3.3617,-1.22034 -5.17876,-1.23086 -4.68321,-0.0271 -5.20838,-2.93052 -1.22104,-6.75063 4.11226,-3.9398 4.32185,-3.95549 8.78261,-0.6575 l 3.53159,2.61101 4.8553,-2.48247 c 10.19285,-5.21151 14.59299,-12.01296 12.1965,-18.85259 -1.34554,-3.84024 -11.85495,-10.06399 -17.06793,-10.10776 -4.19681,-0.0352 -5.77777,-3.18541 -2.99516,-5.96803 1.6666,-1.6666 2.7749,-1.76368 6.73343,-0.58986 2.60615,0.77281 6.31858,1.73323 8.24985,2.13427 1.93125,0.40102 6.00937,3.03172 9.0625,5.84598 4.95995,4.57192 5.55111,5.70553 5.55111,10.64472 0,6.72421 -2.04392,10.85246 -8.33447,16.8337 -8.50951,8.09106 -19.09675,11.84571 -24.16553,8.57002 z m -8.70016,-49.31495 c -2.42507,-2.92202 -1.00799,-6.13764 3.08271,-6.99526 2.05835,-0.43155 6.67688,-2.28204 10.2634,-4.1122 3.58651,-1.83018 7.36381,-3.32759 8.394,-3.32759 2.84581,0 10.343,-7.1174 11.23318,-10.66412 0.79016,-3.14827 -0.95314,-7.91345 -3.52275,-9.62924 -0.75647,-0.5051 -5.36633,-0.92698 -10.24414,-0.9375 -9.92666,-0.0214 -13.989,-2.45352 -12.40968,-7.42956 1.83992,-5.79704 22.09996,-1.52417 30.25609,6.38106 3.38454,3.28044 4.14735,4.97394 4.14735,9.20752 0,8.99858 -6.8794,18.32864 -14.78384,20.0503 -5.79267,1.26171 -16.30847,5.70038 -17.82011,7.52179 -1.8916,2.27924 -6.68064,2.24292 -8.59621,-0.0652 z M 198.4375,199.04111 c -4.0214,-2.75382 -4.6875,-3.88024 -4.6875,-7.92677 0,-6.90725 2.22279,-7.29609 7.38742,-1.29233 5.1923,6.03593 9.05753,6.70025 12.08657,2.07734 1.43381,-2.18826 1.82837,-4.67103 1.3409,-8.4375 -2.37065,-18.31685 -3.30395,-23.60578 -4.5894,-26.00764 -1.70021,-3.1769 -1.00663,-12.63162 1.99109,-27.14171 0.71957,-3.48299 3.1782,-3.60561 6.16307,-0.30736 1.99594,2.20548 2.0809,3.06936 0.71026,7.22241 -1.72671,5.232 -1.20588,18.74204 1.19113,30.89745 0.81344,4.125 1.5611,12.25649 1.66147,18.06996 l 0.18249,10.56995 -4.24735,2.86755 c -5.72776,3.86701 -13.0072,3.64269 -19.19015,-0.59135 z m -48.88533,-50.2596 c -4.57995,-5.06946 -6.68462,-10.09241 -5.22108,-12.46046 1.0358,-1.67595 6.52011,-1.7276 7.54391,-0.071 1.32461,2.14327 8.88584,1.36957 12.21609,-1.25 4.03157,-3.17124 6.17961,-3.15396 9.10012,0.0731 1.89713,2.09629 2.04718,2.965 0.80966,4.6875 -0.83546,1.16288 -2.11758,3.23933 -2.84915,4.61433 -1.60768,3.02166 -11.66021,9.375 -14.83352,9.375 -1.25251,0 -4.29723,-2.23581 -6.76603,-4.96849 z m 143.42788,-1.8335 c -0.38031,-0.99109 -0.50044,-2.79397 -0.26695,-4.00641 0.42911,-2.22823 8.08999,-8.29391 13.1733,-10.43031 3.75237,-1.57704 7.8636,-10.05268 7.8636,-16.21149 0,-8.06126 -2.93401,-10.0498 -14.82813,-10.0498 -9.00901,0 -10.2162,0.30842 -14.48468,3.70058 -6.08643,4.83688 -9.24618,5.77615 -11.58005,3.44228 -2.58279,-2.5828 -0.96894,-7.13635 2.5396,-7.16561 1.50053,-0.0125 5.20353,-1.70001 8.22886,-3.75 5.07293,-3.43745 6.35611,-3.72725 16.50369,-3.72725 12.4119,0 16.76174,1.44653 19.33946,6.43128 2.31112,4.46924 2.32065,18.89979 0.0154,23.35764 -1.69958,3.28666 -10.24041,11.53127 -18.02364,17.39858 -4.28382,3.2293 -7.48275,3.61049 -8.48046,1.01051 z m -62.14671,-0.28135 C 230.375,146.20834 230,144.87794 230,143.71024 c 0,-1.1677 -1.16155,-3.59977 -2.58123,-5.4046 -1.41968,-1.80483 -2.197,-3.90321 -1.72736,-4.66309 0.81936,-1.32578 5.86443,-1.0401 11.18359,0.63326 2.29929,0.72334 4.69699,-0.41993 12.17012,-5.80294 1.81505,-1.30739 2.60889,-1.12442 4.85157,1.11825 3.38301,3.38303 2.5464,7.4283 -2.79424,13.51096 -3.64085,4.14669 -4.30625,4.39792 -11.64861,4.39792 -4.28294,0 -8.16218,-0.375 -8.6205,-0.83334 z M 69.106395,130.0404 c -2.29365,-1.39851 -5.378831,-5.13454 -7.1875,-8.70378 C 57.722515,113.05547 57.391815,97.562669 61.25,90 c 1.375,-2.695223 2.5,-5.55168 2.5,-6.347684 0,-0.796003 1.546875,-3.30315 3.4375,-5.571437 1.890625,-2.268288 4.429045,-5.551611 5.640933,-7.296276 3.317857,-4.776473 15.381938,-12.374344 18.218683,-11.473995 3.26888,1.037502 6.874151,5.246494 5.876564,6.860626 C 96.472007,66.902055 94.404885,67.5 92.330075,67.5 c -2.676311,0 -4.829579,1.180365 -7.410968,4.0625 -2.001221,2.234375 -5.264831,5.75 -7.252467,7.8125 -6.024049,6.250946 -11.365899,18.920747 -11.398449,27.03485 -0.02428,6.0515 2.915763,12.7668 6.993904,15.97466 4.342235,3.4156 20.554755,3.73533 27.260455,0.53761 3.58063,-1.70749 4.70231,-1.79162 6.29241,-0.47195 3.04767,2.52934 2.28925,6.05247 -1.75289,8.14273 -2.66937,1.38039 -7.588926,1.90581 -17.812495,1.90242 -11.823548,-0.004 -14.779244,-0.40383 -18.14318,-2.45492 z M 211.87821,110.31406 C 204.83687,106.43034 198.83,97.30483 198.7792,90.414357 c -0.0313,-4.232549 7.60927,-21.444622 10.25707,-23.106632 3.25763,-2.044781 14.44052,-5.016329 17.33732,-4.606919 2.24881,0.317828 3.00141,1.202466 3.00141,3.52799 0,2.62593 -0.73246,3.222853 -4.75743,3.877093 -5.64683,0.917866 -13.30116,7.816827 -16.47046,14.845067 -2.05512,4.55745 -2.03376,4.880784 0.67288,10.18622 1.53745,3.01365 3.69752,6.166504 4.80018,7.006344 3.32149,2.5298 14.31367,1.98327 17.97092,-0.89352 1.74802,-1.375 3.77967,-2.5 4.51476,-2.5 2.05944,0 5.29141,5.66177 4.46352,7.8192 -0.7209,1.87865 -2.24982,2.4487 -12.44437,4.63978 -2.75,0.59105 -6.125,1.40672 -7.5,1.8126 -1.52875,0.45127 -4.92688,-0.60061 -8.74679,-2.70752 z M 275.25,94.75 c -2.58208,-2.582071 -1.70248,-4.367979 5.21459,-10.587516 7.02718,-6.318573 9.4181,-10.047773 12.76812,-19.915045 1.7174,-5.058505 1.78031,-6.70715 0.42106,-11.03473 -0.87888,-2.79824 -2.42897,-6.072084 -3.44461,-7.275209 -2.49491,-2.955442 -9.1312,-2.788242 -15.35492,0.386863 -6.20412,3.165103 -10.33654,2.803659 -10.87068,-0.950805 -0.90955,-6.393327 19.92978,-11.843228 29.17636,-7.630202 3.63995,1.65847 6.8165,6.852656 6.88438,11.257069 0.0244,1.581016 0.81607,4.268755 1.75936,5.972754 1.45796,2.633711 1.45133,3.60823 -0.0442,6.500425 -0.96766,1.871235 -1.76309,5.539555 -1.76761,8.151821 -0.01,5.920915 -2.19674,9.190311 -12.65105,18.916931 C 278.61178,96.663697 277.65495,97.15495 275.25,94.75 Z M 128.125,92.307145 c -1.375,-0.751759 -4.82556,-3.873559 -7.66791,-6.937333 l -5.16792,-5.570498 0.67529,-10.837157 c 0.69842,-11.208312 1.72379,-13.708065 8.93169,-21.774657 5.22185,-5.843938 13.85385,-3.384193 13.85385,3.947745 0,2.465304 -0.45639,2.713152 -3.68873,2.003215 -4.36366,-0.958424 -7.01763,1.512789 -9.60477,8.943365 -3.59203,10.316766 -1.68896,17.351301 6.01075,22.21826 3.06064,1.934612 3.66102,1.94778 7.12542,0.156269 C 144.68376,81.306535 150,82.558788 150,87.143372 c 0,4.902774 -15.61181,8.588069 -21.875,5.163773 z m 49.2306,-5.751226 c -1.79816,-1.199505 -5.58349,-3.727558 -8.41182,-5.617893 -10.05984,-6.723554 -13.63113,-20.252322 -8.20673,-31.088815 1.59015,-3.176682 3.90295,-6.135492 5.13956,-6.575131 1.23661,-0.439639 4.46733,-2.161065 7.17935,-3.825393 3.92594,-2.409278 5.45459,-2.757028 7.5,-1.706163 3.94008,2.024281 8.19404,6.249978 8.19404,8.1396 0,2.715092 -3.63844,3.356312 -6.14956,1.08377 -1.53927,-1.393008 -3.36422,-1.821828 -5.48645,-1.289182 -5.33634,1.339335 -6.7387,3.738852 -9.18059,15.708494 C 166.36579,69.069281 176.57836,80 185.3252,80 c 4.94519,0 6.3274,2.53533 3.19816,5.86625 -3.23057,3.438779 -6.72325,3.654471 -11.16776,0.689669 z m 63.38051,-26.092108 c -0.74431,-1.939659 -0.093,-4.706435 3.79708,-16.130602 2.42592,-7.124243 2.15735,-10.236848 -1.40827,-16.321104 -2.56415,-4.37539 -4.40302,-5.810679 -10.24483,-7.996383 -8.09369,-3.028238 -11.02938,-2.661596 -16.66619,2.081475 -4.17814,3.515667 -6.4352,3.217523 -9.23418,-1.219781 -1.81943,-2.88442 0.86774,-5.306184 9.31283,-8.392968 7.90166,-2.8881569 11.4253,-3.0569131 17.45745,-0.836083 13.42891,4.94406 20.83697,14.692839 19.53891,25.712573 C 250.63594,59.883004 249.70599,62.5 244.35568,62.5 c -1.56102,0 -3.18982,-0.916285 -3.61957,-2.036189 z M 197.13606,42.969395 c -0.48733,-0.487334 -0.92171,-2.339186 -0.96529,-4.115229 -0.13525,-5.512835 -6.44711,-16.823042 -9.9362,-17.80465 -1.71026,-0.48116 -5.38137,-1.527456 -8.15801,-2.325102 -12.14763,-3.489655 -41.89022,2.645227 -46.43237,9.577416 -1.06244,1.621494 -2.59662,2.94817 -3.40927,2.94817 -0.81266,0 -3.69813,2.274077 -6.41217,5.053506 -5.38105,5.510694 -10.77609,6.430052 -11.62082,1.980278 -1.03261,-5.43947 20.99742,-23.252122 28.81902,-23.301975 3.16509,-0.02018 12.30962,-2.983191 15.68241,-5.0814227 3.6799,-2.2892891 30.29531,1.3126997 38.42164,5.1997797 5.48459,2.623454 10.68124,13.614326 10.29546,21.774834 -0.24686,5.221824 -0.7152,6.310082 -2.8469,6.615229 -1.40329,0.200875 -2.95016,-0.0335 -3.4375,-0.520834 z"
         style="fill:#272727" />
    </g>
    <g
       id="text4151"
       style="font-size:60px;font-style:normal;font-variant:normal;font-weight:500;font-stretch:normal;text-align:start;line-height:125%;letter-spacing:0px;word-spacing:0px;writing-mode:lr-tb;text-anchor:start;fill:#000000;fill-opacity:1;stroke:none;font-family:Sazanami Gothic;-inkscape-font-specification:Sazanami Gothic Medium">
      <path
         id="path4156"
         d="m 159.23723,407.7081 -5.03906,0 0,-44.64844 5.03906,0 0,16.34766 q 3.57422,-3.57422 7.08984,-3.57422 4.7461,0 8.14453,3.75 3.45703,3.75 3.45703,11.48437 0,6.5625 -3.39843,11.42579 -3.33985,4.86328 -9.49219,5.09765 -3.28125,0 -5.80078,-2.16797 l 0,2.28516 z m 5.80078,-4.86328 q 3.39844,-0.23438 5.44922,-3.39844 2.05078,-3.22266 2.05078,-8.37891 0,-6.32812 -2.10938,-8.3789 -2.10937,-2.10938 -4.6875,-2.10938 -2.87109,0 -4.51171,2.57813 -1.64063,2.51953 -1.99219,5.15625 l 0,10.66406 q 0.9375,1.875 2.16797,2.87109 1.23047,0.9961 3.63281,0.9961 z"
         inkscape:connector-curvature="0" />
      <path
         id="path4158"
         d="m 181.9716,391.41904 q 0,-5.97657 3.75,-10.78125 3.8086,-4.80469 9.66797,-4.80469 5.85938,0 9.66797,4.80469 3.80859,4.80468 3.80859,10.83984 0,6.50391 -3.80859,11.30859 -3.80859,4.80469 -9.66797,4.80469 -5.85937,0 -9.66797,-4.80469 -3.75,-4.80468 -3.75,-11.36718 z m 5.39063,0.0586 q 0,5.80078 2.46094,8.61328 2.46093,2.75391 5.5664,2.75391 3.10547,0 5.56641,-2.75391 2.51953,-2.8125 2.51953,-8.67187 0,-5.56641 -2.51953,-8.20313 -2.46094,-2.63672 -5.56641,-2.63672 -3.10547,0 -5.5664,2.63672 -2.46094,2.63672 -2.46094,8.26172 z"
         inkscape:connector-curvature="0" />
      <path
         id="path4160"
         d="m 221.58098,407.7081 -5.03906,0 0,-31.99219 5.03906,0 0,5.74219 q 0.82031,-1.23047 3.6914,-3.92578 2.92969,-2.75391 8.96485,-1.69922 l 0,5.80078 q -5.27344,-0.70312 -8.96485,1.81641 -3.6914,2.46093 -3.6914,8.3789 l 0,15.87891 z"
         inkscape:connector-curvature="0" />
      <path
         id="path4162"
         d="m 241.91301,391.7706 q 0,-6.32813 3.63281,-11.13281 3.69141,-4.80469 9.31641,-4.80469 5.39062,0 9.43359,3.69141 4.04297,3.6914 4.04297,11.89453 l -5.39062,0 -15.64454,0 0,0.41015 q 0,5.44922 2.46094,8.26172 2.46094,2.75391 5.33203,2.75391 2.8711,0 4.98047,-0.87891 2.16797,-0.9375 2.8711,-5.03906 l 5.625,0 q -0.58594,5.03906 -4.21875,7.85156 -3.63282,2.8125 -9.25782,2.8125 -5.625,0 -9.43359,-4.80469 -3.75,-4.80468 -3.75,-11.01562 z m 12.94922,-11.19141 q -2.8711,0 -4.6875,2.05078 -1.81641,2.05079 -2.40235,4.45313 l 14.70704,0 q -0.58594,-3.16406 -2.46094,-4.80469 -1.81641,-1.69922 -5.15625,-1.69922 z"
         inkscape:connector-curvature="0" />
      <path
         id="path4164"
         d="m 291.6591,407.7081 0,-2.28516 q -2.57812,2.16797 -6.26953,2.16797 -5.91797,-0.23437 -9.19922,-4.86328 -3.22265,-4.62891 -3.22265,-10.60547 0,-7.73437 3.39843,-12.01172 3.45704,-4.27734 7.73438,-4.27734 3.51562,0 7.55859,3.75 l 0,-16.52344 5.03907,0 0,44.64844 -5.03907,0 z m -7.4414,-27.12891 q -2.10938,0 -3.98438,2.63672 -1.875,2.57813 -1.875,8.90625 0,4.57031 1.69922,7.5586 1.69922,2.92968 5.33203,3.16406 2.40235,0 3.98438,-1.05469 1.64062,-1.11328 2.28515,-3.63281 l 0,-9.60938 q -0.41015,-2.8125 -2.51953,-5.39062 -2.05078,-2.57813 -4.92187,-2.57813 z"
         inkscape:connector-curvature="0" />
    </g>
  </g>
</svg>
