<?xml version="1.0" encoding="UTF-8" standalone="no"?>
<!-- Created with Inkscape (http://www.inkscape.org/) -->

<svg
   xmlns:dc="http://purl.org/dc/elements/1.1/"
   xmlns:cc="http://creativecommons.org/ns#"
   xmlns:rdf="http://www.w3.org/1999/02/22-rdf-syntax-ns#"
   xmlns:svg="http://www.w3.org/2000/svg"
   xmlns="http://www.w3.org/2000/svg"
   xmlns:sodipodi="http://sodipodi.sourceforge.net/DTD/sodipodi-0.dtd"
   xmlns:inkscape="http://www.inkscape.org/namespaces/inkscape"
   id="svg2"
   version="1.1"
   inkscape:version="0.48+devel r12701"
   width="418.75"
   height="468.75"
   viewBox="0 0 418.75 468.75"
   sodipodi:docname="ASL_stop.svg">

  <metadata
     id="metadata8">
    <rdf:RDF>
      <cc:Work
         rdf:about="">
        <dc:format>image/svg+xml</dc:format>
        <dc:type
           rdf:resource="http://purl.org/dc/dcmitype/StillImage" />
        <dc:title>ASL word</dc:title>
        <dc:date>11/03/2013</dc:date>
        <dc:creator>
          <cc:Agent>
            <dc:title>Paul Sherman</dc:title>
          </cc:Agent>
        </dc:creator>
        <dc:rights>
          <cc:Agent>
            <dc:title>PD</dc:title>
          </cc:Agent>
        </dc:rights>
        <dc:publisher>
          <cc:Agent>
            <dc:title>WPClipart</dc:title>
          </cc:Agent>
        </dc:publisher>
        <dc:subject>
          <rdf:Bag>
            <rdf:li>ASL</rdf:li>
            <rdf:li>sign</rdf:li>
            <rdf:li>language</rdf:li>
            <rdf:li>bathroom</rdf:li>
          </rdf:Bag>
        </dc:subject>
        <cc:license
           rdf:resource="http://creativecommons.org/publicdomain/zero/1.0/" />
      </cc:Work>
      <cc:License
         rdf:about="http://creativecommons.org/publicdomain/zero/1.0/">
        <cc:permits
           rdf:resource="http://creativecommons.org/ns#Reproduction" />
        <cc:permits
           rdf:resource="http://creativecommons.org/ns#Distribution" />
        <cc:permits
           rdf:resource="http://creativecommons.org/ns#DerivativeWorks" />
      </cc:License>
    </rdf:RDF>
  </metadata>
  <defs
     id="defs6">
    <marker
       inkscape:stockid="TriangleOutM"
       orient="auto"
       refY="0"
       refX="0"
       id="TriangleOutM-8"
       style="overflow:visible"
       inkscape:isstock="true">
      <path
         inkscape:connector-curvature="0"
         id="path4219-5"
         d="m 5.77,0 -8.65,5 0,-10 8.65,5 z"
         style="fill:#000000;fill-opacity:1;fill-rule:evenodd;stroke:#000000;stroke-width:1pt;stroke-opacity:1"
         transform="scale(0.4,0.4)" />
    </marker>
  </defs>
  <sodipodi:namedview
     pagecolor="#ffffff"
     bordercolor="#666666"
     borderopacity="1"
     objecttolerance="10"
     gridtolerance="10"
     guidetolerance="10"
     inkscape:pageopacity="0"
     inkscape:pageshadow="2"
     inkscape:window-width="1206"
     inkscape:window-height="990"
     id="namedview4"
     showgrid="false"
     inkscape:zoom="0.50346667"
     inkscape:cx="213.34746"
     inkscape:cy="234.375"
     inkscape:window-x="0"
     inkscape:window-y="0"
     inkscape:window-maximized="0"
     inkscape:current-layer="svg2" />
  <rect
     style="fill:#ffffff;fill-opacity:1;stroke:none"
     id="rect5298"
     width="440.94281"
     height="502.5159"
     x="-9.9311438"
     y="-13.903602" />
  <path
     style="fill:#000000"
     d="m 265,315.3997 c -1.03125,-0.35913 -7.21875,-3.10649 -13.75,-6.10526 -6.53125,-2.99878 -14.84682,-6.08618 -18.47905,-6.86088 -8.69724,-1.85499 -18.78298,-8.74221 -22.46513,-15.34068 -1.60145,-2.86983 -7.52852,-9.71788 -13.17127,-15.21788 -5.64275,-5.5 -12.68139,-12.95313 -15.6414,-16.5625 -6.09883,-7.43676 -7.15451,-7.67276 -18.66428,-4.1725 -4.28786,1.304 -10.75661,2.76196 -14.375,3.23991 -6.11831,0.80819 -10.68986,1.80864 -28.42106,6.21974 -3.76321,0.9362 -7.27883,1.43231 -7.8125,1.10249 -0.53367,-0.32983 -0.97031,-0.0487 -0.97031,0.62477 0,1.04216 -5.14902,2.83188 -9.375,3.25858 -1.30948,0.13222 -15.914418,4.81593 -19.6875,6.31366 C 80.667311,272.50259 80,272.17197 80,270.81538 c 0,-1.24247 1.595422,-2.2514 4.388806,-2.77544 2.413844,-0.45284 4.697041,-1.32208 5.073771,-1.93164 0.376732,-0.60956 1.945518,-1.1083 3.486194,-1.1083 1.540676,0 3.335604,-0.51758 3.988729,-1.15016 1.804407,-1.74768 15.013,-6.3178 25.97956,-8.98883 5.38564,-1.31173 10.75756,-2.9017 11.93763,-3.53324 1.18005,-0.63154 5.77362,-1.31408 10.20793,-1.51675 4.4343,-0.20265 9.46863,-1.01801 11.18738,-1.8119 12.27519,-5.66986 10.60677,-5.46126 41.875,-5.23552 25.17115,0.18172 31.50901,-0.14716 39.375,-2.0433 5.15625,-1.24294 11.34375,-2.54039 13.75,-2.88323 2.40625,-0.34282 5.21875,-1.32711 6.25,-2.18731 1.03125,-0.8602 3.5625,-1.95996 5.625,-2.44392 2.0625,-0.48397 8.53125,-2.74429 14.375,-5.02294 5.84375,-2.27866 14.98437,-5.74449 20.3125,-7.70183 5.32812,-1.95735 9.6875,-3.99132 9.6875,-4.51993 0,-0.52863 1.29375,-0.96114 2.875,-0.96114 1.58125,0 3.40937,-0.47055 4.0625,-1.04568 1.10184,-0.97023 9.63624,-4.73828 17.52628,-7.73807 3.26226,-1.24031 3.29722,-1.356 1.13246,-3.74804 -2.19024,-2.42019 -5.12964,-3.49705 -3.83714,-1.40575 0.36115,0.58435 -2.11317,0.79631 -5.4985,0.47103 -7.33689,-0.70498 -10.86036,0.28477 -9.05586,2.5438 0.6862,0.85905 0.80009,2.6601 0.25595,4.04771 -0.88171,2.24849 -1.12818,2.09652 -2.44965,-1.51043 -1.32029,-3.60372 -1.87071,-3.94403 -5.42766,-3.35583 -10.45615,1.72911 -20.87348,4.65841 -22.18458,6.2382 -1.87735,2.26207 -3.6488,2.24418 -3.6488,-0.0369 0,-3.28711 7.34625,-7.07521 19.66929,-10.14249 6.71314,-1.67093 13.89735,-3.04471 15.96491,-3.05283 3.31438,-0.013 39.90988,-11.3922 41.38661,-12.86894 0.31504,-0.31504 0.0281,-1.9111 -0.6375,-3.54681 -0.66566,-1.63573 -1.53408,-4.49264 -1.92985,-6.3487 l -0.71955,-3.37468 -5.61696,2.0818 c -4.40908,1.63416 -5.61695,2.69586 -5.61695,4.93721 0,2.93145 -1.74986,3.83039 -3.125,1.60538 -1.09571,-1.7729 -6.24196,-1.54805 -11.10856,0.48535 -3.08883,1.29059 -4.76045,3.21159 -6.52237,7.49531 -2.78268,6.76559 -4.8647,7.57812 -3.88071,1.51448 0.5861,-3.61174 0.28019,-4.3649 -2.02395,-4.98293 -7.88261,-2.11431 -24.71365,1.55808 -33.145,7.23195 l -5.98527,4.0278 -1.47983,-3.13572 c -0.8139,-1.72465 -1.05783,-3.48477 -0.54206,-3.91135 2.84885,-2.35631 18.60516,-7.62573 27.81275,-9.30147 10.60959,-1.9309 15,-4.54668 15,-8.93689 0,-0.95509 0.5625,-1.73653 1.25,-1.73653 0.6875,0 1.25,1.40625 1.25,3.125 0,2.81129 0.50077,3.125 4.98834,3.125 2.74358,0 10.19671,-1.96474 16.5625,-4.36607 6.36578,-2.40134 12.41791,-4.38798 13.44916,-4.41476 4.59455,-0.11924 6.875,-3.65121 6.875,-10.64786 0,-5.93517 -0.32187,-6.82912 -2.5,-6.94342 -5.24636,-0.27529 -11.43498,0.332 -16.25,1.59461 -2.75,0.72112 -9.21875,1.77976 -14.375,2.35255 -9.65488,1.07251 -20.93778,2.8487 -31.875,5.01785 -3.4375,0.68175 -10.75,1.46315 -16.25,1.73644 -5.5,0.2733 -12.10938,0.89085 -14.6875,1.37234 -6.02551,1.12531 -6.16954,-0.96355 -0.25979,-3.76792 5.32621,-2.52745 14.37194,-4.3493 26.19729,-5.27623 4.8125,-0.37724 9.3916,-1.20358 10.17579,-1.83631 1.36652,-1.1026 3.25025,-1.22492 12.94921,-0.84089 12.34681,0.48886 25,-3.83806 25,-8.54907 0,-0.92469 0.5625,-1.68126 1.25,-1.68126 0.6875,0 1.25,-0.61296 1.25,-1.36214 0,-0.74917 1.26562,-2.41796 2.8125,-3.70841 l 2.8125,-2.34628 -3.75,-0.19478 C 331.37154,129.14801 305,129.26408 305,130.06718 c 0,0.53597 0.48167,1.16198 1.0704,1.39116 0.58873,0.22916 1.36338,3.08854 1.72145,6.35416 0.49215,4.48834 0.23671,5.9375 -1.04659,5.9375 -1.82237,0 -3.15241,-3.91236 -3.52404,-10.36612 -0.18553,-3.22222 -0.70821,-3.92759 -2.66353,-3.59464 -6.34828,1.08098 -100.88382,-0.93201 -102.16498,-2.17545 -0.54026,-0.52435 -1.27655,-3.39466 -1.6362,-6.37847 -0.35966,-2.98381 -1.20304,-6.45115 -1.8742,-7.70521 -1.29209,-2.41431 0.549,-3.36605 1.99269,-1.03011 1.37851,2.23048 2.82622,1.32754 3.5073,-2.1875 1.54235,-7.96017 5.46186,-19.923571 7.54815,-23.039006 5.50722,-8.223864 9.84304,-26.023144 7.40175,-30.385484 -1.04195,-1.861874 -1.84074,-1.368239 -6.0005,3.708201 -3.87584,4.729945 -5.39009,5.742908 -7.87488,5.267913 -4.72128,-0.902533 -9.71568,1.832785 -13.90437,7.615097 -4.48311,6.188754 -4.66363,7.727819 -1.24926,10.651284 3.33922,2.859133 2.05796,4.729225 -2.60165,3.797301 C 180.89442,87.366386 180,87.647974 180,89.093139 c 0,1.048101 -1.96875,4.831189 -4.375,8.406861 -2.40625,3.57567 -4.39371,6.86657 -4.41659,7.31311 -0.067,1.30785 -4.25317,5.69729 -6.82006,7.15119 -3.5932,2.03522 -3.68447,4.13994 -0.23637,5.45091 4.25877,1.61918 5.91977,4.39415 1.94206,3.24452 -1.63298,-0.47195 -3.82099,-1.09059 -4.86228,-1.37475 -1.407,-0.38396 -2.49898,1.64797 -4.25181,7.91168 -4.0853,14.59871 -10.72256,34.13845 -13.33677,39.26274 -2.94065,5.76415 -7.78614,8.19529 -23.01818,11.54895 -5.5,1.21094 -11.40625,2.67384 -13.125,3.25089 -1.71875,0.57705 -5.65625,1.3436 -8.75,1.70345 -5.09192,0.59227 -18.56948,3.31175 -43.27419,8.7318 -4.894555,1.07383 -12.62893,2.33455 -17.1875,2.80158 C 31.228112,195.21941 30,195.05432 30,193.38191 c 0,-1.46747 3.156902,-2.66817 12.5,-4.75424 6.875,-1.53501 12.5,-3.23411 12.5,-3.7758 0,-0.54168 -2.390625,-2.10332 -5.3125,-3.47029 -6.051556,-2.83118 -10.430861,-6.05488 -9.495726,-6.99002 0.826236,-0.82623 12.215297,3.00114 15.398858,5.17489 1.356099,0.92595 4.001507,1.68355 5.878684,1.68355 1.877179,0 4.744085,0.60646 6.370904,1.34769 3.655426,1.66552 5.621105,1.31046 42.78478,-7.72832 20.14974,-4.90072 31.79734,-13.39618 33.9264,-24.74505 0.75929,-4.04732 0.42609,-4.7418 -3.93913,-8.21031 -13.55933,-10.77399 -28.20632,-23.48663 -27.67384,-24.01911 1.26228,-1.26228 11.75482,4.51705 19.43788,10.70646 13.37721,10.77655 16.45344,10.11589 19.44366,-4.17583 1.57987,-7.55097 2.54974,-9.35364 8.04007,-14.94367 C 166.76334,102.4532 175,89.606584 175,85.86827 c 0,-1.322091 2.73031,-5.573933 6.06738,-9.448536 C 186.20614,70.453184 197.5,48.990921 197.5,45.192024 197.5,43.142103 202.11192,40 205.12076,40 c 5.20786,0 11.92196,5.594051 14.35244,11.958165 3.06683,8.03038 1.45663,17.20931 -7.49911,42.748507 -4.4776,12.768838 -6.98445,21.835678 -6.73935,24.374998 L 205.625,123.125 230,123.88113 c 15.29566,0.47448 25.97931,1.3666 28.68205,2.39503 3.53196,1.34397 7.91846,1.35535 24.375,0.0632 11.03737,-0.86658 31.0367,-1.61138 44.44295,-1.65509 27.64429,-0.0901 30.0632,0.51866 35.99247,9.05853 2.14422,3.08829 5.5318,5.81404 9.25342,7.44556 10.86872,4.76477 12.58082,11.71873 5.37911,21.84809 -3.30854,4.65353 -4.375,7.41795 -4.375,11.34061 0,5.88092 -2.74109,9.13309 -10,11.86453 -9.2673,3.48717 -12.36666,6.24652 -16.31971,14.5294 -3.57218,7.48482 -3.76435,8.55294 -2.55414,14.19597 1.01539,4.73454 0.90604,7.44008 -0.48789,12.07174 -0.98812,3.28326 -1.67659,5.99581 -1.52992,6.0279 0.14666,0.0321 1.39166,0.67631 2.76666,1.43163 1.375,0.75531 6.4375,3.50262 11.25,6.10513 15.01401,8.11929 17.34701,9.63658 22.91276,14.90143 5.91928,5.59929 8.96224,10.48514 8.96224,14.39004 0,2.92661 -7.97953,18.17186 -11.66819,22.2926 -2.28744,2.55538 -3.64154,2.8125 -14.81194,2.8125 -11.07301,0 -12.51043,0.26701 -14.46961,2.68785 -6.07956,7.5122 -5.47572,7.31215 -22.07162,7.31215 -12.74395,0 -16.56502,0.44735 -21.35364,2.5 -3.20775,1.375 -7.4517,2.5 -9.43101,2.5 -1.97932,0 -7.97955,1.39907 -13.33387,3.10903 -9.66112,3.08542 -13.00401,3.54643 -16.61012,2.29067 z m 13.24346,-6.61896 c 4.05985,-1.3581 8.22529,-2.48624 9.25654,-2.50698 7.85833,-0.15802 16.25,-5.3439 16.25,-10.04214 0,-6.16773 -18.07803,-10.27201 -24.35328,-5.52895 -1.36306,1.03025 -5.01931,2.6452 -8.125,3.58878 -3.1057,0.94357 -6.6311,2.11169 -7.83422,2.5958 -1.29604,0.52151 -2.1875,0.31631 -2.1875,-0.50351 0,-0.76106 0.84375,-1.38374 1.875,-1.38374 1.03125,0 1.875,-0.5625 1.875,-1.25 0,-0.6875 0.73161,-1.25 1.6258,-1.25 3.85526,0 8.4249,-3.17705 8.0906,-5.625 -0.5648,-4.13586 -4.85989,-3.8835 -23.1539,1.36039 -1.71884,0.4927 -2.8125,0.26342 -2.8125,-0.5896 0,-0.76769 0.84375,-1.39579 1.875,-1.39579 1.03125,0 1.875,-0.45616 1.875,-1.01369 0,-0.55752 2.85216,-1.74467 6.33815,-2.63811 l 6.33815,-1.62441 -2.90065,-3.10566 c -2.40191,-2.57168 -3.76899,-3.00927 -7.95086,-2.54501 -2.77762,0.30837 -7.11568,1.54079 -9.64014,2.73872 -7.31163,3.4696 -8.44256,1.47503 -1.62743,-2.87016 8.95314,-5.70837 16.30268,-5.53409 24.82509,0.58864 6.07998,4.36804 13.20707,7.96968 15.77073,7.96968 2.42882,0 7.59696,-6.4223 7.59696,-9.44055 0,-3.05362 -0.0663,-3.07075 -8.75,-2.26367 -9.88048,0.91828 -11.67459,-0.68043 -3.71246,-3.30817 3.45626,-1.14067 4.63338,-2.06669 3.75,-2.95007 -2.42985,-2.42985 -1.2834,-4.03754 2.87922,-4.03754 3.07015,0 5.79915,-1.37646 10.36938,-5.23012 3.41144,-2.87658 8.03425,-5.59646 10.27291,-6.04419 3.21546,-0.64309 4.70908,-2.0255 7.11186,-6.58238 1.67285,-3.17257 4.79159,-8.09483 6.93053,-10.93837 4.32832,-5.75413 3.93587,-8.34109 -1.83939,-12.12519 -2.7689,-1.81426 -3.54819,-1.83263 -7.5106,-0.17702 -2.43164,1.016 -5.33859,1.84727 -6.45989,1.84727 -1.90568,0 -5.90457,1.51699 -14.91656,5.65863 -8.92751,4.10282 -49.70891,16.87051 -57.99041,18.15543 -4.98708,0.77377 -17.74551,1.21652 -28.35209,0.98389 -10.60657,-0.23262 -19.2842,-0.0376 -19.28359,0.43318 0.004,3.2079 3.45724,8.65086 8.28248,13.05512 13.91685,12.70269 22.08472,21.28099 24.18762,25.403 2.73678,5.36454 10.52739,10.06075 16.68992,10.06075 2.44393,0 4.75266,0.50019 5.13048,1.11153 0.37784,0.61133 2.14414,1.47725 3.92512,1.92425 2.79315,0.70103 7.1793,2.57407 24.28547,10.37071 4.15304,1.89287 3.59531,1.93359 11.99346,-0.87575 z M 268.75,273.19877 c 0,-0.30317 0.5625,-0.89887 1.25,-1.32377 0.6875,-0.4249 1.25,-0.17685 1.25,0.55122 0,0.72808 -0.5625,1.32378 -1.25,1.32378 -0.6875,0 -1.25,-0.24805 -1.25,-0.55123 z m 70.08217,25.50725 c 3.51837,-1.88297 2.97205,-5.48779 -1.62514,-10.72372 -7.48999,-8.53064 -19.05972,-10.576 -27.47554,-4.8573 -2.52938,1.71875 -4.97093,3.125 -5.42568,3.125 -0.80771,0 -0.0794,-4.02977 1.44759,-8.00888 0.60621,-1.57973 -0.10287,-1.98717 -3.43216,-1.97198 -4.8004,0.0219 -6.07198,0.73975 -8.26933,4.66836 -1.32772,2.3738 -1.27632,2.8125 0.32945,2.8125 4.41705,0 14.36864,7.9106 14.36864,11.42175 0,1.21221 0.98437,2.77738 2.1875,3.47812 2.8743,1.67413 24.78902,1.71824 27.89467,0.0561 z m 35.07287,-10.72132 c 3.89443,-3.52442 2.87987,-7.30139 -3.46041,-12.88234 -7.98879,-7.032 -13.87679,-8.68905 -20.40869,-5.74356 -2.74199,1.23646 -6.78562,3.85531 -8.98583,5.81965 -2.20021,1.96435 -4.18032,3.57155 -4.40025,3.57155 -0.9994,0 -0.24539,-2.48013 1.20795,-3.97321 0.88429,-0.90849 3.20153,-3.76178 5.1494,-6.34065 l 3.54159,-4.68887 -4.71577,-1.97037 c -4.29068,-1.79276 -5.17997,-1.7931 -9.86533,-0.004 -2.83226,1.08165 -7.94926,4.47498 -11.37112,7.54072 l -6.22158,5.57409 5.78485,0.056 c 7.78145,0.0754 14.3934,2.98618 20.72459,9.12376 4.76014,4.61459 6.06545,5.18575 13.75,6.01652 10.81996,1.16975 16.32022,0.57047 19.2706,-2.09956 z m 9.20497,-15.43749 c 0.42817,-1.34902 0.11613,-3.73965 -0.6935,-5.3125 -2.12489,-4.12815 -7.61087,-9.73471 -9.52537,-9.73471 -0.90263,0 -1.64114,-0.84375 -1.64114,-1.875 0,-2.92545 -2.75546,-2.22526 -7.88623,2.00395 -3.7574,3.09716 -4.41378,4.23086 -3.25674,5.625 0.797,0.96032 1.9201,1.74605 2.49578,1.74605 0.57569,0 4.58494,2.24465 8.90945,4.98812 8.92691,5.66324 10.50221,6.01084 11.59775,2.55909 z M 312.5,271.35634 c 0,-1.37658 2.66414,-4.51489 6.26984,-7.38579 l 6.26985,-4.99212 -4.22989,-2.61422 c -5.29511,-3.27256 -10.65454,-3.31686 -17.61583,-0.14564 -6.16296,2.80757 -13.30123,10.27758 -10.5238,11.01289 0.93765,0.24824 2.82983,0.97904 4.20483,1.62401 2.4575,1.15274 12.85092,4.52884 14.6875,4.77094 0.51562,0.068 0.9375,-0.95356 0.9375,-2.27007 z M 356.25,260 c 0,-1.375 0.44123,-2.5 0.98049,-2.5 1.32251,0 5.68665,-7.49954 4.85062,-8.33555 -0.36436,-0.36436 -3.90232,-2.27328 -7.86215,-4.24204 -7.884,-3.91977 -9.12544,-3.64634 -12.42639,2.73698 -3.20868,6.20492 -2.3886,7.93903 5.39493,11.40776 8.91941,3.97494 9.0625,3.98967 9.0625,0.93285 z m -18.12294,-12.07274 c 2.63555,-6.30775 2.35219,-8.61884 -1.42064,-11.58653 -5.22426,-4.10942 -9.15565,-3.2431 -14.51892,3.19935 -6.79934,8.16746 -6.1224,10.31212 4.23862,13.42866 6.6957,2.01402 9.20463,0.93304 11.70094,-5.04148 z m 1.3296,-23.50146 c 1.38035,-2.10668 1.74603,-4.2956 1.16191,-6.95506 -1.5151,-6.89818 -9.99203,-8.09728 -15.8476,-2.24172 l -2.66542,2.66543 5.14881,4.80277 c 5.96463,5.56375 9.37304,6.04658 12.2023,1.72858 z m 4.0152,-25.12168 c 3.00464,-2.10453 3.2605,-2.85958 1.76613,-5.21186 C 343.72216,191.70624 335,194.482 335,197.35042 c 0,4.35004 3.79961,5.22628 8.47186,1.9537 z m 24.40871,-20.58518 c 2.85333,-2.24443 3.0709,-2.95223 1.92129,-6.25 -1.46204,-4.194 -1.64602,-4.25327 -7.197,-2.31819 -4.20085,1.46442 -4.11386,1.11066 -2.65207,10.78675 0.19277,1.27602 5.30328,-0.15413 7.92778,-2.21856 z m 9.71369,-20.84187 c 1.00459,-2.64225 0.80091,-4.26696 -0.9402,-7.5 -1.22241,-2.26988 -2.93841,-4.21145 -3.81331,-4.31457 -4.13633,-0.48755 -4.7207,-0.31216 -4.78978,1.4375 -0.0408,1.03125 -0.50923,3.16816 -1.04116,4.7487 -2.42269,7.19867 7.90036,12.68805 10.58445,5.62837 z m -21.44825,-15.73592 c 4.39273,-0.387 4.62459,-3.07501 0.62534,-7.24934 l -3.50394,-3.65732 -4.09401,4.07025 c -2.25171,2.23865 -4.11189,5.11847 -4.13371,6.39963 -0.0335,1.96575 0.59449,2.20243 4.02281,1.51615 2.23437,-0.44727 5.42195,-0.933 7.08351,-1.07937 z M 205.85694,58.532107 c 3.93759,-3.699171 3.8322,-8.952922 -0.2166,-10.797677 -2.84142,-1.294635 -3.17978,-1.12324 -3.92237,1.986856 -0.44697,1.872043 -1.22878,3.966214 -1.73735,4.653714 -0.50856,0.6875 -1.31264,2.515625 -1.78687,4.0625 -0.71723,2.339559 -0.38866,2.8125 1.95395,2.8125 1.5489,0 4.11805,-1.223051 5.70924,-2.717893 z M 148.29561,243.13114 c 0.39443,-1.02787 2.9019,-3.09675 5.57216,-4.59753 2.67025,-1.50076 5.18029,-3.75354 5.57785,-5.00614 0.52454,-1.65267 1.96857,-2.27747 5.26362,-2.27747 3.5317,0 4.20742,0.33334 3.04076,1.5 -0.825,0.825 -1.5,2.48992 -1.5,3.69982 0,1.49275 -1.64892,2.69385 -5.13011,3.73684 -2.82156,0.84536 -5.413,2.2742 -5.75874,3.17518 -0.34574,0.90098 -2.23829,1.63816 -4.20565,1.63816 -2.66081,0 -3.39335,-0.47869 -2.85989,-1.86886 z M 251.5625,214.26945 c -2.23438,-0.97714 -4.0625,-2.13963 -4.0625,-2.58331 0,-0.95949 18.55481,0.33775 21.61226,1.51101 4.00753,1.53782 0.73541,3.05279 -6.37354,2.95089 -3.91255,-0.0561 -8.94185,-0.90145 -11.17622,-1.87859 z M 233.75,212.57377 c 0,-0.72807 0.5625,-1.32377 1.25,-1.32377 1.60173,0 1.60173,0.88507 0,1.875 -0.6875,0.4249 -1.25,0.17685 -1.25,-0.55123 z m 4.45595,0.0573 c -0.38038,-0.61545 0.0946,-1.42073 1.05566,-1.7895 2.24318,-0.86079 6.98839,0.36437 6.98839,1.80431 0,1.44812 -7.14804,1.43497 -8.04405,-0.0147 z M 247.5,191.65002 c -7.39008,-0.75992 -10.14075,-1.66101 -9.28706,-3.04231 0.50861,-0.82295 5.34632,-1.1738 12.86362,-0.93291 6.62664,0.21235 14.57969,-0.0493 17.67344,-0.58138 l 5.625,-0.96747 -3.5072,3.18702 c -3.03668,2.75945 -4.546,3.16019 -11.25,2.98698 -4.25854,-0.11 -9.71155,-0.40249 -12.1178,-0.64993 z M 271.25,191.25 c 0,-0.6875 0.24805,-1.25 0.55122,-1.25 0.30318,0 0.89888,0.5625 1.32378,1.25 0.4249,0.6875 0.17685,1.25 -0.55123,1.25 -0.72807,0 -1.32377,-0.5625 -1.32377,-1.25 z M 130,183.15975 c 0,-0.32464 2.83315,-1.80904 6.29589,-3.29867 3.46272,-1.48963 7.35538,-4.05537 8.65033,-5.70163 2.66498,-3.38796 4.26627,-2.06237 3.10377,2.56938 -0.94019,3.74604 -7.26144,7.02117 -13.5514,7.02117 -2.47423,0 -4.49859,-0.26561 -4.49859,-0.59025 z m 103.75,-14.33598 c 0,-0.72807 0.5625,-1.32377 1.25,-1.32377 1.60173,0 1.60173,0.88507 0,1.875 -0.6875,0.4249 -1.25,0.17685 -1.25,-0.55123 z m 7.12655,-0.8639 C 239.11883,166.20216 240.07435,165 243.22916,165 c 2.02748,0 3.03556,0.58146 2.70893,1.5625 -0.6017,1.80711 -3.77558,2.68335 -5.06154,1.39737 z m 10.99845,-2.98193 c -2.30739,-0.87922 -2.22889,-1.05952 1.01887,-2.34028 1.93538,-0.76321 4.04475,-1.38766 4.6875,-1.38766 0.64274,0 1.16863,-0.5957 1.16863,-1.32378 0,-0.72807 0.5625,-0.97612 1.25,-0.55122 2.14316,1.32455 1.3843,2.99252 -2.1875,4.80816 -2.06009,1.0472 -4.43926,1.36567 -5.9375,0.79478 z M 317.07384,161.25 c -2.21456,-3.74895 -2.21433,-3.75 0.84676,-3.75 3.25973,0 4.96599,2.53811 3.78144,5.625 -1.05883,2.75923 -2.1524,2.31619 -4.6282,-1.875 z m -72.29681,-16.60634 c 2.15556,-2.59729 8.82465,-4.04199 10.57568,-2.29095 1.88077,1.88076 1.16708,2.28019 -5.97456,3.34368 -5.61807,0.83661 -6.0812,0.73065 -4.60112,-1.05273 z m 81.69853,-7.45616 c 0.21969,-1.54688 0.96194,-2.8125 1.64944,-2.8125 0.6875,0 1.42975,1.26562 1.64944,2.8125 0.27485,1.93521 -0.23967,2.8125 -1.64944,2.8125 -1.40977,0 -1.92429,-0.87729 -1.64944,-2.8125 z M 108.75,116.25 c 0,-0.6875 0.24805,-1.25 0.55123,-1.25 0.30318,0 0.89887,0.5625 1.32377,1.25 0.4249,0.6875 0.17685,1.25 -0.55123,1.25 -0.72807,0 -1.32377,-0.5625 -1.32377,-1.25 z M 191.94859,90.585246 C 189.62151,88.825136 189.6599,88.75 192.88609,88.75 c 2.15681,0 3.36391,0.672822 3.36391,1.875 0,2.332963 -1.1788,2.322068 -4.30141,-0.03975 z"
     id="path4064"
     inkscape:connector-curvature="0" />
  <path
     style="fill:#000000;fill-opacity:1;stroke:#000000;stroke-width:9.80728531;stroke-linecap:butt;stroke-linejoin:miter;stroke-miterlimit:4;stroke-opacity:1;stroke-dasharray:none;marker-end:url(#TriangleOutM-8)"
     d="m 263.59705,16.86581 8.83563,63.777169"
     id="path4068-5"
     inkscape:connector-curvature="0" />
  <g
     style="font-size:70px;font-style:normal;font-variant:normal;font-weight:normal;font-stretch:normal;text-align:start;line-height:125%;letter-spacing:0px;word-spacing:0px;writing-mode:lr-tb;text-anchor:start;fill:#000000;fill-opacity:1;stroke:none;font-family:Veranda;-inkscape-font-specification:'Veranda, Normal'"
     id="text5266">
    <path
       d="m 166.06453,381.94095 0,5.94726 q -2.66602,-1.36718 -5.53711,-2.05078 -2.87109,-0.68359 -5.94727,-0.68359 -4.68261,0 -7.04101,1.43555 -2.32422,1.43554 -2.32422,4.30664 0,2.1875 1.6748,3.45215 1.67481,1.23046 6.7334,2.35839 l 2.15332,0.47852 q 6.69922,1.43555 9.50196,4.06738 2.83691,2.59766 2.83691,7.28028 0,5.33203 -4.23828,8.44238 -4.2041,3.11035 -11.58691,3.11035 -3.07618,0 -6.42579,-0.61523 -3.31543,-0.58106 -7.00683,-1.77735 l 0,-6.49414 q 3.48633,1.81152 6.87012,2.73438 3.38378,0.88867 6.69921,0.88867 4.44336,0 6.83594,-1.50391 2.39258,-1.53808 2.39258,-4.30664 0,-2.56348 -1.74316,-3.93066 -1.70899,-1.36719 -7.55372,-2.63184 l -2.1875,-0.51269 q -5.84472,-1.23047 -8.44238,-3.75977 -2.59765,-2.56348 -2.59765,-7.00684 0,-5.40039 3.82812,-8.33984 3.82813,-2.93945 10.86914,-2.93945 3.48633,0 6.5625,0.51269 3.07617,0.5127 5.67383,1.53809 z"
       style=""
       id="path5271" />
    <path
       d="m 184.38484,369.94388 0,10.86914 12.9541,0 0,4.88769 -12.9541,0 0,20.78125 q 0,4.68262 1.26465,6.01563 1.29883,1.33301 5.22949,1.33301 l 6.45996,0 0,5.26367 -6.45996,0 q -7.28027,0 -10.04883,-2.7002 -2.76855,-2.73437 -2.76855,-9.91211 l 0,-20.78125 -4.61426,0 0,-4.88769 4.61426,0 0,-10.86914 6.32324,0 z"
       style=""
       id="path5273" />
    <path
       d="m 220.47859,385.2222 q -5.05859,0 -7.99804,3.96484 -2.93946,3.93067 -2.93946,10.80078 0,6.87012 2.90528,10.83496 2.93945,3.93067 8.03222,3.93067 5.02442,0 7.96387,-3.96485 2.93945,-3.96484 2.93945,-10.80078 0,-6.80175 -2.93945,-10.7666 -2.93945,-3.99902 -7.96387,-3.99902 z m 0,-5.33203 q 8.20313,0 12.88574,5.33203 4.68262,5.33203 4.68262,14.76562 0,9.39942 -4.68262,14.76563 -4.68261,5.33203 -12.88574,5.33203 -8.2373,0 -12.91992,-5.33203 -4.64844,-5.36621 -4.64844,-14.76563 0,-9.43359 4.64844,-14.76562 4.68262,-5.33203 12.91992,-5.33203 z"
       style=""
       id="path5275" />
    <path
       d="m 254.52156,413.35208 0,20.30274 -6.32324,0 0,-52.8418 6.32324,0 0,5.81055 q 1.98242,-3.41797 4.99024,-5.0586 3.04199,-1.6748 7.24609,-1.6748 6.97266,0 11.31348,5.53711 4.375,5.53711 4.375,14.56054 0,9.02344 -4.375,14.56055 -4.34082,5.53711 -11.31348,5.53711 -4.2041,0 -7.24609,-1.64063 -3.00782,-1.6748 -4.99024,-5.09277 z m 21.39649,-13.36426 q 0,-6.93847 -2.8711,-10.86914 -2.83691,-3.96484 -7.82715,-3.96484 -4.99023,0 -7.86133,3.96484 -2.83691,3.93067 -2.83691,10.86914 0,6.93848 2.83691,10.90332 2.8711,3.93067 7.86133,3.93067 4.99024,0 7.82715,-3.93067 2.8711,-3.96484 2.8711,-10.90332 z"
       style=""
       id="path5277" />
  </g>
</svg>
