<?xml version="1.0" encoding="UTF-8" standalone="no"?>
<!-- Created with Inkscape (http://www.inkscape.org/) -->

<svg
   xmlns:dc="http://purl.org/dc/elements/1.1/"
   xmlns:cc="http://creativecommons.org/ns#"
   xmlns:rdf="http://www.w3.org/1999/02/22-rdf-syntax-ns#"
   xmlns:svg="http://www.w3.org/2000/svg"
   xmlns="http://www.w3.org/2000/svg"
   xmlns:sodipodi="http://sodipodi.sourceforge.net/DTD/sodipodi-0.dtd"
   xmlns:inkscape="http://www.inkscape.org/namespaces/inkscape"
   id="svg2"
   version="1.1"
   inkscape:version="0.48+devel r12701"
   width="275"
   height="343.75"
   viewBox="0 0 275 343.75"
   sodipodi:docname="ASL_no.svg">

  <metadata
     id="metadata8">
    <rdf:RDF>
      <cc:Work
         rdf:about="">
        <dc:format>image/svg+xml</dc:format>
        <dc:type
           rdf:resource="http://purl.org/dc/dcmitype/StillImage" />
        <dc:title>ASL word</dc:title>
        <dc:date>11/03/2013</dc:date>
        <dc:creator>
          <cc:Agent>
            <dc:title>Paul Sherman</dc:title>
          </cc:Agent>
        </dc:creator>
        <dc:rights>
          <cc:Agent>
            <dc:title>PD</dc:title>
          </cc:Agent>
        </dc:rights>
        <dc:publisher>
          <cc:Agent>
            <dc:title>WPClipart</dc:title>
          </cc:Agent>
        </dc:publisher>
        <dc:subject>
          <rdf:Bag>
            <rdf:li>ASL</rdf:li>
            <rdf:li>sign</rdf:li>
            <rdf:li>language</rdf:li>
            <rdf:li>bathroom</rdf:li>
          </rdf:Bag>
        </dc:subject>
        <cc:license
           rdf:resource="http://creativecommons.org/publicdomain/zero/1.0/" />
      </cc:Work>
      <cc:License
         rdf:about="http://creativecommons.org/publicdomain/zero/1.0/">
        <cc:permits
           rdf:resource="http://creativecommons.org/ns#Reproduction" />
        <cc:permits
           rdf:resource="http://creativecommons.org/ns#Distribution" />
        <cc:permits
           rdf:resource="http://creativecommons.org/ns#DerivativeWorks" />
      </cc:License>
    </rdf:RDF>
  </metadata>
  <defs
     id="defs6">
    <marker
       inkscape:stockid="TriangleOutM"
       orient="auto"
       refY="0"
       refX="0"
       id="TriangleOutM-8"
       style="overflow:visible"
       inkscape:isstock="true">
      <path
         inkscape:connector-curvature="0"
         id="path4219-5"
         d="m 5.77,0 -8.65,5 0,-10 8.65,5 z"
         style="fill:#000000;fill-opacity:1;fill-rule:evenodd;stroke:#000000;stroke-width:1pt;stroke-opacity:1"
         transform="scale(0.4,0.4)" />
    </marker>
  </defs>
  <sodipodi:namedview
     pagecolor="#ffffff"
     bordercolor="#666666"
     borderopacity="1"
     objecttolerance="10"
     gridtolerance="10"
     guidetolerance="10"
     inkscape:pageopacity="0"
     inkscape:pageshadow="2"
     inkscape:window-width="1477"
     inkscape:window-height="1003"
     id="namedview4"
     showgrid="false"
     inkscape:zoom="0.68654545"
     inkscape:cx="-197.5106"
     inkscape:cy="171.875"
     inkscape:window-x="182"
     inkscape:window-y="0"
     inkscape:window-maximized="0"
     inkscape:current-layer="svg2" />
  <rect
     style="fill:#ffffff;fill-opacity:1;stroke:none"
     id="rect4071"
     width="297.13983"
     height="364.14194"
     x="-8.7394066"
     y="-8.7394066" />
  <path
     style="fill:#000000"
     d="m 180.44389,227.90762 c -9.73752,-23.26837 -20.12512,-48.43422 -23.88458,-57.86469 -3.03218,-7.60611 -5.67382,-12.22862 -7.37199,-12.90002 -1.4556,-0.5755 -6.09697,0.0112 -10.31418,1.30304 -4.21723,1.29215 -11.51633,3.13041 -16.22027,4.08499 -9.43955,1.91562 -15.96979,5.5104 -22.1418,12.1887 -7.630434,8.25637 -12.912004,10.06202 -15.976698,5.4621 -2.319807,-3.48189 -1.661552,-14.8949 1.272236,-22.05837 2.503436,-6.11266 3.347514,-7.09446 18.660772,-21.70536 4.81931,-4.59825 8.46172,-8.73502 8.09423,-9.19277 -0.36748,-0.45776 -2.87324,-0.67021 -5.56835,-0.47213 -4.30889,0.3167 -11.322466,-2.34332 -20.699183,-7.85054 -1.899275,-1.11549 -5.207075,-0.98702 -11.174156,0.43404 -10.265366,2.44467 -12.477871,2.33681 -15.208447,-0.74141 -1.781609,-2.00844 -3.303655,-2.11515 -9.808812,-0.68779 -13.597819,2.98364 -17.628804,0.45063 -17.537577,-11.02034 0.08801,-11.066135 26.572362,-35.788179 58.910057,-54.990083 15.664788,-9.301648 24.567918,-12.296622 32.518648,-10.939132 14.47863,2.472054 52.81193,24.853387 69.91112,40.818416 10.8556,10.135576 16.97492,17.706741 35.82024,44.318889 16.23508,22.92612 17.89154,25.84522 17.35276,30.57997 -0.34387,3.02184 -1.61195,1.6007 -8.26838,-9.26637 -8.3768,-13.67568 -24.65816,-35.73782 -36.85709,-49.943378 -7.15779,-8.3352 -20.83051,-21.510075 -22.32288,-21.510075 -0.39825,0 -2.2379,-1.377904 -4.08812,-3.062007 C 173.6912,71.209197 165.53568,66.286036 157.41802,61.952943 141.47494,53.442745 139.99201,53.302 132.0335,59.543729 c -7.3709,5.780873 -30.89378,20.25816 -44.283077,27.254276 -19.5429,10.211467 -26.693818,16.295625 -26.693818,22.711705 0,2.34776 1.070516,4.23763 3.030572,5.35007 3.838513,2.17861 7.4906,1.09276 40.003083,-11.89383 13.76696,-5.498996 26.16706,-9.998171 27.55577,-9.998171 3.89606,0 9.18163,6.49723 9.18163,11.286421 0,8.81953 -7.86018,17.58036 -27.90937,31.10742 -16.554039,11.16889 -30.338373,31.9732 -25.748774,38.86191 2.356076,3.53634 4.337098,2.7599 11.499215,-4.50686 9.231129,-9.36601 10.460669,-10.01967 23.500739,-12.49407 6.33554,-1.20218 13.75398,-3.1746 16.48544,-4.38314 2.73146,-1.20854 8.57402,-2.6976 12.98344,-3.309 8.20017,-1.13701 19.20031,-5.22391 27.91128,-10.36994 5.44739,-3.21808 8.14741,-3.66271 8.14741,-1.34168 0,0.85063 -0.59598,1.54659 -1.32441,1.54659 -0.72844,0 -3.10294,1.64695 -5.27668,3.6599 -4.91641,4.55269 -13.36283,8.53564 -21.10445,9.95189 l -5.90777,1.0808 4.81703,11.59941 c 2.64937,6.37969 9.37431,22.52481 14.9443,35.87807 5.56999,13.35325 10.12727,25.35866 10.12727,26.67866 0,3.23015 -2.12565,3.0455 -3.52844,-0.30654 z M 117.54817,120.64403 c 6.11282,-2.08222 9.3118,-5.45609 9.3118,-9.82088 0,-4.21601 -2.24198,-7.02925 -5.60191,-7.02925 -2.79447,0 -8.05539,7.5346 -8.05539,11.53678 0,1.31038 -0.86338,2.38251 -1.91862,2.38251 -1.53638,0 -1.74872,-1.12814 -1.06582,-5.66255 0.74358,-4.93733 0.58024,-5.53224 -1.27536,-4.64525 -1.17049,0.5595 -5.72622,2.21156 -10.123868,3.67124 -4.397646,1.45968 -7.812166,3.37605 -7.58782,4.25861 0.578629,2.27631 11.835158,6.87111 17.005188,6.94141 2.39004,0.0326 6.58034,-0.70219 9.3118,-1.63262 z m -66.474814,-8.52812 c 2.125515,-2.22788 4.626144,-5.8852 5.556954,-8.1274 1.203034,-2.89794 6.161888,-6.869391 17.14994,-13.73507 8.501656,-5.312104 15.823326,-9.658368 16.270379,-9.658368 0.44705,0 8.493006,-4.61439 17.879901,-10.254199 18.94379,-11.38176 28.32364,-18.87367 26.48981,-21.158027 -0.64609,-0.804806 -5.0066,-1.80481 -9.69002,-2.222231 -16.09427,-1.434434 -38.753651,9.851478 -65.366652,32.557021 -13.486054,11.505963 -20.26459,19.95825 -21.905038,27.313814 -1.690248,7.57885 -1.710722,7.51882 2.801629,8.21635 2.219312,0.34308 4.69063,0.73516 5.491819,0.87129 0.801188,0.13613 3.195763,-1.5753 5.321278,-3.80318 z m 84.937414,-6.0372 c 0.84187,-2.73285 -3.29009,-8.471166 -6.09979,-8.471166 -1.4304,0 -1.03748,1.370426 1.55196,5.413006 1.907,2.97716 3.54717,5.41305 3.6448,5.41307 0.0978,3e-5 0.50403,-1.05969 0.90303,-2.35491 z"
     id="path4101"
     inkscape:connector-curvature="0" />
  <path
     style="fill:#000000;fill-opacity:1;stroke:#000000;stroke-width:6.82375097;stroke-linecap:butt;stroke-linejoin:miter;stroke-miterlimit:4;stroke-opacity:1;stroke-dasharray:none;marker-end:url(#TriangleOutM-8)"
     d="m 30.997893,124.95209 27.166833,30.20965"
     id="path4068-5"
     inkscape:connector-curvature="0" />
  <g
     style="font-size:70px;font-style:normal;font-variant:normal;font-weight:bold;font-stretch:normal;text-align:start;line-height:125%;letter-spacing:0px;word-spacing:0px;writing-mode:lr-tb;text-anchor:start;fill:#000000;fill-opacity:1;stroke:none;font-family:Comfortaa;-inkscape-font-specification:'Comfortaa, Bold'"
     id="text4706">
    <path
       d="m 108.89037,260.92252 q 4.54589,-3.52051 10.69824,-3.52051 3.58886,0 6.80176,1.40137 3.24707,1.40136 5.708,3.82812 2.46094,2.39258 3.89649,5.67383 1.43554,3.24707 1.43554,6.93847 l 0,16.85059 q 0,1.50391 -1.05957,2.56348 -1.02539,1.02539 -2.49511,1.02539 -1.50391,0 -2.56348,-1.02539 -1.02539,-1.05957 -1.02539,-2.56348 l 0,-16.85059 q 0,-2.1875 -0.85449,-4.13574 -0.85449,-1.94824 -2.32422,-3.38379 -1.43555,-1.46972 -3.38379,-2.32422 -1.94824,-0.85449 -4.13574,-0.85449 -2.22168,0 -4.16992,0.85449 -1.91407,0.82032 -3.38379,2.29004 -1.46973,1.46973 -2.32422,3.41797 -0.82031,1.94824 -0.82031,4.13574 l 0,16.85059 q 0,1.50391 -1.05957,2.56348 -1.0254,1.02539 -2.49512,1.02539 -1.50391,0 -2.56348,-1.02539 -1.02539,-1.05957 -1.02539,-2.56348 l 0,-31.10351 q 0,-1.46973 1.02539,-2.5293 1.05957,-1.05957 2.56348,-1.05957 1.46972,0 2.49512,1.05957 1.05957,1.05957 1.05957,2.46094 z"
       style=""
       id="path4711" />
    <path
       d="m 181.07787,276.54263 q 0,7.99805 -5.60547,13.53516 -5.67383,5.60547 -13.53516,5.60547 -7.92969,0 -13.53516,-5.60547 -5.60546,-5.60547 -5.60546,-13.53516 0,-7.92968 5.60546,-13.53515 5.60547,-5.60547 13.53516,-5.60547 7.86133,0 13.53516,5.60547 2.80273,2.80273 4.16992,6.18652 1.40137,3.38379 1.43555,7.34863 z m -19.14063,-11.99707 q -2.5293,0 -4.7168,0.95703 -2.1875,0.95704 -3.79394,2.59766 -1.60645,1.60645 -2.56348,3.79395 -0.92285,2.1875 -0.92285,4.64843 0,2.46094 0.92285,4.64844 0.95703,2.1875 2.56348,3.82813 1.60644,1.60644 3.79394,2.56347 2.1875,0.95703 4.7168,0.95703 2.49512,0 4.68262,-0.95703 2.1875,-0.95703 3.79394,-2.59765 1.64063,-1.64063 2.56348,-3.79395 0.95703,-2.1875 0.95703,-4.64844 0,-2.46093 -0.95703,-4.61425 -0.92285,-2.1875 -2.56348,-3.82813 -1.60644,-1.64062 -3.79394,-2.59766 -2.1875,-0.95703 -4.68262,-0.95703 z"
       style=""
       id="path4713" />
  </g>
</svg>
