<?xml version="1.0" encoding="UTF-8" standalone="no"?>
<!-- Created with Inkscape (http://www.inkscape.org/) -->

<svg
   xmlns:dc="http://purl.org/dc/elements/1.1/"
   xmlns:cc="http://creativecommons.org/ns#"
   xmlns:rdf="http://www.w3.org/1999/02/22-rdf-syntax-ns#"
   xmlns:svg="http://www.w3.org/2000/svg"
   xmlns="http://www.w3.org/2000/svg"
   xmlns:sodipodi="http://sodipodi.sourceforge.net/DTD/sodipodi-0.dtd"
   xmlns:inkscape="http://www.inkscape.org/namespaces/inkscape"
   id="svg2"
   version="1.1"
   inkscape:version="0.48+devel r12701"
   width="368.25348"
   height="528.88763"
   viewBox="0 0 368.25348 528.88763"
   sodipodi:docname="ASL_bathroom.svg">
  <title
     id="title4065">ASL bathroom</title>

  <metadata
     id="metadata8">
    <rdf:RDF>
      <cc:Work
         rdf:about="">
        <dc:format>image/svg+xml</dc:format>
        <dc:type
           rdf:resource="http://purl.org/dc/dcmitype/StillImage" />
        <dc:title>ASL word</dc:title>
        <dc:date>11/03/2013</dc:date>
        <dc:creator>
          <cc:Agent>
            <dc:title>Paul Sherman</dc:title>
          </cc:Agent>
        </dc:creator>
        <dc:rights>
          <cc:Agent>
            <dc:title>PD</dc:title>
          </cc:Agent>
        </dc:rights>
        <dc:publisher>
          <cc:Agent>
            <dc:title>WPClipart</dc:title>
          </cc:Agent>
        </dc:publisher>
        <dc:subject>
          <rdf:Bag>
            <rdf:li>ASL</rdf:li>
            <rdf:li>sign</rdf:li>
            <rdf:li>language</rdf:li>
            <rdf:li>bathroom</rdf:li>
          </rdf:Bag>
        </dc:subject>
        <cc:license
           rdf:resource="http://creativecommons.org/publicdomain/zero/1.0/" />
      </cc:Work>
      <cc:License
         rdf:about="http://creativecommons.org/publicdomain/zero/1.0/">
        <cc:permits
           rdf:resource="http://creativecommons.org/ns#Reproduction" />
        <cc:permits
           rdf:resource="http://creativecommons.org/ns#Distribution" />
        <cc:permits
           rdf:resource="http://creativecommons.org/ns#DerivativeWorks" />
      </cc:License>
    </rdf:RDF>
  </metadata>
  <defs
     id="defs6" />
  <sodipodi:namedview
     pagecolor="#ffffff"
     bordercolor="#666666"
     borderopacity="1"
     objecttolerance="10"
     gridtolerance="10"
     guidetolerance="10"
     inkscape:pageopacity="0"
     inkscape:pageshadow="2"
     inkscape:window-width="1053"
     inkscape:window-height="746"
     id="namedview4"
     showgrid="false"
     fit-margin-top="5"
     fit-margin-bottom="5"
     fit-margin-left="5"
     fit-margin-right="5"
     inkscape:zoom="0.42909091"
     inkscape:cx="-229.75451"
     inkscape:cy="263.68646"
     inkscape:window-x="0"
     inkscape:window-y="0"
     inkscape:window-maximized="0"
     inkscape:current-layer="svg2" />
  <rect
     style="fill:#ffffff;fill-opacity:1;stroke:none"
     id="rect4094"
     width="396.18643"
     height="570.97455"
     x="-20.974577"
     y="-11.790335" />
  <g
     id="g4070"
     transform="translate(-24.669769,-9.7988438)">
    <path
       inkscape:connector-curvature="0"
       id="path4064"
       d="m 194.29224,464.0089 c 0.5813,-3.04505 1.66517,-10.07978 2.40862,-15.63274 0.74346,-5.55295 2.03076,-13.3415 2.86066,-17.30789 0.82991,-3.96639 1.90108,-11.1059 2.38038,-15.86557 1.06945,-10.62003 7.53775,-36.99694 10.36777,-42.27834 1.14232,-2.13183 2.08105,-4.66466 2.08608,-5.62855 0.0134,-2.52549 4.18088,-14.53895 7.51765,-21.66955 1.57361,-3.3628 2.86112,-7.35057 2.86112,-8.86172 0,-1.51115 3.76081,-8.17095 8.35737,-14.79954 13.76269,-19.84691 12.59954,-18.70238 32.75089,-32.22712 4.27747,-2.87086 7.77722,-6.05804 7.77722,-7.08262 0,-1.02454 1.33325,-3.03759 2.96277,-4.4734 1.62951,-1.43582 2.96276,-3.5456 2.96276,-4.68845 0,-1.14283 1.21928,-3.80068 2.7095,-5.90634 7.86056,-11.10677 13.58566,-34.74872 13.58566,-56.10246 0,-4.87001 0.66661,-9.25569 1.48138,-9.74596 0.81475,-0.49028 1.48138,-2.8429 1.48138,-5.22809 0,-2.38516 0.68564,-5.58403 1.52364,-7.10859 2.91695,-5.30666 7.31913,-25.21662 7.31781,-33.09654 -9.5e-4,-6.27375 -1.15812,-10.18605 -5.53243,-18.70678 -5.14491,-10.02173 -9.23448,-14.4057 -9.23458,-9.89932 -3e-5,1.0577 -2.41952,3.8027 -5.37666,6.09999 -5.2106,4.04794 -5.65653,4.13268 -14.44339,2.74432 -4.98673,-0.78793 -10.23338,-1.92566 -11.6592,-2.52832 -2.37478,-1.00373 -2.59241,0.16164 -2.59241,13.88206 0,20.70922 -1.02287,21.81742 -21.97178,23.80492 -6.80458,0.64558 -8.399,0.29172 -11.51082,-2.55463 l -3.61218,-3.30397 -2.27591,3.16364 c -1.25174,1.74002 -2.89966,3.16366 -3.66203,3.16366 -2.06164,0 -8.81553,6.04321 -8.81553,7.88791 0,1.69421 -4.74357,11.24835 -7.03708,14.17353 -3.81758,4.86903 -6.48593,21.07802 -5.77003,35.05063 1.52871,29.83726 4.80546,40.7556 15.92134,53.051 6.2103,6.86927 7.37892,10.99219 3.11569,10.99219 -3.02163,0 -11.02558,-9.9672 -17.25915,-21.4926 -6.79011,-12.55439 -10.29586,-47.62312 -6.30434,-63.06388 2.86825,-11.09553 1.87422,-17.58935 -2.86987,-18.74866 -1.96225,-0.47952 -4.38546,-1.97324 -5.3849,-3.31939 -3.43305,-4.62397 -5.17611,-4.52001 -8.21201,0.48978 -1.63978,2.70597 -5.31106,5.99629 -8.15838,7.3118 -3.12179,1.44233 -5.53549,3.7827 -6.08007,5.89536 -0.87579,3.39736 -6.7722,5.23457 -6.7722,2.11007 0,-4.44088 5.38196,-11.66516 9.73157,-13.06283 2.80087,-0.90001 6.43936,-3.88219 8.82376,-7.23218 3.48846,-4.90115 3.91199,-6.56142 3.01988,-11.83808 -1.84746,-10.92729 -6.5286,-52.74096 -6.6895,-59.75337 -0.0395,-1.72401 -1.83158,-5.17066 -3.98227,-7.65923 -4.22548,-4.88932 -3.35867,-7.684446 1.96287,-6.329514 3.98479,1.01456 5.90225,5.849754 7.07647,17.844474 1.88527,19.25819 5.03188,45.39803 6.00528,49.88774 0.95834,4.42036 10.21018,7.86638 19.97467,7.43992 7.24523,-0.31644 8.20108,-0.72322 8.63065,-3.67313 0.31508,-2.16361 1.34544,-3.17935 2.96276,-2.92064 4.63124,0.74081 6.18313,-1.67562 6.18313,-9.62763 0,-4.2694 -0.55613,-8.0972 -1.23584,-8.5062 -0.67971,-0.40903 -1.25298,-11.39564 -1.27392,-24.4147 -0.0358,-22.31041 -0.27007,-24.246737 -4.07382,-33.686211 -2.24459,-5.570264 -5.45959,-10.888456 -7.24397,-11.982864 -6.70707,-4.113568 -33.99348,-1.645075 -39.35961,3.560701 -1.14376,1.1096 -3.14362,5.139663 -4.44413,8.955711 -1.96259,5.75879 -2.9941,6.957481 -6.06798,7.051396 -7.10695,0.217118 -14.124,2.385406 -21.1319,6.529787 -3.88235,2.29598 -7.39639,4.17449 -7.809,4.17449 -0.41261,0 -3.37365,1.69036 -6.58008,3.75634 -6.20763,3.99971 -8.02558,7.80293 -9.53539,19.94833 -0.48666,3.91487 -1.8806,8.5976 -3.09767,10.40611 -2.29341,3.4079 -3.03454,13.64745 -1.12254,15.50905 0.59967,0.58385 1.22492,7.02022 1.38944,14.30304 1.08025,47.81772 1.55728,53.3795 5.57866,65.04313 2.16293,6.27342 5.72199,15.03322 7.90903,19.46622 5.81928,11.79543 5.3528,27.49507 -1.26806,42.6758 -1.76053,4.03667 -5.97018,19.2706 -6.86123,24.82956 -0.4088,2.55037 -1.67299,5.38828 -2.80933,6.30648 -1.13632,0.91821 -2.06605,2.35865 -2.06605,3.20098 0,0.84233 -1.24388,4.17035 -2.76418,7.3956 -1.52028,3.22524 -4.530421,9.75837 -6.689157,14.51805 -5.386589,11.87655 -6.069552,12.91402 -8.852328,13.44725 -2.865791,0.54916 -3.353568,-4.04185 -0.70357,-6.622 0.951542,-0.92645 2.541546,-3.81471 3.533347,-6.41835 0.991801,-2.60363 4.868273,-11.92495 8.614382,-20.71404 3.746126,-8.7891 8.551776,-21.77002 10.679236,-28.84649 9.82941,-32.69517 10.11386,-35.64771 4.47763,-46.47703 -5.93269,-11.39896 -12.73713,-32.82371 -12.77483,-40.22344 -0.0194,-3.81483 -0.581521,-9.22175 -1.249077,-12.01541 -0.667569,-2.79364 -0.80222,-6.22156 -0.299274,-7.61762 0.502981,-1.39604 0.449615,-8.19699 -0.118511,-15.11318 -1.820519,-22.16013 -1.884633,-38.62684 -0.167312,-42.97173 0.91715,-2.32045 2.784094,-8.76231 4.148744,-14.31526 3.10485,-12.63401 5.33144,-16.87586 10.18615,-19.40553 2.10634,-1.09759 3.82977,-2.535 3.82977,-3.19423 0,-0.65922 0.86942,-1.1986 1.93204,-1.1986 1.06262,0 5.21244,-2.02551 9.2218,-4.501146 4.00937,-2.475636 10.63944,-5.45954 14.73348,-6.630895 8.33479,-2.384689 12.62853,-5.449553 12.62853,-9.014195 0,-6.756639 15.92993,-14.422807 30.03458,-14.45394 6.34933,-0.01398 7.23059,-0.421543 8.61102,-3.982005 7.73427,-19.948662 18.73594,-29.725556 30.27603,-26.905537 2.77419,0.677927 3.90867,-0.0172 5.78081,-3.542066 1.28108,-2.412034 2.32924,-5.6853 2.32924,-7.273926 0,-4.741207 3.11057,-9.935531 6.47644,-10.814989 10.47885,-2.737981 20.18838,0.257352 20.18838,6.228004 0,1.406946 1.36763,3.763157 3.03921,5.236022 2.98048,2.626197 3.10213,2.601402 6.29584,-1.283176 2.86826,-3.488688 4.35271,-3.989974 12.44654,-4.203108 8.17757,-0.215338 9.78267,0.228676 14.57125,4.030785 5.75923,4.572782 12.1199,14.823066 15.44969,24.897222 1.67968,5.081829 1.71879,7.555165 0.21674,13.702085 -4.04194,16.54095 -5.52665,20.166314 -10.80649,26.387206 -5.06448,5.967141 -5.45565,7.076716 -4.93749,14.004879 0.67741,9.0573 2.50587,14.06683 7.4272,20.34894 2.03589,2.59883 3.70162,5.35326 3.70162,6.12098 0,0.76773 1.48236,4.27621 3.29412,7.79665 5.4313,10.55349 4.46325,31.65141 -2.17981,47.50705 -0.83089,1.98319 -2.05762,4.90389 -2.72605,6.49045 -0.66845,1.58656 -1.4912,8.72606 -1.82837,15.86557 -0.81401,17.2371 -4.5738,38.83969 -8.40828,48.31137 -4.934,12.18764 -14.26381,26.37759 -19.91899,30.29533 -2.86272,1.98319 -5.5472,4.57938 -5.96553,5.76929 -0.41834,1.18992 -2.34065,3.13707 -4.27182,4.32698 -9.76789,6.01864 -15.87618,11.27109 -17.97791,15.45896 -1.28119,2.55285 -3.18036,5.14902 -4.22042,5.76929 -2.6804,1.59857 -12.82863,20.1476 -12.82863,23.44834 0,1.51243 -0.66661,3.15101 -1.48138,3.64128 -0.81475,0.49028 -1.48137,2.16 -1.48137,3.71051 0,1.55051 -0.77071,4.27064 -1.71267,6.04475 -3.79443,7.14652 -4.21285,8.40927 -4.21285,12.71429 0,2.4638 -1.33324,6.12989 -2.96275,8.14687 -1.62952,2.01698 -2.96275,5.82733 -2.96275,8.46747 0,2.64012 -1.39783,8.23174 -3.10627,12.42583 -1.70842,4.19408 -3.68336,12.81796 -4.38872,19.16419 -0.70535,6.34623 -2.03842,16.40644 -2.96234,22.35604 -0.92393,5.94958 -2.11545,15.03623 -2.64783,20.19254 -0.87488,8.47376 -1.30909,9.42206 -4.51618,9.86345 -3.36182,0.4627 -3.4927,0.19751 -2.4913,-5.04815 z m 0.11401,-282.48255 c 0,-2.34899 -1.00035,-2.86489 -5.55517,-2.86489 -6.59185,0 -7.75056,2.07527 -2.59241,4.6431 4.91651,2.44753 8.14758,1.74235 8.14758,-1.77821 z m 54.61663,-18.18551 c 3.37437,-1.49694 3.72667,-2.6342 4.68954,-15.13855 1.16167,-15.08594 -0.26479,-37.23919 -2.68232,-41.65706 -0.86819,-1.58657 -2.05614,-9.0506 -2.63988,-16.586737 -1.46885,-18.962467 -2.22468,-22.434616 -6.71745,-30.857912 -5.73045,-10.743722 -11.57743,-15.165608 -20.14876,-15.23786 -8.57202,-0.07225 -12.4257,2.934065 -19.39745,15.132247 -5.43577,9.51073 -5.5286,12.213304 -0.41955,12.213304 4.33948,0 7.30622,3.308545 11.68385,13.029945 4.90443,10.891267 7.03866,31.080253 5.71247,54.038153 -0.36863,6.38146 0.45732,10.64492 2.43528,12.57074 0.96501,0.93956 1.75453,3.52374 1.75453,5.74263 0,3.16956 1.03207,4.47383 4.81449,6.08436 5.91224,2.51737 16.01741,2.83952 20.91525,0.66674 z m 37.79515,-36.42234 c 2.73076,-2.83014 3.22594,-4.77185 2.85063,-11.17803 -0.44357,-7.5716 -0.56126,-7.75629 -5.03227,-7.89716 -2.51794,-0.0792 -7.8509,-0.55531 -11.85104,-1.05775 -6.49202,-0.81547 -7.65375,-0.52265 -10.81957,2.72702 -3.8629,3.96521 -5.44692,14.07815 -2.55201,16.29312 3.15672,2.41529 10.57787,4.31073 17.32111,4.42401 5.31267,0.0893 7.49291,-0.62672 10.08315,-3.31122 z m -27.02105,-25.13017 c 1.45857,-2.273947 2.82543,-2.447936 11.09635,-1.41249 17.43488,2.18271 16.83977,2.25145 16.83977,-1.945137 0,-2.575513 1.97436,-5.600258 6.16985,-9.452247 10.92593,-10.031408 14.85519,-31.868011 8.1286,-45.174352 -5.97024,-11.810155 -9.83512,-14.906823 -19.44999,-15.583966 -6.6036,-0.465069 -8.96076,-0.06933 -10.56279,1.773408 -1.13421,1.304639 -3.0605,3.437413 -4.28062,4.739497 -2.36599,2.524916 -5.75551,13.41258 -5.86382,18.835415 -0.036,1.800639 -1.81551,5.973226 -3.95458,9.272413 -3.6559,5.638615 -3.87639,6.989196 -3.67496,22.509994 0.11791,9.081301 0.57411,17.078335 1.01389,17.771165 1.23352,1.94325 2.71584,1.50764 4.5383,-1.3337 z m -6.58184,-41.036912 c 2.00585,-3.462328 5.34364,-14.675734 6.637,-22.297233 0.56941,-3.355343 -0.0722,-5.690437 -2.33227,-8.487877 -1.71478,-2.122516 -3.11777,-4.732795 -3.11777,-5.800618 0,-2.319818 -5.40784,-3.846617 -11.3017,-3.190819 -3.48211,0.387451 -4.60042,1.509805 -6.17111,6.193514 -2.27257,6.776582 -0.99208,20.962693 1.89216,20.962693 2.21132,0 9.65513,10.54004 9.65513,13.671161 0,3.23905 2.58548,2.665697 4.73856,-1.050821 z M 29.932985,441.82228 c -1.451972,-2.28741 3.429664,-8.59052 6.65319,-8.59052 4.646153,0 4.827731,2.46969 0.470782,6.40317 -4.503264,4.06558 -5.69873,4.43263 -7.123972,2.18733 z m 10.936612,-12.4474 c -1.597853,-1.87452 -1.421273,-2.63058 1.074764,-4.60181 1.642713,-1.29732 3.433375,-3.49459 3.979252,-4.88282 1.245753,-3.1681 3.850493,-3.26174 5.064288,-0.18203 0.555485,1.4094 -0.05293,2.87381 -1.527872,3.67748 -1.348011,0.7345 -2.450928,2.53184 -2.450928,3.99412 0,3.5637 -3.760727,4.78577 -6.139504,1.99506 z M 58.95493,409.54461 c -2.299602,-2.69778 -0.840419,-5.15935 3.058415,-5.15935 2.214577,0 2.856962,0.80326 2.504986,3.13226 -0.591532,3.91408 -3.157875,4.84916 -5.563401,2.02709 z m 7.359199,-14.89504 c 0.06555,-3.5116 3.504029,-7.5722 6.412057,-7.5722 3.271382,0 3.099555,4.73146 -0.279955,7.70923 -3.519378,3.10104 -6.191428,3.04132 -6.132102,-0.13702 z m 6.484658,-12.44137 c -1.255061,-3.18437 0.414644,-4.81005 2.677467,-2.60688 1.336073,1.30082 1.34175,2.10713 0.02393,3.39027 -1.31787,1.28311 -1.960314,1.09681 -2.701347,-0.78339 z m 4.335378,-7.48753 c -1.234664,-3.13269 1.89978,-6.07871 4.143345,-3.89428 1.896212,1.84621 0.721503,6.15471 -1.678082,6.15471 -0.865895,0 -1.97527,-1.0172 -2.465263,-2.26044 z M 132.61678,192.00296 c -1.04383,-1.78488 -2.23387,-8.4376 -2.64453,-14.78382 -0.71056,-10.98105 -0.92559,-11.56271 -4.45009,-12.0374 -8.56209,-1.15312 -9.08962,-5.99167 -0.65327,-5.99167 4.69513,0 5.0974,-0.34726 5.0974,-4.40057 0,-3.68216 -0.86317,-4.75171 -5.28736,-6.55153 -5.71374,-2.3244 -6.14294,-5.87375 -0.63543,-5.25487 8.13195,0.91378 10.82064,3.57861 12.71402,12.60117 1.50425,7.1683 1.45868,9.3729 -0.26553,12.84194 -2.99978,6.03537 -2.61026,14.23995 0.88119,18.56161 1.62952,2.01696 2.96277,4.70068 2.96277,5.9638 0,3.46379 -5.5366,2.78335 -7.71917,-0.94866 z m 201.22424,-18.09793 c -1.01047,-1.59187 0.79109,-3.92648 3.88861,-5.03921 1.99315,-0.716 2.59241,-2.5891 2.59241,-8.10303 0,-3.94448 0.57098,-7.51535 1.26883,-7.93527 0.69786,-0.41994 1.1841,-7.43549 1.08052,-15.59012 -0.14029,-11.04195 -0.84227,-16.00487 -2.7502,-19.44254 -1.51822,-2.73544 -2.56191,-7.75931 -2.56191,-12.33186 0,-8.062553 -1.73391,-11.177529 -6.22178,-11.177529 -3.30193,0 -3.47505,-2.300751 -0.30319,-4.029014 3.19548,-1.741131 8.80253,-0.541119 11.61631,2.4861 2.63858,2.838713 3.05126,7.06012 1.47627,15.100693 -0.84859,4.33213 -0.57057,6.00322 1.20958,7.27058 3.6994,2.63375 5.94602,12.81663 3.82681,17.34516 -1.39428,2.97943 -1.37206,4.88568 0.10322,8.85818 1.60175,4.31281 1.51803,5.80429 -0.56589,10.08004 -2.668,5.47418 -3.01876,8.39285 -1.54974,12.8951 1.30309,3.99372 -4.27639,10.76334 -8.87109,10.76334 -1.92968,0 -3.83717,-0.51778 -4.23888,-1.15062 z m 24.29878,-4.25811 c 0.0226,-1.38823 2.02253,-5.07361 4.44413,-8.18972 4.94917,-6.36856 5.4958,-9.68477 2.05471,-12.46534 -1.70251,-1.37569 -2.06385,-3.10983 -1.31405,-6.30648 0.93084,-3.96854 1.09426,-10.2825 0.62736,-24.24098 -0.0861,-2.57815 0.31051,-8.41858 0.88163,-12.97872 0.72408,-5.781523 0.48438,-8.941162 -0.79195,-10.438487 -2.32613,-2.728928 -0.775,-6.871824 2.34267,-6.25704 3.39667,0.669789 6.79347,10.991411 4.80674,14.605797 -0.85224,1.55045 -1.40097,8.09017 -1.2194,14.53273 0.18156,6.44256 0.22328,15.06631 0.0927,19.16389 -0.13052,4.09758 0.4568,7.86791 1.30531,8.3785 2.07482,1.24851 1.94959,6.92447 -0.26187,11.86824 -5.13879,11.48788 -13.07747,19.03454 -12.96796,12.32761 z m -321.125804,-9.3751 c -3.049406,-3.741 -3.549097,-12.69746 -1.10768,-19.85411 1.788142,-5.24167 1.999214,-7.77081 0.826557,-9.90417 -2.916692,-5.3062 -1.856952,-11.65574 2.683112,-16.07611 5.506439,-5.36127 6.245611,-7.45678 4.600436,-13.04192 -1.576382,-5.351616 -0.232334,-8.515058 6.53791,-15.388049 5.288449,-5.368711 9.787177,-6.182126 9.787177,-1.769629 0,1.840581 -1.992508,4.077911 -5.348677,6.005896 l -5.348676,3.072603 0.94958,8.171919 c 0.923913,7.95102 0.808648,8.30525 -4.26451,13.1049 -5.171512,4.89271 -7.034977,11.61881 -3.764259,13.58695 1.923362,1.15737 1.923362,8.9389 0,10.09627 -0.814759,0.49027 -1.481379,4.07549 -1.481379,7.96716 0,5.5996 0.618095,7.39782 2.962757,8.61957 1.629517,0.84909 2.962757,2.81907 2.962757,4.37771 0,2.16045 -1.01303,2.83391 -4.262748,2.83391 -2.344513,0 -4.924073,-0.81131 -5.732357,-1.8029 z m 27.890038,-1.66402 c -1.31813,-1.54637 -1.551216,-4.88776 -0.810657,-11.62069 0.764924,-6.95443 0.522109,-10.05712 -0.919428,-11.74827 -2.900167,-3.40237 -1.61591,-13.32276 2.485482,-19.19938 2.023788,-2.89975 3.570347,-7.21713 3.570347,-9.96698 0,-2.66818 1.385551,-6.745774 3.079004,-9.061305 3.499206,-4.784635 13.803651,-10.180766 17.093781,-8.951515 4.014085,1.499737 1.39041,5.05602 -5.358999,7.263903 -7.972365,2.607923 -8.490919,3.296079 -9.723876,12.904187 -0.667604,5.20247 -2.038222,8.4634 -4.506057,10.7207 -4.402775,4.02716 -4.565751,9.74463 -0.423899,14.87133 2.29091,2.83564 2.849271,4.90447 2.09615,7.76673 -0.564594,2.14582 -1.136537,5.84862 -1.270975,8.22845 -0.21128,3.74 0.320143,4.39002 3.917394,4.79163 2.961464,0.33064 4.026066,1.16264 3.69112,2.88465 -0.635962,3.26964 -10.36722,4.11069 -12.919387,1.11656 z"
       style="fill:#000000" />
    <text
       sodipodi:linespacing="125%"
       id="text4066"
       y="533.68646"
       x="102.54237"
       style="font-size:60px;font-style:normal;font-variant:normal;font-weight:bold;font-stretch:normal;text-align:start;line-height:125%;letter-spacing:0px;word-spacing:0px;writing-mode:lr-tb;text-anchor:start;fill:#000000;fill-opacity:1;stroke:none;font-family:Comfortaa;-inkscape-font-specification:'Comfortaa, Bold'"
       xml:space="preserve"><tspan
         y="533.68646"
         x="102.54237"
         id="tspan4068"
         sodipodi:role="line">bathroom</tspan></text>
  </g>
</svg>
