<?xml version="1.0" encoding="UTF-8" standalone="no"?>
<!-- Created with Inkscape (http://www.inkscape.org/) -->

<svg
   xmlns:dc="http://purl.org/dc/elements/1.1/"
   xmlns:cc="http://creativecommons.org/ns#"
   xmlns:rdf="http://www.w3.org/1999/02/22-rdf-syntax-ns#"
   xmlns:svg="http://www.w3.org/2000/svg"
   xmlns="http://www.w3.org/2000/svg"
   xmlns:sodipodi="http://sodipodi.sourceforge.net/DTD/sodipodi-0.dtd"
   xmlns:inkscape="http://www.inkscape.org/namespaces/inkscape"
   id="svg2"
   version="1.1"
   inkscape:version="0.48+devel r12701"
   width="262.5"
   height="342.5"
   viewBox="0 0 262.5 342.5"
   sodipodi:docname="ASL_sorry.svg">

  <metadata
     id="metadata8">
    <rdf:RDF>
      <cc:Work
         rdf:about="">
        <dc:format>image/svg+xml</dc:format>
        <dc:type
           rdf:resource="http://purl.org/dc/dcmitype/StillImage" />
        <dc:title>ASL word</dc:title>
        <dc:date>11/03/2013</dc:date>
        <dc:creator>
          <cc:Agent>
            <dc:title>Paul Sherman</dc:title>
          </cc:Agent>
        </dc:creator>
        <dc:rights>
          <cc:Agent>
            <dc:title>PD</dc:title>
          </cc:Agent>
        </dc:rights>
        <dc:publisher>
          <cc:Agent>
            <dc:title>WPClipart</dc:title>
          </cc:Agent>
        </dc:publisher>
        <dc:subject>
          <rdf:Bag>
            <rdf:li>ASL</rdf:li>
            <rdf:li>sign</rdf:li>
            <rdf:li>language</rdf:li>
            <rdf:li>bathroom</rdf:li>
          </rdf:Bag>
        </dc:subject>
        <cc:license
           rdf:resource="http://creativecommons.org/publicdomain/zero/1.0/" />
      </cc:Work>
      <cc:License
         rdf:about="http://creativecommons.org/publicdomain/zero/1.0/">
        <cc:permits
           rdf:resource="http://creativecommons.org/ns#Reproduction" />
        <cc:permits
           rdf:resource="http://creativecommons.org/ns#Distribution" />
        <cc:permits
           rdf:resource="http://creativecommons.org/ns#DerivativeWorks" />
      </cc:License>
    </rdf:RDF>
  </metadata>
  <defs
     id="defs6" />
  <sodipodi:namedview
     pagecolor="#ffffff"
     bordercolor="#666666"
     borderopacity="1"
     objecttolerance="10"
     gridtolerance="10"
     guidetolerance="10"
     inkscape:pageopacity="0"
     inkscape:pageshadow="2"
     inkscape:window-width="963"
     inkscape:window-height="989"
     id="namedview4"
     showgrid="false"
     inkscape:zoom="1.050338"
     inkscape:cx="106.75306"
     inkscape:cy="171.25"
     inkscape:window-x="690"
     inkscape:window-y="0"
     inkscape:window-maximized="0"
     inkscape:current-layer="svg2" />
  <rect
     style="fill:#ffffff;fill-opacity:1;stroke:none"
     id="rect4065"
     width="278.95782"
     height="357.02792"
     x="-9.5207443"
     y="-7.8634067" />
  <path
     style="fill:#000000"
     d="m 81.19557,264.41118 c 0,-0.38098 2.265844,-3.91397 5.035207,-7.85107 6.273559,-8.9189 6.318179,-12.69923 0.232768,-19.71905 -7.815278,-9.01527 -12.996546,-22.21454 -13.861981,-35.31335 l -0.757095,-11.45907 -12.026688,8.24432 c -6.614677,4.53438 -12.522056,9.19635 -13.127506,10.35993 -0.775831,1.49102 -1.388973,1.56182 -2.076875,0.23978 -1.63836,-3.14869 3.713714,-9.77595 14.009602,-17.34753 11.164116,-8.21009 13.26011,-11.37484 14.670904,-22.15171 0.553638,-4.22918 2.933306,-11.45307 5.288149,-16.05309 2.354843,-4.60003 4.87898,-10.23013 5.609193,-12.51138 1.180157,-3.68687 0.96763,-4.09242 -1.912983,-3.65034 -4.268036,0.655 -6.837219,-1.39147 -6.837219,-5.44615 0,-2.00765 1.258132,-3.62381 3.23692,-4.15804 21.095735,-5.6955 21.594514,-5.47731 23.811854,10.41645 1.42413,10.20808 1.32978,11.71731 -0.85074,13.61115 -2.793862,2.4265 -5.416908,0.66567 -6.817755,-4.57678 -1.411976,-5.28407 -2.971705,-3.82478 -6.100531,5.70779 -1.619483,4.93403 -3.983862,11.8545 -5.254175,15.37882 -3.081908,8.55034 -0.897311,8.4861 10.153035,-0.29853 13.200576,-10.49396 29.779986,-28.12202 38.026966,-40.4322 8.27222,-12.34786 14.99878,-18.21845 24.2737,-21.18487 5.0603,-1.61845 6.65815,-1.49086 9.55415,0.76297 2.99503,2.33089 3.48466,4.06435 3.52857,12.4924 0.0281,5.38229 0.97616,11.70833 2.10696,14.05787 1.13078,2.34954 2.10186,7.34766 2.15795,11.10694 0.0562,3.75926 1.02714,8.75738 2.15794,11.10692 3.2982,6.85296 2.54649,15.6182 -2.33442,27.2198 -5.02013,11.93252 -9.22618,15.84976 -21.40299,19.93346 -19.68425,6.60143 -21.39951,7.65074 -32.33513,19.78101 -12.76875,14.16363 -13.91385,18.73608 -5.51654,22.02782 7.02366,2.75325 30.99653,0.99611 44.32551,-3.24892 21.61865,-6.88515 27.36109,-11.56127 38.13527,-31.05379 6.58862,-11.92009 7.82336,-15.43494 8.30819,-23.65038 0.39132,-6.631 -0.26887,-12.32215 -2.11049,-18.19331 -2.29878,-7.32871 -3.74929,-9.22751 -10.19911,-13.35134 -9.84412,-6.29402 -10.23019,-10.62279 -0.81063,-9.08925 7.97325,1.29805 14.19136,5.31195 18.25136,11.78159 2.37107,3.77829 3.0817,7.97269 3.56237,21.02631 0.57889,15.72059 0.43023,16.70482 -4.1372,27.39298 -5.62,13.15136 -14.52282,24.5922 -27.02499,34.72935 -7.55712,6.12753 -11.73432,8.07278 -24.45672,11.38903 -19.45064,5.07007 -35.60439,5.32605 -47.12921,0.74689 -4.6725,-1.85652 -9.61889,-3.39441 -10.991999,-3.41751 -1.373101,-0.0231 -5.327939,3.41821 -8.788526,7.64739 -5.341228,6.52748 -9.575065,9.62125 -9.575065,6.99669 z M 110.2459,223.6895 c 5.78162,-5.86119 10.83571,-11.1181 11.23133,-11.68203 2.32586,-3.31523 15.14009,-10.39386 24.1724,-13.35289 11.16673,-3.65829 18.14642,-7.98811 22.67776,-14.06805 l 2.78261,-3.73355 -5.03521,1.1607 c -13.91552,3.20775 -15.82494,3.28064 -15.82494,0.60427 0,-1.72005 2.449,-3.30894 7.17647,-4.65598 8.97928,-2.55856 14.71243,-7.67008 14.12165,-12.59042 -0.4789,-3.98837 -2.79119,-4.31853 -13.7453,-1.9626 -9.19909,1.97847 -7.3659,-1.07064 3.96093,-6.58813 5.53614,-2.69675 10.06572,-5.48611 10.06572,-6.19861 0,-2.91801 -4.54305,-5.46705 -8.25895,-4.634 -2.18318,0.48944 -6.3971,1.4473 -9.36428,2.12858 -8.18983,1.88043 -6.77013,-1.94666 2.5354,-6.83473 8.56525,-4.49923 10.93677,-8.28909 7.63843,-12.20676 -1.72772,-2.05212 -3.39359,-2.14796 -9.64711,-0.555 -4.15731,1.05899 -7.80258,1.63585 -8.10058,1.2819 -1.20616,-1.43266 1.81119,-4.726 7.79516,-8.50822 3.47867,-2.19873 7.33116,-5.82344 8.56111,-8.05493 2.23474,-4.05455 2.23294,-4.0564 -2.73361,-2.78179 -9.3253,2.39323 -15.03842,7.37968 -29.12743,25.42252 -8.10824,10.38367 -20.32002,23.53745 -28.77261,30.99206 -21.703992,19.14147 -21.161409,18.47663 -21.143708,25.90771 0.03866,16.22487 10.561713,41.1518 17.525715,41.51474 0.548359,0.0286 5.727433,-4.74357 11.509043,-10.60477 z m 138.79271,5.10328 c -0.43833,-3.05441 -1.20596,-20.54782 -1.70581,-38.87425 -0.49987,-18.32643 -1.58956,-36.01208 -2.42153,-39.30144 -3.31843,-13.11989 -15.90922,-34.99628 -29.6367,-51.493499 -7.53488,-9.05518 -15.57067,-20.589297 -17.8573,-25.631379 -2.28662,-5.042083 -5.14174,-11.351022 -6.34466,-14.019864 -1.96599,-4.361779 -2.43122,-4.597889 -4.60104,-2.335039 -8.19903,8.550612 -26.76022,14.813376 -44.01635,14.851637 -17.48463,0.03877 -29.03188,-2.894012 -34.71014,-8.815706 C 101.54277,56.705009 96.560343,55.108586 87.669408,56.740774 74.897666,59.085395 67.760033,61.768605 56.019531,68.638729 37.054476,79.73641 23.418333,96.574858 12.071608,122.90737 c -4.4764001,10.38844 -7.12347,13.33113 -7.12347,7.919 0,-1.48674 2.751381,-8.89106 6.11418,-16.45407 C 18.381937,97.910314 35.524435,75.520261 47.236211,67.12507 61.544372,56.868748 93.022749,47.96819 102.22715,51.576301 c 2.67507,1.048626 4.86377,2.598176 4.86377,3.443443 0,5.572622 15.48852,9.734109 38.3244,10.297084 15.30223,0.377246 30.84178,-5.055095 37.67394,-13.170107 l 4.92217,-5.846377 -0.64001,-14.483206 c -0.95392,-21.587131 2.06624,-18.894561 5.23765,4.669516 4.22221,31.371814 6.90676,37.363002 25.25643,56.365338 8.47366,8.775058 12.70747,14.981998 19.72375,28.915838 8.14473,16.17486 9.12251,19.17647 11.06752,33.97553 2.43012,18.49016 4.27282,78.60289 2.40949,78.60289 -0.67688,0 -1.58931,-2.49907 -2.02765,-5.55347 z"
     id="path4064"
     inkscape:connector-curvature="0" />
  <g
     style="font-size:50px;font-style:normal;font-variant:normal;font-weight:normal;font-stretch:normal;text-align:start;line-height:125%;letter-spacing:0px;word-spacing:0px;writing-mode:lr-tb;text-anchor:start;fill:#000000;fill-opacity:1;stroke:none;font-family:Comfortaa;-inkscape-font-specification:Comfortaa"
     id="text4075">
    <path
       d="m 79.144775,302.17004 q -2.221679,-0.83007 -3.100586,-1.73339 -1.733398,-1.70899 -1.733398,-4.12598 0,-2.41699 1.806641,-4.22363 3.515625,-3.58887 9.179687,-3.58887 6.12793,0 10.498047,4.90723 0.390625,0.46386 0.366211,1.14746 0,0.80566 -0.585938,1.3916 -0.561523,0.56152 -1.367187,0.56152 -0.805664,0 -1.293945,-0.51269 -0.488282,-0.5127 -0.708008,-0.73243 -2.856445,-2.85644 -6.90918,-2.85644 -4.052734,0 -6.469726,2.53906 -0.585938,0.70801 -0.585938,1.68457 0.07324,1.14746 1.196289,1.5625 l 12.011719,3.97949 q 2.22168,0.83008 3.100586,1.7334 1.733398,1.70899 1.733398,4.12598 0,2.41699 -1.80664,4.22363 -3.515625,3.58887 -9.179688,3.58887 -6.152344,0 -10.498047,-4.90723 -0.366211,-0.51269 -0.366211,-1.14746 0,-0.80566 0.561524,-1.36719 0.585937,-0.58593 1.391601,-0.58593 0.805664,0 1.293946,0.51269 0.488281,0.5127 0.708007,0.73242 2.856446,2.85645 6.90918,2.85645 4.052735,0 6.469727,-2.53906 0.585937,-0.70801 0.585937,-1.68457 -0.07324,-1.14746 -1.196289,-1.5625 l -12.011719,-3.9795 z"
       style=""
       id="path4080" />
    <path
       d="m 127.53345,302.17004 q 0,5.66407 -4.00391,9.66797 -4.00391,4.00391 -9.66797,4.00391 -5.66406,0 -9.66797,-4.00391 -4.0039,-4.0039 -4.0039,-9.66797 0,-5.66406 4.0039,-9.66796 4.00391,-4.00391 9.66797,-4.00391 5.66406,0 9.66797,4.00391 4.00391,4.0039 4.00391,9.66796 z m -13.67188,-9.76562 q -4.05273,0 -6.90918,2.85644 -2.85644,2.85645 -2.85644,6.90918 0,4.05274 2.85644,6.90918 2.85645,2.85645 6.90918,2.85645 4.05274,0 6.90918,-2.85645 2.85645,-2.85644 2.85645,-6.90918 0,-4.05273 -2.85645,-6.90918 -2.85644,-2.85644 -6.90918,-2.85644 z"
       style=""
       id="path4082" />
    <path
       d="m 131.4397,290.45129 q 0,-0.80566 0.56152,-1.36718 0.58594,-0.58594 1.3916,-0.58594 0.80567,0 1.36719,0.58594 0.58594,0.56152 0.58594,1.36718 l 0,2.14844 q 4.10156,-4.10156 9.76562,-4.10156 2.85645,0 5.24903,0.97656 0.43945,0.1709 0.80566,0.5127 0.56152,0.58593 0.56152,1.3916 0,0.80566 -0.58593,1.3916 -0.56153,0.56152 -1.36719,0.56152 -0.46387,0 -0.85449,-0.19531 -1.7334,-0.73242 -3.8086,-0.73242 -4.05273,0 -6.90918,2.85644 -2.85644,2.85645 -2.85644,6.90918 l 0,11.71875 q 0,0.80567 -0.58594,1.39161 -0.56152,0.56152 -1.36719,0.56152 -0.80566,0 -1.3916,-0.56152 -0.56152,-0.58594 -0.56152,-1.39161 l 0,-23.4375 z"
       style=""
       id="path4084" />
    <path
       d="m 154.8772,290.45129 q 0,-0.80566 0.56152,-1.36718 0.58594,-0.58594 1.3916,-0.58594 0.80567,0 1.36719,0.58594 0.58594,0.56152 0.58594,1.36718 l 0,2.14844 q 4.10156,-4.10156 9.76562,-4.10156 2.85645,0 5.24903,0.97656 0.43945,0.1709 0.80566,0.5127 0.56152,0.58593 0.56152,1.3916 0,0.80566 -0.58593,1.3916 -0.56153,0.56152 -1.36719,0.56152 -0.46387,0 -0.85449,-0.19531 -1.7334,-0.73242 -3.8086,-0.73242 -4.05273,0 -6.90918,2.85644 -2.85644,2.85645 -2.85644,6.90918 l 0,11.71875 q 0,0.80567 -0.58594,1.39161 -0.56152,0.56152 -1.36719,0.56152 -0.80566,0 -1.3916,-0.56152 -0.56152,-0.58594 -0.56152,-1.39161 l 0,-23.4375 z"
       style=""
       id="path4086" />
    <path
       d="m 187.90942,313.86438 -9.375,-22.50977 q -0.21972,-0.41503 -0.21972,-0.90332 0,-0.80566 0.56152,-1.36718 0.58594,-0.58594 1.3916,-0.58594 0.80567,0 1.3916,0.56152 0.31739,0.3418 0.46387,0.73242 l 7.91016,18.96973 7.91015,-18.96973 q 0.14649,-0.39062 0.48828,-0.73242 0.56153,-0.56152 1.36719,-0.56152 0.80567,0 1.36719,0.58594 0.58594,0.56152 0.58594,1.36718 0,0.48829 -0.21973,0.90332 l -14.55078,34.91211 q -0.14648,0.39063 -0.46387,0.70801 -0.58594,0.58594 -1.3916,0.58594 -0.80566,0 -1.3916,-0.58594 -0.56152,-0.56152 -0.56152,-1.36719 0,-0.48828 0.21972,-0.90332 l 4.5166,-10.83984 z"
       style=""
       id="path4088" />
  </g>
</svg>
