<?xml version="1.0" encoding="UTF-8" standalone="no"?>
<!-- Created with Inkscape (http://www.inkscape.org/) -->

<svg
   xmlns:dc="http://purl.org/dc/elements/1.1/"
   xmlns:cc="http://creativecommons.org/ns#"
   xmlns:rdf="http://www.w3.org/1999/02/22-rdf-syntax-ns#"
   xmlns:svg="http://www.w3.org/2000/svg"
   xmlns="http://www.w3.org/2000/svg"
   xmlns:sodipodi="http://sodipodi.sourceforge.net/DTD/sodipodi-0.dtd"
   xmlns:inkscape="http://www.inkscape.org/namespaces/inkscape"
   id="svg2"
   version="1.1"
   inkscape:version="0.48+devel r12701"
   width="300"
   height="400"
   viewBox="0 0 300 400"
   sodipodi:docname="ASL_why.svg">

  <metadata
     id="metadata8">
    <rdf:RDF>
      <cc:Work
         rdf:about="">
        <dc:format>image/svg+xml</dc:format>
        <dc:type
           rdf:resource="http://purl.org/dc/dcmitype/StillImage" />
        <dc:title>ASL word</dc:title>
        <dc:date>11/03/2013</dc:date>
        <dc:creator>
          <cc:Agent>
            <dc:title>Paul Sherman</dc:title>
          </cc:Agent>
        </dc:creator>
        <dc:rights>
          <cc:Agent>
            <dc:title>PD</dc:title>
          </cc:Agent>
        </dc:rights>
        <dc:publisher>
          <cc:Agent>
            <dc:title>WPClipart</dc:title>
          </cc:Agent>
        </dc:publisher>
        <dc:subject>
          <rdf:Bag>
            <rdf:li>ASL</rdf:li>
            <rdf:li>sign</rdf:li>
            <rdf:li>language</rdf:li>
            <rdf:li>bathroom</rdf:li>
          </rdf:Bag>
        </dc:subject>
        <cc:license
           rdf:resource="http://creativecommons.org/publicdomain/zero/1.0/" />
      </cc:Work>
      <cc:License
         rdf:about="http://creativecommons.org/publicdomain/zero/1.0/">
        <cc:permits
           rdf:resource="http://creativecommons.org/ns#Reproduction" />
        <cc:permits
           rdf:resource="http://creativecommons.org/ns#Distribution" />
        <cc:permits
           rdf:resource="http://creativecommons.org/ns#DerivativeWorks" />
      </cc:License>
    </rdf:RDF>
  </metadata>
  <defs
     id="defs6">
    <marker
       inkscape:stockid="TriangleOutM"
       orient="auto"
       refY="0"
       refX="0"
       id="TriangleOutM-8"
       style="overflow:visible"
       inkscape:isstock="true">
      <path
         inkscape:connector-curvature="0"
         id="path4219-5"
         d="m 5.77,0 -8.65,5 0,-10 8.65,5 z"
         style="fill:#000000;fill-opacity:1;fill-rule:evenodd;stroke:#000000;stroke-width:1pt;stroke-opacity:1"
         transform="scale(0.4,0.4)" />
    </marker>
  </defs>
  <sodipodi:namedview
     pagecolor="#ffffff"
     bordercolor="#666666"
     borderopacity="1"
     objecttolerance="10"
     gridtolerance="10"
     guidetolerance="10"
     inkscape:pageopacity="0"
     inkscape:pageshadow="2"
     inkscape:window-width="1153"
     inkscape:window-height="998"
     id="namedview4"
     showgrid="false"
     inkscape:zoom="0.53942857"
     inkscape:cx="-150.40784"
     inkscape:cy="218.75"
     inkscape:window-x="351"
     inkscape:window-y="0"
     inkscape:window-maximized="0"
     inkscape:current-layer="svg2" />
  <rect
     style="fill:#ffffff;fill-opacity:1;stroke:none"
     id="rect4077"
     width="331.83264"
     height="443.06143"
     x="-12.976695"
     y="-15.254238" />
  <g
     id="g5003"
     transform="translate(1.8538135,-11.546611)">
    <path
       inkscape:connector-curvature="0"
       id="path4990"
       d="m 88.239049,317.1875 c 1.249455,-11.30846 3.328911,-17.31656 9.224157,-26.65103 2.874624,-4.55165 8.057494,-13.65467 11.517474,-20.22893 5.39917,-10.25892 6.61248,-13.92478 8.55981,-25.86244 2.61597,-16.03655 3.56845,-18.61704 10.63784,-28.8201 2.85808,-4.125 5.87906,-8.79524 6.71329,-10.37831 l 1.51678,-2.87832 -5.046,2.57429 c -7.71349,3.93513 -12.91074,9.93285 -16.88982,19.49118 C 107.47226,241.24957 100.57297,252.5 97.261088,252.5 c -1.400761,0 -1.277261,-4.69506 0.137002,-5.20834 0.631449,-0.22916 3.38805,-6.04166 6.12577,-12.91666 l 4.97769,-12.5 -3.18587,-0.41339 c -4.07147,-0.5283 -7.218485,3.24364 -14.327253,17.17229 -5.333426,10.45012 -5.365603,10.48324 -5.752422,5.9201 -0.289748,-3.41805 0.922616,-7.163 4.75185,-14.67829 4.188661,-8.22072 4.856699,-10.43185 3.606747,-11.93795 -2.058963,-2.4809 -6.38842,-1.27852 -13.33388,3.70308 C 73.459025,226.51932 72.5,228.87534 72.5,240.70637 72.5,249.00106 72.24492,250 70.126864,250 c -2.015523,0 -2.502338,-1.28655 -3.230532,-8.53758 -1.132432,-11.27628 0.991742,-16.40688 10.296523,-24.8696 l 7.182145,-6.53216 -5.387326,-0.0304 c -4.772532,-0.0269 -6.145514,0.68673 -12.031196,6.25317 -7.362157,6.96281 -13.929547,18.10601 -15.142845,25.69356 -0.496405,3.10435 -0.01869,7.73533 1.281577,12.42358 1.140143,4.1109 3.150502,11.41186 4.467466,16.22436 3.239448,11.83771 3.168255,21.02224 -0.205261,26.48072 -1.453421,2.35167 -2.898736,4.01963 -3.211811,3.70656 -0.313074,-0.31308 0.08313,-3.88506 0.88044,-7.93775 1.374801,-6.98798 1.181035,-8.3983 -3.752025,-27.30902 -4.317656,-16.55158 -5.071793,-21.14465 -4.43736,-27.0257 0.669537,-6.20646 0.205555,-8.51517 -3.741097,-18.61515 -5.789857,-14.81697 -6.737665,-21.98726 -3.444048,-26.05471 1.876635,-2.31755 3.160999,-2.81254 5.666248,-2.18376 4.966587,1.24654 10.726722,6.74135 14.151342,13.49951 l 3.096196,6.11005 4.632519,-3.14787 c 7.357537,-4.99958 13.646067,-4.35639 25.531071,2.61131 12.3453,7.23755 14.94767,6.9633 26.13704,-2.75443 9.65526,-8.38538 15.51891,-11.18633 19.56181,-9.34427 4.71802,2.14969 3.49241,6.87212 -5.40624,20.831 -7.0376,11.03952 -8.40832,14.13607 -9.47101,21.39557 -2.59077,17.69818 -9.10541,33.4989 -22.31076,54.11294 -3.30309,5.15625 -6.366366,11.34375 -6.80728,13.75 -2.252849,12.29476 -3.529284,16.25 -5.244196,16.25 -1.481945,0 -1.655012,-1.42444 -0.949205,-7.8125 z M 57.472547,216.54277 c -0.03753,-2.96338 -4.039488,-11.29483 -7.820958,-16.282 -2.869929,-3.78498 -3.280901,-3.95288 -5.13558,-2.09821 -3.01608,3.01608 -2.4605,8.33558 1.973926,18.89969 l 3.989936,9.5052 3.510064,-3.92845 c 1.930536,-2.16064 3.497711,-4.90394 3.482613,-6.09623 z M 167.5,222.8093 c 0,-1.84866 3.0837,-4.09425 10.06221,-7.32745 6.83903,-3.16856 8.68779,-6.22651 8.68779,-14.37004 0,-5.20014 -1.50344,-7.32316 -9.65023,-13.62717 -4.34371,-3.36118 -20.34977,-30.15959 -20.34977,-34.07093 0,-5.08066 4.47665,-1.32069 9.00034,7.55948 12.47447,24.48783 25.80051,34.65181 45.43218,34.65181 16.77768,0 23.03578,-5.45852 32.24477,-28.125 2.97252,-7.31636 4.29487,-12.57733 6.41887,-25.53738 1.11884,-6.8268 2.31935,-12.87367 2.66781,-13.4375 3.36252,-5.44065 4.0694,10.64708 1.09443,24.90714 -2.73581,13.11358 -6.28069,21.74455 -13.14768,32.01154 -5.78101,8.64335 -6.00166,9.28642 -4.80197,13.99541 1.59936,6.27779 3.46611,14.65579 3.53681,15.87329 0.03,0.51562 0.89819,0.9375 1.92944,0.9375 1.03125,0 1.875,0.5625 1.875,1.25 0,0.6875 1.26563,1.25861 2.8125,1.26914 3.71841,0.0254 6.47106,1.85626 5.39888,3.59111 -1.26207,2.04206 -8.4735,1.69206 -11.69998,-0.56785 -3.57159,-2.50164 -7.75639,-10.66849 -7.77846,-15.1801 -0.01,-1.91801 -0.3387,-4.68584 -0.73182,-6.15073 -0.6954,-2.59136 -0.88938,-2.61386 -7.17042,-0.83167 -3.55064,1.00746 -7.86195,2.23015 -9.5807,2.71708 -1.71875,0.48693 -6.21875,0.16686 -10,-0.71129 -10.30208,-2.39253 -10.82881,-2.25514 -11.69985,3.05181 -1.18794,7.23763 -5.20239,12.68866 -11.34608,15.4063 -6.95858,3.07813 -13.20407,4.36254 -13.20407,2.7155 z m -48.7136,-24.9968 c 0.02,-0.51563 1.12864,-4.875 2.4636,-9.6875 1.33496,-4.8125 2.44359,-10.961 2.4636,-13.66334 0.0281,-3.79581 1.41733,-6.92321 6.10779,-13.75 C 135.685,152.1774 142.5,135.16307 142.5,129.05824 c 0,-1.54453 0.4968,-2.80824 1.10401,-2.80824 0.6072,0 5.4871,-2.67187 10.8442,-5.9375 l 9.7402,-5.9375 -5.20291,-0.38358 c -4.04701,-0.29835 -8.42134,1.02074 -19.68965,5.9375 -7.96771,3.4766 -15.00629,6.32108 -15.6413,6.32108 -2.41345,0 -1.01229,-3.67974 2.28295,-5.99547 4.75292,-3.34013 25.55036,-11.385 33.62386,-13.00639 6.75515,-1.35663 11.91412,-4.76724 7.15419,-4.72966 -4.81956,0.038 -17.97865,3.76574 -25.64969,7.26601 -4.36747,1.99287 -9.28884,4.04567 -10.93637,4.56178 -2.69461,0.84411 -2.91605,0.64157 -2.20456,-2.01645 0.43501,-1.62515 0.79862,-3.35501 0.80801,-3.84414 0.01,-0.48913 2.14381,-1.46199 4.74319,-2.16193 2.59936,-0.69994 5.83373,-2.10998 7.1875,-3.13343 4.22645,-3.19522 -0.5573,-2.28432 -9.01407,1.71641 -7.05916,3.33956 -12.89956,3.93763 -12.89956,1.32095 0,-1.84444 9.36764,-6.706421 16.875,-8.758447 4.125,-1.127508 10.03125,-3.352792 13.125,-4.945077 5.34617,-2.751556 5.48596,-2.95713 2.82016,-4.147209 C 147.82137,86.7034 134.4673,90.312774 127.08398,94.995139 113.52789,103.59215 108.61384,115.91679 105.15255,150 c -0.82707,8.14416 -2.33057,13.54363 -6.439232,23.125 -2.948125,6.875 -6.424537,13.9425 -7.725359,15.70555 -2.515456,3.40929 -9.494968,8.07911 -10.529231,7.04485 -0.340004,-0.34001 1.986442,-4.42265 5.169881,-9.07254 C 97.67285,169.21045 100.3807,161.69846 102.49966,140 105.3689,110.61862 106.94353,105.86884 117.08653,95.999384 130.01622,83.418391 145.32965,80.191639 161.34807,86.672859 165.87076,88.502786 170.14296,90 170.84184,90 c 0.69888,0 2.27597,1.11082 3.50465,2.46849 4.03617,4.459924 0.0919,20.63335 -6.48163,26.57792 -1.32064,1.19427 -5.90397,3.92179 -10.18521,6.06114 -4.28123,2.13936 -8.56438,5.09972 -9.5181,6.5786 -0.95372,1.47886 -2.90277,7.42197 -4.33121,13.2069 -1.64883,6.67742 -3.84929,12.09114 -6.02625,14.82616 -7.40868,9.30784 -9.05409,12.23763 -9.05409,16.12149 0,3.50359 -0.88585,9.05566 -3.20649,20.0968 -0.4208,2.00206 -1.48477,2.8125 -3.69232,2.8125 -1.70566,0 -3.08481,-0.42188 -3.06479,-0.9375 z M 157.5,99.399402 c 3.09375,-0.430772 7.2807,-1.102958 9.30434,-1.493747 3.46808,-0.66973 3.54407,-0.809426 1.32358,-2.43309 -3.20398,-2.342815 -7.75188,-2.12223 -13.91121,0.674729 -5.4894,2.492748 -8.88239,5.898176 -4.68575,4.702936 1.28923,-0.36718 4.87529,-1.020054 7.96904,-1.450828 z m 43.48241,63.637488 c -1.14547,-2.51404 -1.1007,-4.07782 0.20577,-7.1875 0.91836,-2.18592 1.92961,-6.39639 2.2472,-9.3566 0.49868,-4.64805 0.94316,-5.33009 3.25853,-5 3.96683,0.56551 4.12142,6.18086 0.35563,12.91858 L 203.92599,160 l 5.46324,0 c 3.00477,0 5.86361,0.64784 6.35297,1.43962 1.37551,2.22563 -3.19604,4.81038 -8.50791,4.81038 -3.92906,0 -5.05049,-0.57635 -6.25188,-3.21311 z m 20.54573,-33.73277 c -1.88789,-1.32232 -2.77615,-3.225 -2.77193,-5.9375 l 0.006,-3.99162 2.8063,3.31975 c 5.73064,6.77915 11.43358,7.0165 18.11879,0.75409 l 2.8125,-2.63463 0,2.62717 c 0,6.55064 -14.2874,10.54472 -20.97186,5.86274 z M 188.75,126.25 c -1.375,-1.375 -2.5,-3.32478 -2.5,-4.33284 0,-1.468 0.87065,-1.31915 4.37374,0.74772 3.68536,2.17442 4.99348,2.36452 8.31152,1.20784 4.95043,-1.72572 4.81474,-1.74075 4.81474,0.53322 0,4.35146 -11.12493,5.71913 -15,1.84406 z m 66.55172,-5.40654 c -3.9835,-2.2123 -6.58162,-6.27254 -5.32,-8.31389 0.82404,-1.33332 1.87997,-0.9871 5.00232,1.64018 6.73732,5.66909 12.49017,3.81682 17.98235,-5.78988 4.13461,-7.23209 5.0474,-13.480493 2.76668,-18.939021 -2.59688,-6.215216 -7.37052,-6.368933 -18.14254,-0.584207 -3.73147,2.003847 -7.24709,3.643358 -7.81251,3.643358 -2.62197,0 -0.55555,-3.91413 3.9506,-7.483074 3.71272,-2.940517 6.70393,-4.121212 11.76386,-4.643443 12.77651,-1.318652 15.75244,1.394717 15.76371,14.372833 0.013,14.931304 -8.55623,27.802924 -18.44729,27.709394 -2.57615,-0.0244 -5.95437,-0.74988 -7.50718,-1.61225 z M 207.44732,98.717443 C 205.79867,97.698527 211.8124,92.5 214.63972,92.5 c 0.99143,0 3.44682,-1.644231 5.45643,-3.653846 C 225.9779,82.964411 224.50007,76.25 217.32377,76.25 c -4.82221,0 -5.40742,-1.85945 -1.54211,-4.899906 4.28984,-3.374389 4.96244,-3.298298 9.31449,1.053752 3.08164,3.081634 3.65385,4.650564 3.65385,10.018356 0,5.462792 -0.5868,7.004818 -4.14174,10.883922 -3.17724,3.466967 -5.49369,4.724587 -9.9473,5.400479 -3.19307,0.484586 -6.43921,0.489464 -7.21364,0.01087 z M 181.60615,84.746039 c -6.90416,-7.369859 -7.04113,-15.412138 -0.41199,-24.192363 6.76768,-8.963722 7.3888,-12.020367 3.12424,-15.374871 -3.84298,-3.022881 -6.70655,-2.699439 -15.5684,1.758458 -9.82571,4.942758 -15,12.244331 -15,21.166877 0,5.428552 -1.08705,8.14586 -3.25874,8.14586 -1.30064,0 -1.74126,-1.956136 -1.74126,-7.730345 0,-9.411616 3.28972,-16.927889 9.73387,-22.239701 C 163.25711,42.345445 175.80165,37.5 181.21459,37.5 c 6.91251,0 12.76663,7.952097 13.12601,17.830053 0.16122,4.431568 -0.10263,4.778772 -4.53895,5.973356 -2.59056,0.697567 -5.57446,2.502329 -6.63089,4.010581 -4.47233,6.385163 -0.59034,16.163648 7.22038,18.187608 5.51265,1.428471 4.98505,3.299689 -1.05575,3.744441 -3.94198,0.290225 -5.62543,-0.254284 -7.72924,-2.5 z m 62.97719,-1.829373 c -1.79357,-1.793559 -0.53713,-3.871802 7.28167,-12.044501 11.13109,-11.634915 12.29382,-18.373065 4.03894,-23.406266 -6.51087,-3.969845 -11.36146,-3.247872 -17.7514,2.642161 -5.77712,5.325174 -8.79757,5.491566 -7.83025,0.431359 0.5208,-2.724395 0.22238,-2.630495 -4.50785,1.418403 -4.21089,3.604365 -5.24476,4.015754 -6.12759,2.438228 -0.75137,-1.342635 0.0785,-3.085753 2.83722,-5.959383 4.95832,-5.164871 6.46585,-8.892862 5.0752,-12.550538 -2.75123,-7.23627 -11.07518,-8.999413 -19.41444,-4.11228 -3.12667,1.832345 -5.68484,3.780035 -5.68484,4.3282 0,1.186551 -6.32805,4.236566 -7.1287,3.435915 -1.20811,-1.208106 3.62017,-8.344915 7.80509,-11.536902 7.9699,-6.078947 21.73229,-5.376096 28.13262,1.436748 2.21183,2.35438 2.85495,4.329986 2.63318,8.088724 -0.33383,5.657474 -0.61327,5.554822 8.51136,3.126588 7.25474,-1.930623 10.99191,-1.549881 16.72791,1.704242 3.82938,2.172462 8.31854,9.66973 8.31854,13.892636 0,4.45693 -4.43832,11.565565 -12.29203,19.6875 -7.39808,7.650754 -8.94011,8.663691 -10.62463,6.979166 z"
       style="fill:#000000" />
    <path
       inkscape:connector-curvature="0"
       id="path4068-5"
       d="M 83.87007,123.63086 65.878242,160.05822"
       style="fill:#000000;fill-opacity:1;stroke:#000000;stroke-width:6.82375097;stroke-linecap:butt;stroke-linejoin:miter;stroke-miterlimit:4;stroke-opacity:1;stroke-dasharray:none;marker-end:url(#TriangleOutM-8)" />
    <g
       id="text4970"
       style="font-size:50px;font-style:normal;font-variant:normal;font-weight:normal;font-stretch:normal;text-align:start;line-height:125%;letter-spacing:0px;word-spacing:0px;writing-mode:lr-tb;text-anchor:start;fill:#000000;fill-opacity:1;stroke:none;font-family:Veranda;-inkscape-font-specification:'Veranda, Normal'">
      <path
         id="path4979"
         d="m 89.62278,82.978851 8.05664,0 0,-27.807617 -8.764648,1.757813 0,-4.492188 8.71582,-1.757812 4.931638,0 0,32.299804 8.05664,0 0,4.150391 -20.99609,0 0,-4.150391 z"
         inkscape:connector-curvature="0" />
    </g>
    <g
       id="text4974"
       style="font-size:50px;font-style:normal;font-variant:normal;font-weight:normal;font-stretch:normal;text-align:start;line-height:125%;letter-spacing:0px;word-spacing:0px;writing-mode:lr-tb;text-anchor:start;fill:#000000;fill-opacity:1;stroke:none;font-family:Veranda;-inkscape-font-specification:'Veranda, Normal'">
      <path
         id="path4982"
         d="m 18.863794,279.48309 17.211914,0 0,4.15039 -23.144531,0 0,-4.15039 q 2.807617,-2.90527 7.641602,-7.78808 4.858398,-4.90723 6.103515,-6.32324 2.368164,-2.66114 3.295899,-4.49219 0.952148,-1.85547 0.952148,-3.6377 0,-2.90527 -2.050781,-4.73633 -2.026367,-1.83105 -5.297852,-1.83105 -2.319336,0 -4.907226,0.80566 -2.563477,0.80567 -5.493164,2.44141 l 0,-4.98047 q 2.978515,-1.19629 5.566406,-1.80664 2.587891,-0.61035 4.736328,-0.61035 5.664063,0 9.033203,2.83203 3.369141,2.83203 3.369141,7.56836 0,2.24609 -0.854492,4.27246 -0.830078,2.00195 -3.051758,4.73633 -0.610352,0.70801 -3.881836,4.10156 -3.271484,3.36914 -9.228516,9.44824 z"
         inkscape:connector-curvature="0" />
    </g>
    <g
       id="text4992"
       style="font-size:60px;font-style:normal;font-variant:normal;font-weight:normal;font-stretch:normal;text-align:start;line-height:125%;letter-spacing:0px;word-spacing:0px;writing-mode:lr-tb;text-anchor:start;fill:#000000;fill-opacity:1;stroke:none;font-family:Comfortaa;-inkscape-font-specification:Comfortaa">
      <path
         id="path4997"
         d="m 184.93246,353.45453 q 0.67383,-0.67383 1.64063,-0.67383 0.9668,0 1.66992,0.67383 0.43945,0.46875 0.61524,1.08398 l 7.08984,21.29883 7.23633,-21.70898 q 0.17578,-0.35157 0.49804,-0.67383 0.67383,-0.67383 1.64063,-0.67383 0.9668,0 1.64062,0.70313 0.70313,0.67382 0.70313,1.64062 0,0.46875 -0.17578,0.9082 l -9.3457,28.06641 q -0.17579,0.43945 -0.52735,0.84961 -0.70312,0.64453 -1.66992,0.64453 -0.9668,0 -1.64063,-0.64453 -0.38085,-0.41016 -0.55664,-0.84961 l -7.17773,-21.5625 -7.17773,21.5625 q -0.17579,0.43945 -0.52735,0.84961 -0.70312,0.64453 -1.66992,0.64453 -0.9668,0 -1.64063,-0.64453 -0.38085,-0.41016 -0.55664,-0.84961 l -9.3457,-28.06641 q -0.17578,-0.43945 -0.17578,-0.9082 0,-0.9668 0.67383,-1.64062 0.70312,-0.70313 1.66992,-0.70313 0.9668,0 1.66992,0.67383 0.29297,0.32226 0.46875,0.67383 l 7.23633,21.70898 7.08984,-21.29883 q 0.20508,-0.61523 0.64453,-1.08398 z"
         inkscape:connector-curvature="0" />
      <path
         id="path4999"
         d="m 212.35434,341.06195 q 0,-0.9668 0.67383,-1.64062 0.70312,-0.70313 1.66992,-0.70313 0.9668,0 1.64062,0.70313 0.70313,0.67382 0.70313,1.64062 l 0,15.9668 q 4.39453,-4.24805 10.54687,-4.24805 6.29883,0 10.75196,4.48242 4.48242,4.45313 4.48242,10.75196 l 0,15.23437 q 0,0.9668 -0.70313,1.66992 -0.67382,0.67383 -1.64062,0.67383 -0.9668,0 -1.66992,-0.67383 -0.67383,-0.70312 -0.67383,-1.66992 l 0,-15.23437 q 0,-4.36524 -3.10547,-7.44141 -3.07617,-3.10547 -7.44141,-3.10547 -4.36523,0 -7.4707,3.10547 -3.07617,3.07617 -3.07617,7.44141 l 0,15.23437 q 0,0.9668 -0.70313,1.66992 -0.67382,0.67383 -1.64062,0.67383 -0.9668,0 -1.66992,-0.67383 -0.67383,-0.70312 -0.67383,-1.66992 l 0,-42.1875 z"
         inkscape:connector-curvature="0" />
      <path
         id="path5001"
         d="m 259.02426,383.22015 -11.25,-27.01171 q -0.26367,-0.49805 -0.26367,-1.08399 0,-0.9668 0.67383,-1.64062 0.70312,-0.70313 1.66992,-0.70313 0.9668,0 1.66992,0.67383 0.38086,0.41016 0.55664,0.87891 l 9.49219,22.76367 9.49219,-22.76367 q 0.17578,-0.46875 0.58593,-0.87891 0.67383,-0.67383 1.64063,-0.67383 0.9668,0 1.64062,0.70313 0.70313,0.67382 0.70313,1.64062 0,0.58594 -0.26367,1.08399 l -17.46094,41.89453 q -0.17578,0.46875 -0.55664,0.84961 -0.70313,0.70312 -1.66992,0.70312 -0.9668,0 -1.66992,-0.70312 -0.67383,-0.67383 -0.67383,-1.64063 0,-0.58594 0.26367,-1.08398 l 5.41992,-13.00782 z"
         inkscape:connector-curvature="0" />
    </g>
  </g>
</svg>
