<?xml version="1.0" encoding="UTF-8" standalone="no"?>
<!-- Created with Inkscape (http://www.inkscape.org/) -->

<svg
   xmlns:dc="http://purl.org/dc/elements/1.1/"
   xmlns:cc="http://creativecommons.org/ns#"
   xmlns:rdf="http://www.w3.org/1999/02/22-rdf-syntax-ns#"
   xmlns:svg="http://www.w3.org/2000/svg"
   xmlns="http://www.w3.org/2000/svg"
   xmlns:sodipodi="http://sodipodi.sourceforge.net/DTD/sodipodi-0.dtd"
   xmlns:inkscape="http://www.inkscape.org/namespaces/inkscape"
   id="svg2"
   version="1.1"
   inkscape:version="0.48+devel r12701"
   width="421.5"
   height="375.31754"
   viewBox="0 0 421.5 375.31754"
   sodipodi:docname="ASL_who.svg">
  <title
     id="title4136">ASL whp</title>

  <metadata
     id="metadata8">
    <rdf:RDF>
      <cc:Work
         rdf:about="">
        <dc:format>image/svg+xml</dc:format>
        <dc:type
           rdf:resource="http://purl.org/dc/dcmitype/StillImage" />
        <dc:title>ASL word</dc:title>
        <dc:date>11/03/2013</dc:date>
        <dc:creator>
          <cc:Agent>
            <dc:title>Paul Sherman</dc:title>
          </cc:Agent>
        </dc:creator>
        <dc:rights>
          <cc:Agent>
            <dc:title>PD</dc:title>
          </cc:Agent>
        </dc:rights>
        <dc:publisher>
          <cc:Agent>
            <dc:title>WPClipart</dc:title>
          </cc:Agent>
        </dc:publisher>
        <dc:subject>
          <rdf:Bag>
            <rdf:li>ASL</rdf:li>
            <rdf:li>sign</rdf:li>
            <rdf:li>language</rdf:li>
            <rdf:li>bathroom</rdf:li>
          </rdf:Bag>
        </dc:subject>
        <cc:license
           rdf:resource="http://creativecommons.org/publicdomain/zero/1.0/" />
      </cc:Work>
      <cc:License
         rdf:about="http://creativecommons.org/publicdomain/zero/1.0/">
        <cc:permits
           rdf:resource="http://creativecommons.org/ns#Reproduction" />
        <cc:permits
           rdf:resource="http://creativecommons.org/ns#Distribution" />
        <cc:permits
           rdf:resource="http://creativecommons.org/ns#DerivativeWorks" />
      </cc:License>
    </rdf:RDF>
  </metadata>
  <defs
     id="defs6" />
  <sodipodi:namedview
     pagecolor="#ffffff"
     bordercolor="#666666"
     borderopacity="1"
     objecttolerance="10"
     gridtolerance="10"
     guidetolerance="10"
     inkscape:pageopacity="0"
     inkscape:pageshadow="2"
     inkscape:window-width="1170"
     inkscape:window-height="984"
     id="namedview4"
     showgrid="false"
     inkscape:zoom="0.70447761"
     inkscape:cx="213.58898"
     inkscape:cy="195.81754"
     inkscape:window-x="0"
     inkscape:window-y="0"
     inkscape:window-maximized="0"
     inkscape:current-layer="svg2"
     fit-margin-top="12"
     fit-margin-left="12"
     fit-margin-bottom="12"
     fit-margin-right="12" />
  <rect
     style="fill:#ffffff;fill-opacity:1;stroke:none"
     id="rect4132"
     width="447.13983"
     height="404.55508"
     x="-8.5169516"
     y="-9.3646679" />
  <g
     id="g4121"
     transform="translate(12,12)">
    <g
       id="g4064">
      <path
         inkscape:connector-curvature="0"
         id="path4068"
         d="M 0,167.5 0,0 198.75,0 397.5,0 l 0,167.5 0,167.5 -198.75,0 L 0,335 0,167.5 Z"
         style="fill:#fafafa" />
      <path
         inkscape:connector-curvature="0"
         id="path4066"
         d="m 156.29397,280.08217 c -0.71168,-1.32979 -1.29827,-3.43917 -1.30352,-4.6875 -0.005,-1.24832 -1.13124,-5.92592 -2.5022,-10.39467 -1.37095,-4.46875 -3.03448,-11.21875 -3.69673,-15 -2.1594,-12.32956 -6.1367,-30.26184 -6.8759,-31.00104 -0.39732,-0.39732 -3.58253,0.30609 -7.07825,1.56313 -6.15683,2.21396 -6.67457,2.21397 -16.53411,4.1e-4 -8.39578,-1.88494 -10.89881,-3.03515 -14.29272,-6.56791 C 99.44571,209.24301 93.75,198.8502 93.75,195.27245 c 0,-3.49995 11.05508,-24.01461 15.81015,-29.33855 6.09806,-6.8276 5.55679,-9.03341 -4.68503,-19.09243 C 96.534828,138.65004 91.25,130.21325 91.25,125.0901 c 0,-3.40449 4.119335,-6.3401 8.89662,-6.3401 5.52844,0 12.26991,3.45245 19.18131,9.82316 6.69115,6.16768 29.08418,17.25443 31.61355,15.6518 0.95482,-0.60497 2.69103,-3.92422 3.85825,-7.3761 2.16158,-6.39256 6.69116,-13.75122 10.15437,-16.49661 2.21075,-1.75252 8.64608,-2.05529 11.06623,-0.52065 0.90492,0.57382 2.38093,3.18307 3.28001,5.79831 1.35139,3.93093 1.34475,5.96728 -0.0383,11.75004 -2.00643,8.3892 -2.15018,16.29616 -0.4318,23.75065 0.69802,3.02808 1.45357,7.96925 1.679,10.98039 0.22542,3.01112 0.62494,5.6195 0.88781,5.79639 0.26288,0.17688 2.8676,1.85242 5.78829,3.72342 2.92069,1.871 6.29569,5.30116 7.5,7.62257 1.20431,2.32143 6.00915,8.61393 10.67741,13.98334 10.16076,11.68686 16.4895,22.8053 24.66398,43.33013 6.4206,16.12112 6.47361,18.63301 0.34773,16.47865 -2.42586,-0.85313 -3.9768,-2.78652 -5.45973,-6.80607 -1.13923,-3.08793 -3.753,-9.27067 -5.80838,-13.73942 -2.05537,-4.46875 -5.0481,-11.45209 -6.6505,-15.51854 -3.43146,-8.70808 -13.00524,-21.07292 -27.48388,-35.49627 l -10.42963,-10.38983 -0.30785,-8.50146 c -0.16933,-4.6758 -1.19135,-10.61595 -2.27118,-13.20034 -2.57048,-6.15205 -2.47875,-9.27219 0.59467,-20.22517 1.95277,-6.95927 2.23811,-9.71375 1.20602,-11.64224 -4.41571,-8.25082 -13.56535,4.17529 -15.60461,21.1926 -0.89446,7.46417 -2.32305,10.03125 -5.58243,10.03125 -1.3756,0 -3.06785,2.29813 -4.83238,6.5625 l -2.71546,6.5625 3.00373,7.5 c 3.5338,8.82357 5.04405,21.46962 3.50808,29.375 -1.40222,7.21694 0.32643,21.43332 4.20208,34.55797 1.65384,5.60064 3.00699,12.08914 3.00699,14.4189 0,2.32975 1.36746,8.41076 3.03881,13.51333 1.67135,5.10258 2.76317,9.72345 2.42624,10.26861 -1.20199,1.94485 -6.64096,0.96527 -7.92107,-1.42664 z M 118.75,209.94849 c 0,-2.89368 -11.9466,-19.9785 -13.73565,-19.64335 -4.59171,0.8602 -2.88759,9.14092 3.28783,15.97637 4.25246,4.70697 10.44782,6.88141 10.44782,3.66698 z m 15.72865,-2.89285 c 0.6301,-1.64201 -1.85099,-6.76582 -7.65351,-15.80564 -1.54454,-2.40625 -4.16045,-6.86821 -5.81314,-9.91547 -3.64941,-6.72888 -6.01929,-7.91564 -5.99318,-3.00119 0.0666,12.53192 16.41382,36.66008 19.45983,28.7223 z M 142.25,199.75 c 2.45347,-2.45348 1.73554,-7.13906 -2.43303,-15.87895 -2.16317,-4.53533 -4.19783,-10.8591 -4.52147,-14.05282 -0.51349,-5.06702 -0.25544,-5.91248 2.02555,-6.63643 1.4377,-0.45631 3.76522,-2.4464 5.17227,-4.42243 l 2.55829,-3.59278 -4.08831,-3.10012 c -2.24856,-1.70506 -8.5772,-5.74704 -14.06364,-8.98218 -5.48644,-3.23514 -13.18995,-8.06508 -17.11892,-10.73318 -3.92896,-2.66811 -7.45568,-4.85111 -7.83715,-4.85111 -0.38148,0 -0.69359,1.38597 -0.69359,3.07994 0,2.08825 1.34443,4.00002 4.17546,5.9375 6.00961,4.1128 20.82454,17.92415 20.82454,19.41385 0,0.69443 -0.77596,1.90658 -1.72436,2.69368 -3.38582,2.80999 -3.43956,8.68163 -0.13625,14.88688 1.71083,3.21379 3.11061,6.29662 3.11061,6.85075 0,0.55413 2.01331,4.1548 4.47401,8.00151 2.46072,3.8467 4.97804,8.31969 5.59407,9.93995 1.25086,3.29 2.46338,3.66448 4.68192,1.44594 z m 87.33334,18.16666 c -1.88847,-1.88845 -0.575,-5.17207 3.69361,-9.23395 4.54096,-4.32105 11.72021,-17.4499 11.72206,-21.4364 0.001,-3.07501 2.57157,-8.25592 4.45391,-8.97825 3.82757,-1.46877 4.17593,2.44996 1.22479,13.77763 -4.42688,16.99213 -7.70849,22.93197 -13.80271,24.9835 -5.80304,1.9535 -6.17979,1.99935 -7.29166,0.88747 z m 158.7329,-26.16853 c -4.08817,-8.57298 -12.12834,-17.89889 -22.16475,-25.70925 -28.58198,-22.24255 -29.10293,-22.72997 -33.32167,-31.17627 -3.20147,-6.40967 -4.31298,-10.68153 -5.32922,-20.48185 -1.11431,-10.74612 -1.02389,-12.63899 0.68407,-14.31939 1.77877,-1.750064 2.14118,-1.702915 3.76673,0.49004 0.98922,1.33453 1.81032,4.70953 1.82465,7.5 0.0457,8.9028 3.11405,20.19869 7.36479,27.11295 3.25511,5.2948 7.98746,9.6282 22.42985,20.53901 21.29945,16.09111 28.8126,24.91097 28.88637,33.91035 0.0559,6.81375 -1.52165,7.62688 -4.14082,2.1344 z M 227.5,164.92076 C 212.98044,162.39136 206.37974,157.99281 197.60587,145 185.20011,126.62887 182.44398,117.32851 182.2328,93.125 c -0.17868,-20.479309 1.63676,-38.233124 5.49627,-53.75 2.83468,-11.396621 3.89462,-13.125 8.04898,-13.125 3.60175,0 3.62596,0.538544 0.49704,11.055954 C 193.42848,46.87438 190,68.910767 190,77.638795 c 0,3.27165 -0.47851,7.2507 -1.06337,8.84233 -0.95074,2.587376 1.30146,26.427505 2.90086,30.706375 1.14686,3.06819 7.86104,1.59562 15.19116,-3.33176 5.6022,-3.76585 7.79275,-4.6203 9.5011,-3.70602 1.22114,0.65353 2.22025,1.65509 2.22025,2.22569 0,2.8043 -5.95229,7.95137 -13.18984,11.40554 -4.43309,2.11571 -8.06016,4.6257 -8.06016,5.57775 0,2.93867 10.56614,17.36297 14.82789,20.24219 2.21913,1.49925 8.08756,4.0305 13.04095,5.625 14.18776,4.56709 27.61666,3.59407 49.63116,-3.59608 9.1892,-3.00129 12.07214,-3.2978 12.8312,-1.31969 1.56157,4.06939 -4.00361,7.12873 -21.0017,11.5452 -13.87242,3.60437 -29.32308,4.80863 -39.3295,3.06544 z M 241.66662,55.680195 C 236.11937,53.267063 232.5,49.296845 232.5,45.625 c 0,-3.881844 2.78385,-4.085782 8.46771,-0.620328 2.25099,1.37243 5.68813,2.495328 7.63806,2.495328 4.23573,0 11.78824,-4.874223 17.16824,-11.080004 3.39664,-3.917987 4.16166,-4.279491 5.9375,-2.805679 3.15681,2.619925 2.46356,5.525233 -2.93684,12.30785 -3.36171,4.222139 -6.98412,7.112908 -11.16922,8.913286 -7.14398,3.073257 -10.41719,3.246733 -15.93883,0.844742 z"
         style="fill:#3d3d3d" />
    </g>
    <path
       inkscape:connector-curvature="0"
       id="path4074"
       d="m 18.354645,132.97916 c 2.758386,1.11631 3.314451,2.37497 3.57856,8.1001 0.167855,3.63856 0.719347,5.78771 1.48343,5.78084 0.668932,-0.006 6.985876,-5.34894 14.037647,-11.8732 12.099373,-11.19426 12.944943,-11.84012 15.015147,-11.46882 1.870259,0.33544 2.259788,0.72441 2.641551,2.63765 0.436767,2.18886 0.126797,2.54942 -12.574398,14.62682 -9.364776,8.90484 -12.813134,12.57392 -12.277823,13.06372 0.409409,0.37458 3.440115,0.74079 6.734904,0.81378 6.078419,0.13466 8.371943,1.16209 8.398786,3.76241 0.0339,3.28407 -2.783747,3.99619 -15.888569,4.01564 -7.268355,0.0108 -13.708407,-0.43166 -14.311221,-0.98321 -1.165944,-1.06679 -1.836508,-8.78068 -1.683677,-19.3684 0.09676,-6.70363 1.990474,-10.26281 4.845663,-9.10733 z"
       style="fill:#000000" />
    <path
       inkscape:connector-curvature="0"
       id="path4074-9"
       d="m 39.361815,183.08847 c 2.758386,1.11631 3.314451,2.37497 3.57856,8.1001 0.167855,3.63856 0.719347,5.78771 1.48343,5.78084 0.668932,-0.006 6.985876,-5.34894 14.037647,-11.8732 12.099373,-11.19426 12.944943,-11.84012 15.015147,-11.46882 1.870259,0.33544 2.259788,0.72441 2.641551,2.63765 0.436767,2.18886 0.126797,2.54942 -12.574398,14.62682 -9.364776,8.90484 -12.813134,12.57392 -12.277823,13.06372 0.409409,0.37458 3.440115,0.74079 6.734904,0.81378 6.078419,0.13466 8.371943,1.16209 8.398786,3.76241 0.0339,3.28407 -2.783747,3.99619 -15.888569,4.01564 -7.268355,0.0108 -13.708407,-0.43166 -14.311221,-0.98321 -1.165944,-1.06679 -1.836508,-8.78068 -1.683677,-19.3684 0.09676,-6.70363 1.990474,-10.26281 4.845663,-9.10733 z"
       style="fill:#000000" />
    <g
       id="text4110"
       style="font-size:60px;font-style:normal;font-variant:normal;font-weight:500;font-stretch:normal;text-align:start;line-height:125%;letter-spacing:0px;word-spacing:0px;writing-mode:lr-tb;text-anchor:start;fill:#000000;fill-opacity:1;stroke:none;font-family:Sazanami Gothic;-inkscape-font-specification:'Sazanami Gothic, Medium'">
      <path
         id="path4115"
         d="m 166.13911,319.32535 4.92188,0 3.86719,19.45312 3.75,-19.45312 4.92187,0 3.75,19.45312 3.86719,-19.45312 4.92187,0 -6.32812,31.99219 -4.92188,0 -3.75,-19.33594 -3.75,19.33594 -4.92187,0 -6.32813,-31.99219 z"
         inkscape:connector-curvature="0" />
      <path
         id="path4117"
         d="m 205.45552,351.31754 -5.03906,0 0,-44.64844 5.03906,0 0,17.63672 q 4.27734,-4.86328 8.49609,-4.86328 3.16407,0 6.50391,2.28515 3.39844,2.28516 3.39844,9.02344 l 0,20.56641 -5.03906,0 0,-20.56641 q 0,-3.92578 -1.46485,-5.21484 -1.46484,-1.34766 -4.45312,-1.34766 -2.40235,0 -4.7461,2.40234 -2.28515,2.34375 -2.69531,6.50391 l 0,18.22266 z"
         inkscape:connector-curvature="0" />
      <path
         id="path4119"
         d="m 227.83833,335.02847 q 0,-5.97656 3.75,-10.78125 3.8086,-4.80468 9.66797,-4.80468 5.85938,0 9.66797,4.80468 3.80859,4.80469 3.80859,10.83985 0,6.5039 -3.80859,11.30859 -3.80859,4.80469 -9.66797,4.80469 -5.85937,0 -9.66797,-4.80469 -3.75,-4.80469 -3.75,-11.36719 z m 5.39063,0.0586 q 0,5.80078 2.46094,8.61328 2.46093,2.7539 5.5664,2.7539 3.10547,0 5.56641,-2.7539 2.51953,-2.8125 2.51953,-8.67188 0,-5.5664 -2.51953,-8.20312 -2.46094,-2.63672 -5.56641,-2.63672 -3.10547,0 -5.5664,2.63672 -2.46094,2.63672 -2.46094,8.26172 z"
         inkscape:connector-curvature="0" />
    </g>
  </g>
</svg>
