<?xml version="1.0" standalone="no"?>
<!DOCTYPE svg PUBLIC "-//W3C//DTD SVG 20010904//EN"
 "http://www.w3.org/TR/2001/REC-SVG-20010904/DTD/svg10.dtd">
<svg version="1.0" xmlns="http://www.w3.org/2000/svg"
 width="755.000000pt" height="755.000000pt" viewBox="0 0 755.000000 755.000000"
 preserveAspectRatio="xMidYMid meet">
<metadata>
Created by potrace 1.11, written by Peter Selinger 2001-2013
</metadata>
<g transform="translate(0.000000,755.000000) scale(0.100000,-0.100000)"
fill="#000000" stroke="none">
<path d="M2937 7384 c-1 -1 -24 -4 -52 -8 -27 -3 -70 -10 -95 -17 -25 -6 -54
-13 -65 -15 -24 -5 -40 -8 -120 -28 -33 -8 -116 -23 -185 -35 -134 -21 -203
-31 -325 -46 -27 -3 -66 -8 -85 -10 -39 -5 -110 -12 -220 -21 -41 -3 -97 -7
-125 -10 -287 -23 -710 -23 -830 0 -12 2 -32 -6 -48 -20 l-27 -23 22 -12 c13
-7 25 -15 28 -18 3 -4 39 -29 80 -55 41 -27 86 -56 100 -65 26 -18 314 -161
324 -161 3 0 29 -11 58 -24 29 -13 118 -50 198 -81 80 -32 149 -61 155 -66 5
-5 15 -9 22 -9 7 0 37 -11 67 -25 30 -14 61 -25 68 -25 13 0 -201 -209 -215
-210 -21 -1 -146 70 -187 107 -27 24 -53 43 -58 43 -23 0 -31 -170 -18 -365 7
-100 6 -112 -11 -130 -27 -29 -36 -55 -18 -55 8 0 15 5 15 12 0 6 3 9 6 5 8
-8 -30 -88 -55 -115 -31 -31 -96 -71 -112 -68 -8 1 -32 8 -54 14 -22 7 -56 17
-75 22 -42 12 -273 78 -315 91 -16 5 -33 9 -37 9 -4 0 -72 -65 -151 -143 -151
-151 -152 -153 -102 -184 67 -41 184 -92 211 -91 17 1 36 -2 41 -5 6 -4 40 -7
77 -8 36 -1 63 -5 60 -10 -3 -5 -10 -9 -16 -9 -14 0 -129 -83 -150 -109 -70
-83 -91 -154 -94 -304 -2 -107 -1 -118 17 -127 24 -13 47 -2 82 40 34 40 39
38 21 -12 -19 -54 -25 -165 -12 -220 5 -24 11 -50 13 -59 5 -25 44 -98 78
-149 48 -70 80 -84 101 -42 12 25 31 108 42 192 2 19 13 62 23 95 l19 60 2
-65 c2 -81 8 -132 26 -205 27 -113 95 -235 184 -326 79 -82 89 -69 86 116 -2
76 1 130 5 120 4 -11 17 -51 29 -90 64 -206 216 -418 286 -401 23 6 26 11 22
41 l-4 34 42 -37 c23 -20 43 -41 43 -45 1 -5 12 -23 25 -40 13 -18 28 -50 33
-72 10 -41 10 -134 -1 -160 -8 -22 -85 -20 -102 3 -8 10 -13 12 -14 5 0 -7 -8
-13 -18 -13 -10 0 -22 -3 -26 -7 -3 -4 -16 -8 -27 -10 -43 -7 -176 -57 -232
-88 -186 -101 -347 -276 -455 -491 -46 -91 -97 -247 -118 -359 -28 -149 -26
-443 4 -580 80 -363 241 -646 529 -932 83 -82 122 -129 149 -180 58 -109 152
-216 271 -306 23 -18 43 -34 43 -37 0 -3 -32 -6 -72 -7 -99 -3 -167 -25 -210
-67 -20 -19 -49 -38 -64 -42 -41 -10 -120 -94 -133 -140 -14 -50 -14 -87 0
-79 6 4 32 8 59 10 43 3 49 1 54 -19 14 -56 125 -146 181 -146 8 0 32 -11 53
-24 45 -29 85 -38 166 -38 36 0 67 -5 76 -13 48 -41 197 -57 286 -30 24 7 44
11 44 10 0 -14 201 72 256 109 29 20 44 21 207 20 159 -1 178 -3 204 -22 58
-41 185 -93 288 -117 112 -26 246 -12 295 30 8 7 37 13 65 13 78 -1 141 11
170 34 14 11 48 26 75 33 76 20 146 80 164 142 6 20 12 21 67 17 l61 -4 -5 33
c-10 74 -83 166 -144 182 -14 3 -41 22 -61 41 -40 39 -112 64 -191 67 -28 1
-51 5 -51 8 0 3 20 20 46 38 77 56 181 166 231 245 59 91 116 193 119 209 1 7
8 42 15 79 l14 68 75 0 c81 0 120 7 120 21 0 16 74 108 88 108 6 1 12 8 12 16
0 8 18 42 41 75 105 155 209 405 244 590 20 106 34 150 46 150 5 0 9 5 9 11 0
11 67 109 81 119 4 3 9 12 11 19 3 16 23 44 53 74 11 11 14 16 6 12 -9 -5 -7
2 5 18 10 15 22 27 27 27 4 0 7 6 7 13 0 7 8 20 18 29 28 27 40 44 56 79 15
33 32 61 49 83 7 9 49 72 102 155 6 9 17 21 25 28 8 7 11 13 7 13 -5 0 -2 7 5
15 26 28 34 40 41 58 3 9 11 17 17 17 6 0 8 5 5 10 -3 6 0 17 7 25 23 25 33
39 47 68 8 15 18 27 23 27 5 0 6 4 3 10 -3 6 -1 10 5 10 6 0 8 5 5 10 -3 6 1
13 9 16 9 3 16 12 16 20 0 8 3 14 8 14 4 0 18 20 32 45 14 25 27 45 31 45 3 0
16 21 28 46 13 25 29 48 37 51 8 3 14 11 14 19 0 8 5 14 10 14 6 0 10 7 10 15
0 8 3 15 8 15 4 0 13 13 20 28 6 16 20 37 30 48 10 10 19 24 20 29 0 6 12 24
26 42 15 18 26 35 26 38 0 8 43 68 55 77 6 4 6 8 2 8 -4 0 -3 6 3 13 34 39
110 152 110 163 0 8 4 14 9 14 5 0 22 20 38 45 15 25 32 45 36 45 5 0 5 5 2
10 -3 6 -1 10 4 10 6 0 11 4 11 10 0 5 18 33 40 62 22 29 40 57 40 61 0 4 8
17 18 28 11 10 25 32 33 47 8 15 17 29 20 32 3 3 34 48 69 100 34 52 67 97 72
98 4 2 6 7 3 12 -2 4 5 18 16 31 19 21 56 73 84 118 29 46 50 77 56 81 4 3 15
19 25 35 64 104 65 105 135 105 43 0 64 20 53 52 -8 26 -35 49 -47 41 -5 -3
-4 4 2 16 7 11 16 21 22 21 6 0 8 4 4 9 -3 5 1 15 8 23 17 17 94 131 95 141 1
4 7 14 15 21 8 8 29 38 47 68 19 29 41 62 50 73 10 11 26 36 36 55 10 19 26
42 34 50 9 8 28 36 43 63 15 26 32 47 37 47 5 0 6 7 3 17 -4 11 -3 14 5 9 7
-4 12 -1 12 9 0 8 7 18 15 21 8 4 15 10 15 15 0 5 38 61 85 124 47 63 82 115
78 115 -4 0 2 6 12 14 26 19 26 84 0 99 -38 22 -67 19 -92 -7 -13 -14 -23 -29
-23 -33 0 -4 -11 -21 -25 -37 -14 -16 -25 -35 -25 -43 0 -7 -4 -13 -10 -13 -5
0 -10 -6 -10 -14 0 -8 -4 -16 -8 -18 -5 -1 -33 -37 -62 -78 -60 -84 -189 -259
-205 -276 -5 -6 -17 -22 -25 -34 -8 -12 -42 -58 -75 -103 -33 -44 -67 -90 -75
-101 -8 -12 -25 -32 -37 -46 -13 -14 -23 -28 -23 -33 0 -4 -5 -13 -10 -20 -18
-21 -64 -84 -80 -108 -29 -44 -49 -58 -72 -53 -21 4 -117 11 -268 19 -30 1
-66 5 -80 9 -14 3 -52 9 -85 12 -33 3 -71 10 -85 15 -14 5 -34 11 -45 13 -40
8 -134 47 -145 61 -10 12 -7 13 20 5 18 -5 80 -10 139 -12 127 -3 151 6 151
57 0 18 -5 37 -11 40 -5 4 -56 8 -112 10 -152 6 -188 10 -258 35 -79 27 -120
49 -139 75 -20 28 -61 66 -95 92 -17 12 -26 25 -22 30 5 4 13 0 18 -10 6 -9
16 -17 24 -17 7 0 20 -6 27 -14 8 -7 34 -24 59 -36 24 -13 47 -28 51 -34 4 -6
8 -7 8 -3 0 4 8 3 18 -2 17 -9 61 -18 137 -27 22 -3 56 -9 75 -13 19 -5 155
-8 301 -7 234 1 268 3 282 18 21 20 22 58 3 83 -13 18 -30 20 -288 21 -151 0
-279 3 -284 7 -6 3 -35 9 -65 12 -77 8 -153 31 -240 73 -71 34 -77 40 -89 79
-6 23 -30 63 -52 87 l-39 45 3 238 c2 131 -1 253 -5 271 l-9 34 79 -2 c117 -3
124 -1 68 21 -53 20 -80 32 -160 69 -27 13 -53 24 -56 24 -7 1 -306 153 -344
175 -16 10 -66 37 -110 61 -44 24 -89 48 -100 54 -11 6 -22 13 -25 16 -6 6
-50 31 -105 59 -22 12 -58 32 -80 45 -22 13 -76 43 -120 66 -44 24 -85 47 -91
52 -25 19 -365 187 -470 231 -206 87 -411 154 -524 172 -41 7 -187 14 -193 9z
m2094 -1101 c9 -28 10 -94 5 -263 l-6 -225 -34 -30 c-49 -43 -69 -88 -64 -144
3 -25 8 -54 12 -63 5 -10 -35 25 -88 76 -107 105 -96 102 -212 66 l-60 -18
-107 26 c-59 14 -107 30 -107 34 0 47 -194 399 -239 434 -30 23 10 39 129 50
14 1 25 3 25 4 0 1 14 4 30 6 17 3 53 9 80 14 28 5 70 12 95 16 25 3 47 8 49
10 2 2 14 -4 25 -13 20 -17 20 -17 7 0 -12 15 -10 17 23 18 20 1 39 2 44 3 12
3 115 16 166 22 28 2 51 6 52 7 1 1 38 3 82 5 l80 3 13 -38z m-4161 -533 c36
-6 72 -13 80 -16 11 -4 -169 -56 -218 -64 -6 -1 8 54 16 59 5 3 11 14 15 24 4
12 13 16 24 13 10 -3 47 -10 83 -16z m3867 -237 c4 -10 10 -21 15 -24 6 -4 38
-151 38 -176 0 -22 216 79 245 115 8 10 11 -34 12 -160 1 -150 3 -179 21 -218
20 -47 86 -118 141 -151 17 -10 31 -23 31 -29 0 -5 5 -10 11 -10 6 0 30 -13
54 -30 24 -16 48 -30 54 -30 6 0 11 -4 11 -10 0 -5 12 -13 27 -17 16 -3 49
-19 76 -35 27 -16 63 -28 82 -28 29 0 35 4 45 35 15 46 9 62 -29 70 -17 4 -33
11 -36 16 -4 5 -15 9 -26 9 -10 0 -19 5 -19 10 0 6 11 10 24 10 13 0 27 7 30
16 15 39 5 55 -72 111 -105 76 -172 179 -222 336 l-18 57 40 -32 c22 -18 52
-40 66 -49 21 -12 27 -24 27 -51 0 -32 7 -42 69 -93 100 -82 178 -118 279
-131 23 -3 49 -8 57 -10 8 -3 26 -8 40 -10 14 -2 45 -8 70 -13 25 -5 99 -10
165 -11 66 -1 135 -4 152 -8 l33 -7 -40 -52 c-22 -29 -38 -53 -36 -53 2 0 -12
-16 -31 -36 -19 -20 -32 -38 -30 -41 3 -2 -7 -17 -22 -32 -40 -44 -52 -61 -44
-61 4 0 3 -4 -3 -8 -15 -9 -174 -230 -174 -241 0 -5 -7 -12 -16 -15 -9 -4 -14
-9 -11 -12 3 -3 -9 -21 -26 -39 -46 -49 -59 -65 -52 -65 3 0 -4 -9 -15 -20
-11 -11 -20 -26 -20 -34 0 -8 -4 -16 -8 -18 -4 -1 -23 -25 -42 -53 -19 -27
-40 -55 -46 -61 -6 -7 -25 -35 -43 -63 -18 -28 -37 -51 -43 -51 -5 0 -6 -5 -3
-10 3 -6 -1 -13 -9 -16 -9 -3 -16 -11 -16 -18 0 -6 -15 -27 -33 -47 -35 -40
-42 -50 -90 -124 -18 -26 -40 -60 -49 -74 -10 -14 -21 -33 -25 -41 -4 -8 -21
-29 -39 -47 -18 -17 -30 -34 -27 -37 4 -3 0 -6 -7 -6 -7 0 -11 -3 -7 -6 5 -5
0 -12 -51 -69 -12 -14 -20 -25 -17 -25 4 0 -7 -18 -24 -39 -17 -21 -31 -44
-31 -51 0 -6 -3 -9 -7 -7 -5 3 -24 -18 -43 -46 -19 -29 -43 -59 -52 -68 -10
-9 -18 -19 -18 -23 0 -8 -46 -71 -67 -94 -7 -7 -13 -17 -13 -21 0 -8 -12 -23
-66 -83 -13 -15 -24 -31 -24 -35 0 -5 -14 -24 -30 -43 -17 -19 -33 -43 -36
-53 -3 -9 -9 -15 -13 -12 -5 2 -16 -13 -26 -35 -10 -22 -22 -40 -26 -40 -4 0
-11 -9 -14 -20 -11 -36 -23 -21 -40 53 -67 274 -217 519 -420 684 -54 43 -189
123 -209 123 -7 0 -16 4 -21 8 -24 21 -241 72 -305 72 -36 0 -36 1 -48 58 -6
31 -15 83 -18 114 -6 54 -4 59 22 86 16 16 41 44 57 63 l27 33 -1 -47 c-1 -26
0 -50 3 -53 17 -16 92 45 160 128 66 81 168 304 168 368 0 11 4 20 8 20 5 0 8
-60 6 -132 -3 -181 7 -192 94 -101 127 136 200 323 203 523 0 54 2 61 10 40
10 -24 32 -121 43 -190 19 -115 30 -146 56 -153 23 -6 47 16 88 80 64 99 85
168 85 273 0 63 -6 110 -17 139 l-16 44 45 -42 c79 -73 96 -52 91 111 -5 170
-47 265 -153 340 l-45 33 89 16 c48 9 92 17 96 18 4 0 11 -7 14 -16z m313 -49
c0 -2 -7 -4 -15 -4 -8 0 -15 4 -15 10 0 5 7 7 15 4 8 -4 15 -8 15 -10z m103
-220 c4 -4 7 -16 7 -26 0 -11 12 -40 27 -66 29 -48 31 -52 88 -116 19 -21 35
-43 35 -47 0 -5 5 -9 11 -9 7 0 31 -17 54 -37 24 -21 58 -50 76 -65 l34 -27
-41 14 c-45 15 -134 71 -147 92 -4 7 -14 13 -21 13 -13 0 -66 51 -66 64 0 5
-14 25 -30 45 -17 20 -36 42 -42 50 -6 7 -12 55 -13 105 -1 80 0 86 9 54 6
-20 14 -40 19 -44z"/>
</g>
</svg>
